<svg width="58" height="58" viewBox="0 0 58 58" fill="none" xmlns="http://www.w3.org/2000/svg">
<path d="M41 1H17C8.16344 1 1 8.16344 1 17V41C1 49.8366 8.16344 57 17 57H41C49.8366 57 57 49.8366 57 41V17C57 8.16344 49.8366 1 41 1Z" fill="#FFD0EC"/>
<path d="M41 1H17C8.16344 1 1 8.16344 1 17V41C1 49.8366 8.16344 57 17 57H41C49.8366 57 57 49.8366 57 41V17C57 8.16344 49.8366 1 41 1Z" stroke="#4E4E4E" stroke-width="2"/>
<path d="M37.1964 24.0593H34.5446C34.25 24.0593 33.9554 23.9253 33.7411 23.711L32.6696 22.5057C32.3482 22.1575 31.8393 22.1307 31.4643 22.4253L31.3839 22.5057L30.4732 23.5503C30.1786 23.8985 29.7232 24.086 29.2679 24.086H14.7768C14.375 25.2646 14.1071 26.5235 14 27.7825H27.7143C27.9554 27.7825 28.1964 27.6753 28.3571 27.5146L29.6429 26.1753C29.8036 26.0146 30.0179 25.9075 30.2589 25.9075H30.3125C30.5536 25.9075 30.7946 26.0146 30.9554 26.2021L32.0268 27.4075C32.2411 27.6485 32.5357 27.7825 32.8304 27.7825H44C43.8929 26.5235 43.625 25.2646 43.2232 24.086H37.1964V24.0593ZM28.4107 31.4521L27.3393 30.2468C27.0179 29.8985 26.5089 29.8718 26.1339 30.1664L26.0536 30.2468L25.1161 31.2914C24.8214 31.6396 24.3929 31.8271 23.9375 31.8271H14.2143C14.4554 33.1128 14.8839 34.3718 15.4464 35.5771H22.2768C22.5179 35.5771 22.7321 35.47 22.9196 35.3093L24.2054 33.97C24.3661 33.8093 24.5804 33.7021 24.8214 33.7021H24.875C25.1161 33.7021 25.3571 33.8093 25.5179 33.9968L26.5893 35.2021C26.8036 35.4432 27.0982 35.5771 27.3929 35.5771H42.5536C43.1161 34.3985 43.5446 33.1396 43.7857 31.8271H29.2143C28.8929 31.8271 28.5982 31.6932 28.4107 31.4521ZM33.6607 19.7735L34.9464 18.4343C35.1071 18.2735 35.3214 18.1664 35.5625 18.1664H35.6161C35.8571 18.1664 36.0982 18.2735 36.2589 18.4343L37.3304 19.6396C37.5446 19.8807 37.8393 19.9878 38.1339 19.9878H41.0268C35.9911 13.345 26.5357 12.0325 19.8661 17.0414C18.7679 17.8718 17.7768 18.8628 16.9196 19.9878H33.0179C33.2857 20.0414 33.5 19.9343 33.6607 19.7735ZM23.2946 39.2735C22.9732 39.2735 22.6786 39.1396 22.4911 38.9253L21.4196 37.72C21.0982 37.3718 20.5625 37.345 20.2143 37.6664L20.1607 37.72L19.2232 38.7646C18.9286 39.1128 18.5 39.3003 18.0446 39.3003H17.9911C23.6429 45.3539 33.2054 45.6485 39.2857 39.9432C39.5268 39.7289 39.7411 39.4878 39.9821 39.2468H23.2946V39.2735Z" fill="black"/>
</svg>
