<?xml version="1.0" encoding="utf-8"?>
<!-- Generator: Adobe Illustrator 27.0.0, SVG Export Plug-In . SVG Version: 6.00 Build 0)  -->
<svg version="1.1" id="Layer_1" xmlns="http://www.w3.org/2000/svg" xmlns:xlink="http://www.w3.org/1999/xlink" x="0px" y="0px"
	 viewBox="0 0 4000 4000" style="enable-background:new 0 0 4000 4000;" xml:space="preserve">
<style type="text/css">
	.st0{opacity:0.15;}
	.st1{fill:#371A45;}
	.st2{fill:#F29940;}
	.st3{fill:#C78CFF;}
	.st4{opacity:0.6;}
	.st5{fill:#FFFFFF;}
	.st6{opacity:0.2;}
	.st7{fill:#2B0051;}
	.st8{fill:#22A7F0;}
	.st9{opacity:0.7;}
	.st10{fill:#1C7AEA;}
	.st11{fill:#FFD95F;}
	.st12{opacity:0.5;}
	.st13{fill:none;}
</style>
<g>
	<g>
		<g class="st0">
			
				<ellipse transform="matrix(0.0926 -0.9957 0.9957 0.0926 -804.7595 4499.9019)" class="st1" cx="2066.54" cy="2691.49" rx="626.86" ry="1503.78"/>
		</g>
		<g>
			<g>
				<path class="st2" d="M2044.21,2312.59c-198.02,238.11-504.25,388.3-814.41,389.46c-10.66,41.85-25.34,73.41-48.94,98.05
					c-23.54,24.65-58,41.64-91.61,35.62c-33.24-5.91-59.91-33.77-70.09-65.81c-10.23-32.03-5.88-67.29,5.78-98.84
					c-197.39-87.34-329.51-294.89-342.5-511.42c-2.12-34.3-1.22-68.76,2.92-103.07c-16.17-23.59-42.89-37.84-65.58-57.42
					c-22.64-19.58-41.19-45.23-46.66-74.62c-5.83-31.24,4.67-63.38,24.49-88.55c10.55-13.4,23.8-24.86,38.7-33.09
					c42.73-23.75,95.75-24.12,142.62-9.92c252.74-269.14,623.86-413.21,991.59-399.12c54.45,234.58,123.85,472,201.94,708.32
					c3.61,10.92,7.21,21.79,10.87,32.72C2003.12,2194.22,2023.43,2253.48,2044.21,2312.59z"/>
			</g>
			<g>
				<path class="st3" d="M716.86,2327.68c-19.19-53.99-30.96-110.66-34.41-168.03c-1.17-19.21-1.43-38.42-0.64-57.63
					c9.07,7.49,17.39,15.57,24.02,25.17c-4.14,34.3-5.04,68.76-2.92,103.06C704.87,2263.08,709.59,2295.7,716.86,2327.68z"/>
			</g>
			<g class="st4">
				<path class="st5" d="M1787.34,1464.37c-366.51-13.04-736.05,130.98-987.93,399.23c-46.87-14.2-99.89-13.83-142.62,9.92
					c-14.9,8.23-28.15,19.68-38.7,33.09c-14.31,18.15-23.75,40-25.66,62.48c-9.38-13.46-16.33-28.44-19.3-44.54
					c-5.83-31.24,4.67-63.38,24.49-88.55c10.55-13.4,23.8-24.86,38.7-33.09c42.73-23.75,95.75-24.12,142.62-9.92
					c252.74-269.14,623.86-413.21,991.59-399.12C1775.99,1417.35,1781.56,1440.83,1787.34,1464.37z"/>
			</g>
			<g class="st0">
				<path class="st1" d="M1983.35,2134.9c-3.66-10.92-7.26-21.8-10.87-32.72c-191.39,188.82-460.99,295.42-732.49,291.36
					c-15.27,35.89-39.39,76.57-78.47,77.95c-33.88,1.21-59.65-28.02-87-47.92c-26.83-19.47-59.06-30.29-87.21-47.81
					c-95.7-59.58-141.03-119.48-174.64-229.14c-15.91-51.82-22.11-106.39-27.73-160.75c-2.81-26.97-23.59-48.71-50.53-52.46
					c-41.57-5.8-81.12-25.96-109.32-56.89c-11.03-12.14-20.25-25.86-27.46-40.53c-19.83,25.17-30.33,57.31-24.49,88.55
					c5.46,29.39,24.02,55.04,46.66,74.62c22.69,19.58,49.41,33.83,65.58,57.42c-4.14,34.3-5.04,68.76-2.92,103.07
					c12.99,216.53,145.11,424.08,342.5,511.42c-11.66,31.56-16.01,66.81-5.78,98.84c10.18,32.03,36.85,59.9,70.09,65.81
					c33.61,6.02,68.07-10.98,91.61-35.62c23.59-24.64,38.28-56.2,48.94-98.05c310.15-1.16,616.39-151.35,814.41-389.46
					C2023.43,2253.48,2003.12,2194.22,1983.35,2134.9z M1169.36,2693.61c-13.89,43.64-51.96,70.56-85.09,60.11
					c-33.14-10.4-48.78-54.25-34.94-97.89c13.89-43.64,51.96-70.56,85.09-60.11C1167.56,2606.11,1183.2,2649.96,1169.36,2693.61z"/>
			</g>
			<g>
				<path class="st1" d="M1103.08,2864.92c-5.9,0-11.77-0.5-17.56-1.53c-39.25-6.98-73.22-38.48-86.53-80.23
					c-10.82-33.94-7.06-67.57,0.12-93.92c-106.83-51.98-198.52-140.93-259.56-252.29c-62.25-113.55-89.16-243.7-76.15-367.47
					c-8.77-10.35-20.7-19.22-33.21-28.52c-7.98-5.93-16.23-12.07-24.22-18.97c-20.4-17.63-46.26-46.99-53.65-86.75
					c-10.05-54.14,20.95-114.71,73.72-144.03c40.98-22.76,93.65-28.11,146.26-15.18c252.2-262.84,624.68-410.82,999.04-396.48
					c9.54,0.37,17.64,7.07,19.8,16.36c64.02,275.93,153.34,575.72,273.06,916.48c2.47,7.02,1.06,14.82-3.7,20.54
					c-99.72,119.88-228.44,219.86-372.26,289.12c-140.42,67.63-292.99,104.78-442.27,107.81c-11.75,39.56-27.4,68.25-49.78,91.67
					C1169.53,2849.42,1135.77,2864.92,1103.08,2864.92z M716.39,1811.4c-25.68,0-49.74,5.65-69.81,16.8
					c-37.34,20.75-59.49,62.51-52.66,99.31c5.15,27.71,24.44,49.26,39.72,62.47c6.82,5.89,14.1,11.3,21.81,17.03
					c16.95,12.61,34.49,25.64,47.39,44.45c2.91,4.24,4.17,9.39,3.55,14.5c-29.66,246.36,107.92,495.59,327.12,592.62
					c10.21,4.52,15.15,16.2,11.28,26.67c-7.98,21.62-15.41,53.92-5.48,85.07c8.46,26.56,30.01,47.23,53.62,51.43
					c28.02,5.01,55.93-11.93,72.66-29.44c19.94-20.87,33.41-48.2,43.7-88.62c2.38-9.35,10.78-15.91,20.42-15.94
					c298.03-1.15,592.64-140.27,790.56-372.72c-115.96-331.06-203.29-623.71-266.66-893.7c-361.33-9.26-718.82,136.95-959.27,392.95
					c-5.5,5.86-13.86,8.1-21.55,5.76C753.74,1814.25,734.64,1811.4,716.39,1811.4z"/>
			</g>
			<g>
				<path class="st5" d="M3413.98,3025.39c-73.69,53.14-177.5,49.29-260,11.08c-82.55-38.21-147.5-105.55-205.97-174.94
					c-22.43,21.43-64.79,44.33-108,53.19c-43.21,8.87-87.9,5.49-131.91,2.11c-2.81,1.48-5.62,2.96-8.43,4.43
					c-0.27,0.16-0.58,0.32-0.85,0.48c-204.49,107.13-445.4,170.93-679.48,132.51c-237.57-39-463.75-199.27-533.25-428.78
					c-95.7-38.74-233.01-65.54-313.49-163.91c-35.73-43.64-56.2-98.47-61.34-154.73c-1.7-18.15-1.75-36.52-0.21-54.67
					c0.21-2.96,0.53-5.91,0.85-8.87c8.75-77.05,45.12-149.72,96.76-207.77c46.34-4.59,134.19-8.07,243.83-11.66
					c1.33-0.05,2.7-0.11,4.08-0.16c336.77-10.92,875.22-22.85,1053.3-70.82c-31.55-44.22-71.41-75.36-110.01-106.65
					c-38.6-31.29-77.35-64.33-101.85-107.45c-24.49-43.12-32.39-98.84-7.63-141.8c12.72-22.11,31.86-37.94,54.4-48.81
					c36.79-17.68,82.71-22.11,124.33-18.73c60.23,4.86,119.03,21.8,173.1,48.5c0.21,0.11,0.48,0.21,0.69,0.32
					c95.8,47.44,176.66,125.49,224.05,221.01c2.76,5.49,5.35,10.98,7.85,16.57c0.05,0.05,0.05,0.16,0.11,0.26
					c0.26,0.53,0.53,1.06,0.74,1.58c44.96-2.48,85.2-25.23,121.52-21c1.01,0.11,2.07,0.26,3.07,0.42
					c41.35,5.7,76.56,39.95,100.1,66.81c1.01,1.16,1.96,2.32,2.92,3.54c0.95,1.21,1.8,2.43,2.65,3.69c0.42,0.58,0.8,1.16,1.22,1.74
					c0.53,0.84,1.06,1.69,1.54,2.53c0.37,0.53,0.69,1.06,0.95,1.64c0.64,1.11,1.27,2.22,1.8,3.32c0.11,0.11,0.11,0.16,0.16,0.26
					c0.16,0.26,0.32,0.53,0.42,0.84c0.58,1.11,1.11,2.27,1.64,3.43c0.58,1.32,1.17,2.64,1.7,4.01c0.11,0.26,0.21,0.53,0.32,0.79
					c0.53,1.32,1.01,2.69,1.48,4.06c0.53,1.48,1.01,3.01,1.48,4.49c0.64,1.95,1.17,3.91,1.64,5.91c0.27,1.16,0.58,2.32,0.85,3.54
					c0.74,3.11,1.33,6.33,1.91,9.55c0.26,1.48,0.48,2.9,0.74,4.38c0.05,0.32,0.11,0.63,0.11,0.95c0.95,6.33,1.59,12.77,2.17,19.16
					c0.11,1.64,0.27,3.27,0.37,4.91c0.27,3.27,0.48,6.49,0.69,9.71c4.03,63.33,8.06,127.23-2.28,189.82
					c-8.32,50.29-26.88,100.16-58.48,139.74c-7.69,9.71-16.22,18.79-25.61,27.07c12.51-2.8,24.65-4.12,36.42-4.12
					c57.1,0.11,104.6,31.4,131.06,72.09c31.86,49.08,41.19,108.82,53.39,165.97c12.19,57.21,29.74,116.79,72.69,156.63
					c33.93,31.51,80.64,47.5,113.14,80.06c1.33,1.32,2.65,2.69,3.92,4.06C3512.91,2854.4,3487.67,2972.25,3413.98,3025.39z"/>
			</g>
			<g class="st0">
				<path class="st1" d="M2733.39,2107.93c-17.28,36.84-54.93,60.21-93.21,74.52c-40.88,15.25-85.57,22.53-128.41,14.3
					c-42.84-8.23-83.4-33.35-104.44-71.4c-160.06,138.53-388.62,183.28-597.56,147.02c-99.36-17.26-198.76-53.35-270.71-123.65
					c-36.26-35.41-63.67-78.31-82.5-125.02c336.77-10.92,875.22-22.85,1053.3-70.82c-31.55-44.22-71.41-75.36-110.01-106.65
					c-38.6-31.29-77.35-64.33-101.85-107.45c-24.49-43.12-32.39-98.84-7.63-141.8c12.72-22.11,31.86-37.94,54.4-48.81
					c0.16,3.48,0.42,6.91,0.8,10.34c5.25,46.18,29.85,90.82,58.9,126.23c44.59,54.41,103.92,94.46,160.91,135.89
					c56.99,41.43,113.72,86.34,149.83,146.71c2.44,4.06,4.72,8.23,6.89,12.45C2742.83,2019.85,2752.32,2067.61,2733.39,2107.93z"/>
			</g>
			<g class="st6">
				<path class="st7" d="M1619.8,2228.99c-134.93-23.27-274.53-19.42-407.97,11.19c-33.03,7.6-68.07,16.68-100.79,11.98
					c0.21-2.96,0.53-5.91,0.85-8.87c8.75-77.05,45.12-149.72,96.76-207.77c46.34-4.59,134.19-8.07,243.83-11.66
					c13.1,15.57,25.66,31.66,37.96,47.81C1531.63,2125.72,1570.81,2181.87,1619.8,2228.99z"/>
			</g>
			<g>
				<g>
					<path class="st5" d="M2117.59,2334.19l-1.05,115.68c-0.25,27.47,11.42,53.71,32.03,71.99l165.39,146.7
						c25.52,22.63,62.17,27.87,93.06,13.28l371.05-175.21c21.4-10.11,37.85-28.33,45.66-50.59l30.16-139.91l-236.93-187.62
						L2117.59,2334.19z"/>
				</g>
				<g class="st0">
					<path class="st1" d="M2117.59,2334.19l-1.05,115.68c-0.25,27.47,11.42,53.71,32.03,71.99l165.39,146.7
						c25.52,22.63,62.17,27.87,93.06,13.28l371.05-175.21c21.4-10.11,37.85-28.33,45.66-50.59l30.16-139.91l-236.93-187.62
						L2117.59,2334.19z"/>
				</g>
				<g>
					<path class="st1" d="M2370.51,2711.22c-25.51,0-50.7-9.17-70.6-26.82l-165.39-146.7c-25.19-22.34-39.46-54.43-39.15-88.02
						l1.05-115.67c0.08-8.51,5.24-16.13,13.1-19.38l499.37-205.67c7.08-2.92,15.19-1.78,21.19,2.98l236.93,187.62
						c6.32,5,9.25,13.16,7.55,21.04l-30.17,139.91c-0.19,0.86-0.42,1.71-0.72,2.54c-9.62,27.42-30.25,50.28-56.6,62.72
						l-371.04,175.21C2401.49,2707.86,2385.94,2711.22,2370.51,2711.22z M2138.61,2348.41l-0.93,101.65
						c-0.2,21.36,8.88,41.76,24.91,55.98l165.39,146.7c19.24,17.07,46.72,20.99,69.98,9.99l371.05-175.22
						c15.81-7.46,28.25-21.01,34.31-37.3l27.09-125.65l-216.88-171.75L2138.61,2348.41z"/>
				</g>
				<g>
					<path class="st5" d="M2842.5,2262.32l-172.6-141.3c-32.42-26.55-77.07-32.73-115.54-16l-411.17,178.83
						c-30.97,13.52-36.61,54.87-10.38,76.11l191.08,154.75c28.67,23.23,68.05,28.37,101.77,13.29l405.67-181.41
						C2865.37,2331.37,2871.41,2285.8,2842.5,2262.32z"/>
				</g>
				<g>
					<path class="st1" d="M2385.45,2557.79c-26.76,0-53.17-9.07-74.86-26.65L2119.5,2376.4c-18.1-14.65-27.04-37.15-23.92-60.19
						c3.12-23.07,17.76-42.42,39.15-51.75l411.2-178.85c45.97-20,98.62-12.71,137.38,19.03l172.57,141.28
						c19.29,15.69,28.87,39.74,25.62,64.34c-3.24,24.66-18.77,45.45-41.53,55.64l-405.66,181.41
						C2418.57,2554.34,2401.94,2557.79,2385.45,2557.79z M2599.14,2116.83c-12.26,0-24.61,2.5-36.34,7.6l-411.17,178.83
						c-7.82,3.41-12.97,10.21-14.12,18.64c-1.13,8.39,2.01,16.27,8.62,21.62l191.08,154.75c22.61,18.32,53.2,22.31,79.82,10.41
						l405.66-181.41c9.38-4.19,15.52-12.4,16.85-22.52c1.33-10.08-2.46-19.56-10.39-26.01c-0.02-0.01-0.04-0.03-0.06-0.05
						l-172.6-141.3C2639.95,2123.84,2619.68,2116.83,2599.14,2116.83z"/>
				</g>
			</g>
			<g>
				<path class="st1" d="M2564.88,2244.54c-4.91,0-9.84-1.7-13.85-5.17l-94.45-81.87c-8.83-7.65-9.79-21.02-2.13-29.84
					c7.66-8.83,21.01-9.79,29.84-2.13l94.45,81.87c8.83,7.65,9.79,21.02,2.13,29.84C2576.7,2242.07,2570.81,2244.54,2564.88,2244.54
					z"/>
			</g>
			<g>
				<g>
					<path class="st8" d="M2346.33,2408.95c34.47,28.41,81.02,28.73,104.07,0.75l38.94-47.26l-124.7-102.76l-38.94,47.26
						C2302.64,2334.92,2311.9,2380.58,2346.33,2408.95z"/>
				</g>
				<g class="st9">
					<path class="st5" d="M2327.2,2387.88c-4.62-19.35-1.47-38.9,10.67-53.63l38.92-47.23l104.04,85.73l8.52-10.33l-124.71-102.76
						l-38.95,47.27C2307.76,2328.68,2309.39,2361.19,2327.2,2387.88z"/>
				</g>
				<g>
					<path class="st10" d="M2346.32,2408.98c34.46,28.4,81.02,28.68,104.06,0.72l38.95-47.27l-124.71-102.76l-20.96,25.44
						l61.16,50.4l-38.92,47.23c-7.4,8.98-17.27,15.05-28.33,18.19C2340.3,2403.71,2343.19,2406.4,2346.32,2408.98z"/>
				</g>
				<g>
					<path class="st1" d="M2403.2,2446.66c-0.22,0-0.44,0-0.67-0.01c-23.35-0.17-46.97-9.12-66.5-25.21
						c-19.51-16.07-32.81-37.53-37.44-60.43c-4.89-24.14,0.3-47,14.61-64.37l38.94-47.26c2.73-3.32,6.67-5.41,10.94-5.82
						c4.29-0.41,8.54,0.89,11.86,3.62l124.7,102.76c3.32,2.73,5.41,6.67,5.82,10.94c0.41,4.27-0.89,8.54-3.62,11.85l-38.94,47.26
						C2448.71,2437.21,2427.53,2446.66,2403.2,2446.66z M2366.83,2282.48l-28.64,34.77c-7.98,9.69-10.78,22.95-7.86,37.34
						c3.16,15.63,12.5,30.5,26.3,41.86l0,0c13.81,11.38,30.2,17.71,46.13,17.82c0.14,0,0.28,0,0.42,0c14.49,0,26.8-5.27,34.72-14.87
						l28.64-34.76L2366.83,2282.48z"/>
				</g>
				<g>
					
						<ellipse transform="matrix(0.6359 -0.7717 0.7717 0.6359 -899.9661 2714.4355)" class="st8" cx="2427" cy="2311.08" rx="65.54" ry="80.8"/>
				</g>
				<g class="st9">
					<path class="st5" d="M2385.31,2361.66c3.74,3.08,7.67,5.85,11.69,8.3c-25.66-28.21-30.8-67.14-10.26-92.07
						c20.5-24.88,59.69-27.28,92.29-7.48c-3.18-3.48-6.64-6.81-10.38-9.89c-34.42-28.36-80.98-28.73-103.98-0.81
						C2341.63,2287.67,2350.9,2333.3,2385.31,2361.66z"/>
				</g>
				<g>
					<path class="st10" d="M2385.31,2361.66c34.46,28.4,81.03,28.77,104.07,0.8c23-27.92,13.74-73.55-20.73-101.95
						c-2.1-1.73-4.24-3.34-6.4-4.81c13.43,24.96,13.25,53.47-2.97,73.16c-21.65,26.28-64.06,27.53-97.62,4.04
						C2367.2,2343.44,2375.17,2353.3,2385.31,2361.66z"/>
				</g>
				<g>
					<path class="st1" d="M2442.22,2399.37c-0.24,0-0.48,0-0.72,0c-23.35-0.18-46.96-9.14-66.47-25.22l0,0l0,0
						c-19.51-16.07-32.82-37.53-37.46-60.42c-4.9-24.14,0.28-46.98,14.58-64.33c14.16-17.18,35.31-26.62,59.63-26.62
						c0.24,0,0.48,0,0.72,0c23.35,0.18,46.96,9.14,66.47,25.22c19.51,16.07,32.82,37.53,37.46,60.42
						c4.9,24.14-0.28,46.98-14.58,64.33C2487.7,2389.93,2466.54,2399.37,2442.22,2399.37z M2411.79,2255.17
						c-14.48,0-26.77,5.25-34.65,14.82c-7.97,9.67-10.75,22.91-7.83,37.3c3.17,15.62,12.51,30.49,26.31,41.86l0,0
						c13.8,11.37,30.18,17.7,46.13,17.82c14.55,0.04,27.14-5.15,35.11-14.82c7.97-9.67,10.75-22.92,7.83-37.3
						c-3.17-15.62-12.51-30.49-26.31-41.87c-13.8-11.37-30.18-17.7-46.13-17.82C2412.1,2255.17,2411.94,2255.17,2411.79,2255.17z"/>
				</g>
			</g>
			<g>
				<path class="st1" d="M2161.24,3086.84c-47.52,0-96.08-3.62-145.32-11.7c-122.31-20.08-242.77-72.33-339.19-147.11
					c-100.57-78-172.24-176.92-207.8-286.59c-18.36-7.1-38.21-13.93-59.04-21.08c-87.82-30.17-187.36-64.37-253.66-145.4
					c-51.3-62.68-75.12-147.98-65.35-234.05c8.78-77.47,45-155.4,101.97-219.44c3.53-3.96,8.42-6.46,13.71-6.99
					c61.85-6.18,191.78-10.19,356.28-15.27c310.64-9.59,729.13-22.52,909.61-59.3c-24.27-27.36-52.2-49.96-79.41-71.97l-6.5-5.26
					c-41.5-33.65-80.9-67.64-106.92-113.44c-31.05-54.65-33.95-117.04-7.57-162.81c32.38-56.34,106.7-85.56,198.76-78.07
					c175.39,14.14,341.52,128.71,417.67,286.72c13.51-2.06,26.94-5.72,40.04-9.29c24.47-6.68,49.77-13.59,75.01-9.57
					c36.66,5.05,73.67,29.19,112.71,73.75c27.16,31.03,29.94,73.8,31.97,105.03c4.05,63.69,8.24,129.51-2.52,194.64
					c-8.82,53.28-27.65,100.96-54.73,138.79c54.22,4.38,103.97,33.33,134.99,81.02c30.19,46.5,41.29,100.35,52.04,152.42
					c1.43,6.91,2.85,13.81,4.31,20.67c11.59,54.35,27.65,109.6,66.38,145.53c14.68,13.62,32.43,24.28,51.22,35.56
					c23.3,13.98,47.39,28.45,67.01,49.73c30.33,32.87,44.29,78.12,39.33,127.42c-5.73,56.84-35.59,109.84-79.88,141.78
					c-73.55,53.03-183.96,58.2-281.26,13.12c-81.32-37.65-146.29-102.75-199.7-164.59c-27.71,20.16-65.79,37.11-101.13,44.37
					c-44.21,9.08-88.62,6.23-131.71,2.95l-2.71,1.42c-0.18,0.1-0.37,0.21-0.55,0.31c-0.22,0.12-0.44,0.24-0.66,0.36
					C2573.54,3011.26,2378.39,3086.83,2161.24,3086.84z M1219.04,2055.81c-48.1,56.34-78.59,123.46-86.12,189.87
					c-8.5,74.79,11.93,148.58,56.05,202.48c58.68,71.73,152.17,103.84,234.66,132.18c24.93,8.56,48.48,16.66,70.4,25.53
					c5.93,2.4,10.45,7.36,12.31,13.48c62.76,207.24,270.3,373.62,516.43,414.03c262.51,43.08,507.04-47.02,666-130.26
					c0.13-0.07,0.24-0.14,0.35-0.19c0.23-0.13,0.46-0.26,0.7-0.39l8.44-4.44c3.52-1.85,7.5-2.65,11.46-2.37
					c42.08,3.24,85.58,6.56,126.04-1.74c41.68-8.55,79.82-30.75,97.62-47.76c4.22-4.04,9.86-6.17,15.76-5.84
					c5.83,0.31,11.28,3.03,15.04,7.5c55.56,65.92,118.08,132.06,198.69,169.38c83.66,38.75,177.37,35.2,238.74-9.05l0,0
					c34.1-24.59,58.06-67.39,62.52-111.69c3.74-37.08-6.32-70.64-28.33-94.48c-15.51-16.82-36-29.12-57.69-42.14
					c-19.82-11.9-40.31-24.2-58.21-40.82c-47.36-43.94-65.95-106.58-78.99-167.72c-1.48-6.95-2.92-13.95-4.37-20.95
					c-9.95-48.23-20.23-98.11-46.07-137.91c-23.95-36.83-76.29-74.34-145.08-58.85c-9.44,2.14-19.1-2.4-23.49-11.01
					c-4.4-8.6-2.41-19.09,4.83-25.49c8.28-7.31,16.03-15.51,23.03-24.36c26.98-33.79,45.7-78.75,54.19-130.07
					c9.97-60.36,5.94-123.73,2.04-185.02c-2.12-32.62-5.21-61.17-21.58-79.87c-32.04-36.55-60.53-56.11-87.09-59.77
					c-16.68-2.65-35.67,2.53-57.67,8.54c-18.83,5.13-40.17,10.95-62.85,12.2c-9.08,0.42-17.26-4.72-20.7-13.01l-0.26-0.55
					c-0.13-0.26-0.25-0.52-0.37-0.78c-67.22-150.56-223.18-260.64-388.07-273.94c-28.22-2.27-123.07-4.94-158.68,57
					c-18.65,32.36-15.62,79.77,7.69,120.8c22.38,39.39,58.54,70.47,96.78,101.47l6.46,5.23c37.36,30.22,75.99,61.47,107.45,105.57
					c4.02,5.64,5.03,12.9,2.69,19.42c-2.33,6.52-7.72,11.49-14.41,13.3c-162.62,43.83-618.42,57.91-951.24,68.18
					C1413.75,2046.15,1282.98,2050.18,1219.04,2055.81z"/>
			</g>
			<g>
				<path class="st5" d="M3124.82,2146.19c-8.32,50.29-26.88,100.16-58.48,139.74c-2.12,0.84-4.24,1.58-6.42,2.27
					c-66.59,52.98-135.25,96.94-197.44,143.49c-41.83,76.84-49.2,166.76-62.72,253.1c-13.47,86.13-36.74,176.47-100.1,236.47
					c-0.16,0.21-0.37,0.37-0.53,0.53c-0.11,0-0.21-0.05-0.32-0.05c-81.12-18-152.32-45.86-213.61-82.17
					c-79.26-46.97-141.98-108.08-188.11-180.11c55.14-120.59,83.61-265.92,172.89-375.95c76.03-93.62,169.71-165.51,277.71-219.76
					c6.95-65.12,49.89-120.62,80.37-188.75c7.16-15.99,14.79-32.14,26.88-44.8c5.62-5.86,12.41-10.92,19.83-14.35
					c0.05,0.05,0.05,0.16,0.11,0.26c0.21,0.69,0.16,1.79,0.74,1.58c48.19-22.22,85.31-26.28,121.52-21
					c1.01,0.11,2.07,0.26,3.07,0.42c41.35,5.7,76.56,39.95,100.1,66.81c1.01,1.16,1.96,2.32,2.92,3.54c0.95,1.21,1.8,2.43,2.65,3.69
					c0.42,0.58,0.8,1.16,1.22,1.74c0.53,0.84,1.06,1.69,1.54,2.53c0.37,0.53,0.69,1.06,0.95,1.64c0.64,1.11,1.27,2.22,1.8,3.32
					c0.11,0.11,0.11,0.16,0.16,0.26c0.16,0.26,0.32,0.53,0.42,0.84c0.58,1.11,1.11,2.27,1.64,3.43c0.58,1.32,1.17,2.64,1.7,4.01
					c0.11,0.26,0.21,0.53,0.32,0.79c0.53,1.32,1.01,2.69,1.48,4.06c0.53,1.48,1.01,3.01,1.48,4.49c0.64,1.95,1.17,3.91,1.64,5.91
					c0.32,1.16,0.58,2.37,0.85,3.54c0.74,3.17,1.38,6.33,1.91,9.55c0.26,1.48,0.48,2.9,0.74,4.38c0.05,0.32,0.11,0.63,0.11,0.95
					c0.95,6.33,1.64,12.77,2.17,19.16c0.11,1.64,0.27,3.27,0.37,4.91c0.27,3.27,0.48,6.49,0.69,9.71
					C3131.13,2019.7,3135.16,2083.6,3124.82,2146.19z"/>
			</g>
			<g class="st0">
				<path class="st1" d="M3413.98,3025.39c-73.69,53.14-177.5,49.29-260,11.08c-82.55-38.21-147.5-105.55-205.97-174.94
					c-22.43,21.43-64.79,44.33-108,53.19c-43.21,8.87-87.9,5.49-131.91,2.11c-2.81,1.48-5.62,2.96-8.43,4.43
					c-0.27,0.16-0.58,0.32-0.85,0.48c-204.49,107.13-445.4,170.93-679.48,132.51c-237.57-39-463.75-199.27-533.25-428.78
					c-95.7-38.74-233.01-65.54-313.49-163.91c-35.73-43.64-56.2-98.47-61.34-154.73c41.41,44.12,91.93,79.74,147.76,103.33
					c95.91,40.58,209.58,50.45,308.56,18c74.33,181.43,225.64,330.2,408.82,401.97c161.28,63.12,345.25,65.86,508.81,9.45
					c22.27-7.7,44.16-16.47,65.58-26.33c58.27-26.86,115.9-64.65,142.83-122.64c50.95-109.82,33.23-226.43,100.3-327.28
					c53.23-79.95,129.42-68.96,207.9-124.61c109.15-77.4,105.55-308.72,109.74-358.07c0.16,0.26,0.32,0.53,0.42,0.84
					c0.58,1.11,1.11,2.27,1.64,3.43c0.58,1.32,1.17,2.64,1.7,4.01c0.11,0.26,0.21,0.53,0.32,0.79c0.53,1.32,1.01,2.69,1.48,4.06
					c0.53,1.48,1.01,3.01,1.48,4.49c0.64,1.95,1.17,3.91,1.64,5.91c0.32,1.16,0.58,2.37,0.85,3.54c0.74,3.17,1.38,6.33,1.91,9.55
					c0.26,1.48,0.48,2.9,0.74,4.38c0.05,0.32,0.11,0.63,0.11,0.95c0.95,6.33,1.64,12.77,2.17,19.16c0.11,1.64,0.27,3.27,0.37,4.91
					c0.27,3.27,0.48,6.49,0.69,9.71c4.03,63.33,8.06,127.23-2.28,189.82c-8.32,50.29-26.88,100.16-58.48,139.74
					c-7.69,9.71-16.22,18.79-25.61,27.07c12.51-2.8,24.65-4.12,36.42-4.12c-21.84,25.65-42.41,51.98-56.09,82.59
					c-37.43,83.96-15.22,181.38,11.56,269.3c17.6,57.79,37.43,115.99,71.89,165.71c34.46,49.71,85.78,90.72,145.75,100.27
					c78.89,12.56,163.19-37.36,189.75-112.35c3.55-10.03,5.99-20.32,7.42-30.77c1.33,1.32,2.65,2.69,3.92,4.06
					C3512.91,2854.4,3487.67,2972.25,3413.98,3025.39z"/>
			</g>
			<g>
				<path class="st1" d="M2941.67,2887.02c-17.54-33.03-32.66-68.02-42.81-104.12c-10.29-36.09-15.83-73.01-18.12-109.69
					c-0.22-3.53,2.47-6.58,6-6.8c3.24-0.2,6.07,2.04,6.69,5.14l0.01,0.05c7.07,35.31,17.19,69.72,31.37,102.05
					c14.1,32.41,32.24,62.44,52.87,91.15c6.84,9.51,4.67,22.77-4.85,29.6c-9.51,6.84-22.77,4.67-29.6-4.85
					c-0.54-0.75-1.02-1.53-1.45-2.32L2941.67,2887.02z"/>
			</g>
			<g>
				<path class="st1" d="M3109.24,2333.77c-25.76-3.26-52.12-1.26-76.84,6.7c-24.72,7.89-47.66,21.76-66.66,40.36
					c-19.06,18.56-34.1,41.68-44.79,66.95c-10.74,25.3-17.26,52.65-20.68,80.54l-0.02,0.16c-0.51,4.18-4.31,7.14-8.49,6.63
					c-3.96-0.49-6.84-3.97-6.68-7.89c1.27-29.3,5.79-58.8,15.3-87.23c9.46-28.38,24.08-55.67,44.42-78.89
					c20.23-23.24,46.22-42.11,75.38-54.01c29.13-12,61.12-16.98,92.55-15.5l0.19,0.01c11.68,0.55,20.71,10.47,20.16,22.15
					c-0.55,11.68-10.47,20.71-22.15,20.16C3110.36,2333.89,3109.77,2333.83,3109.24,2333.77z"/>
			</g>
			<g>
				<path class="st1" d="M2806.86,2618.07c-7.58,0-14.91-4.08-18.71-11.25c-69.23-130.45-213.13-211.1-366.71-205.36
					c-11.87,0.34-21.49-8.68-21.93-20.36c-0.43-11.68,8.68-21.49,20.36-21.93c169.59-6.35,328.88,83.12,405.66,227.81
					c5.47,10.32,1.55,23.13-8.77,28.61C2813.59,2617.27,2810.2,2618.07,2806.86,2618.07z"/>
			</g>
			<g>
				<path class="st7" d="M2508.97,1914.76l85.35,105.91c3.02,3.74,2.43,9.21-1.31,12.23c-3.31,2.67-8,2.51-11.11-0.17l-103.29-88.51
					c-8.91-7.64-9.95-21.05-2.31-29.96c7.64-8.91,21.05-9.94,29.96-2.31C2507.23,1912.79,2508.18,1913.79,2508.97,1914.76z"/>
			</g>
			<g>
				<path class="st7" d="M2515.24,1949.16c-10.95,0-20.23-8.45-21.07-19.55c-0.88-11.65,7.84-21.82,19.49-22.71
					c120.74-9.19,229.63-86.67,277.42-197.4c4.63-10.73,17.08-15.66,27.81-11.04c10.73,4.63,15.67,17.08,11.04,27.81
					c-53.94,124.99-176.82,212.46-313.06,222.83C2516.33,1949.14,2515.79,1949.16,2515.24,1949.16z"/>
			</g>
			<g>
				<path class="st7" d="M2173.95,1892.42c-2.45,0-4.93-0.18-7.43-0.53c-21.76-3.12-38.19-19.1-41.87-40.71l-10.18-59.91
					c-0.5-2.94-2.85-5.3-5.85-5.85l-60.25-11.22c-21.28-3.96-36.99-20.35-40.02-41.73c-3.02-21.34,7.5-41.4,26.8-51.1l51.1-25.68
					c2.85-1.43,4.4-4.47,3.88-7.57l-9.49-55.78c-3.71-21.81,6.67-42.37,26.44-52.39c19.85-10.06,42.68-6.25,58.14,9.73l39.46,40.74
					c2.21,2.28,5.76,2.88,8.61,1.44l51.09-25.67c19.37-9.72,41.83-6.18,57.24,9.04c15.32,15.13,19.14,37.41,9.72,56.76l-26.73,54.93
					c-1.29,2.66-0.77,5.88,1.3,8.01l42.38,43.75c15.26,15.77,18.42,38.43,8.05,57.74c-10.42,19.4-31.16,29.33-52.84,25.28
					l-53.59-9.98c-3.24-0.6-6.51,1.02-7.93,3.95l-23.77,48.85C2209.7,1881.99,2192.83,1892.42,2173.95,1892.42z M2129.77,1576.77
					c-1.33,0-2.56,0.42-3.57,0.92c-2.16,1.09-4.58,3.29-3.85,7.54l9.49,55.79c3.65,21.57-7.04,42.65-26.6,52.47l-51.1,25.68
					c-3.82,1.91-4.23,5.06-3.9,7.36c0.33,2.32,1.61,5.26,5.87,6.05l60.26,11.22c20.34,3.79,36.34,20.01,39.81,40.35l10.19,59.93
					c0.72,4.26,3.74,5.57,6.14,5.91c2.45,0.33,5.72-0.06,7.64-4l23.76-48.84c9.72-20,31.84-31.1,53.73-27.04l53.59,9.98
					c4.37,0.81,6.67-1.56,7.81-3.7c1.12-2.08,1.82-5.2-1.17-8.28l-42.37-43.75c-14.4-14.87-18-37.36-8.96-55.97l26.73-54.94
					c1.83-3.76,0.24-6.5-1.41-8.13c-1.41-1.38-4.38-3.39-8.5-1.33l-51.09,25.67c-19.52,9.8-42.83,5.86-58.01-9.81l-39.46-40.73
					c0,0,0,0,0,0C2133.13,1577.37,2131.38,1576.77,2129.77,1576.77z"/>
			</g>
			<g>
				<path class="st1" d="M1266.77,2230.79c45.14-7.56,90.65-13.64,136.49-17.34c45.83-3.75,91.94-5.09,137.96-4.19
					c92.13,1.79,183.52,12.04,274.19,23.86c11.59,1.51,19.76,12.13,18.25,23.72c-1.51,11.59-12.13,19.76-23.72,18.25
					c-0.27-0.03-0.54-0.07-0.8-0.12l-0.16-0.03c-89.41-15.52-178.97-29.4-268.99-34.96c-45-2.79-90.1-3.39-135.22-1.62
					c-45.12,1.73-90.23,5.81-135.24,11.41c-5.26,0.65-10.05-3.08-10.7-8.33C1258.19,2236.32,1261.74,2231.64,1266.77,2230.79z"/>
			</g>
			<g>
				<path class="st1" d="M2678.48,2952.98c-7.04,0-13.92-3.51-17.93-9.91c-6.22-9.9-3.23-22.95,6.66-29.17
					c75.38-47.35,103.2-178.29,111.66-232.39c2.08-13.3,4.01-26.68,5.95-40.08c10.78-74.53,21.92-151.6,59.09-219.86
					c1.46-2.67,3.47-5,5.91-6.82c25.43-19.03,51.28-37.19,78.66-56.41c38.91-27.31,79.15-55.56,118.28-86.7
					c1.99-1.58,4.25-2.79,6.67-3.57c24.99-33.15,42.41-76.34,50.52-125.34c9.98-60.4,5.94-123.75,2.04-185.01
					c-1.97-30.2-10.09-58.3-24.15-83.51c-15.56-27.92-51.11-51.53-84.53-56.13c-35.47-5.66-112.05,1.31-151,67.63
					c-44.58,75.91-62.43,119.38-86.54,181.94c-1.57,4.07-4.35,7.55-7.97,9.98c-1.91,1.28-192.26,129.17-265.39,219.22
					c-83.34,102.71-117.95,216.48-152.67,390.5c-2.28,11.46-13.4,18.94-24.89,16.61c-11.46-2.28-18.9-13.43-16.61-24.89
					c36.04-180.67,72.42-299.35,161.3-408.89c70.76-87.12,236.01-201.44,269.13-223.95c23.71-61.31,42.43-105.8,87.14-181.94
					c50.51-86.01,148.78-95.21,193.7-88.06c46.56,6.41,93.06,37.53,115.27,77.38c17.13,30.73,27.03,64.85,29.41,101.39
					c4.05,63.67,8.25,129.47-2.52,194.64c-9.67,58.45-31.4,110.14-62.82,149.5c-2.3,2.88-5.32,5.12-8.75,6.47
					c-1.32,0.52-2.64,1.01-3.96,1.48c-39.18,31-78.91,58.89-117.37,85.89c-25.74,18.08-50.13,35.2-73.86,52.85
					c-31.85,60.75-42.2,132.36-52.22,201.66c-1.96,13.57-3.92,27.11-6.03,40.57c-11.62,74.31-44.09,207.11-130.96,261.67
					C2686.22,2951.93,2682.33,2952.98,2678.48,2952.98z"/>
			</g>
			<g>
				<path class="st5" d="M2194.46,3027.94c-274.21,103.17-593.8,79.16-842.35-62.75c36.95-89.92,38.59-193.15,6.57-284.87
					c-35.89-102.7-65.05-239.54-32.5-293.36c1.33-2.22,2.82-4.27,4.35-6.23c280.52-76.73,585.74-61.01,866.79,60
					c-0.06,1-0.16,2.06-0.21,3.06c-2.6,38.84-5.25,77.73-12.46,121.43C2273.66,2698.37,2276.9,2883.18,2194.46,3027.94"/>
			</g>
			<g>
				<path class="st5" d="M2194.46,3027.94c-274.21,103.17-593.8,79.16-842.35-62.75c36.95-89.92,38.59-193.15,6.57-284.87
					c-35.89-102.7-65.05-239.54-32.5-293.36c1.33-2.22,2.82-4.27,4.35-6.23c280.52-76.73,585.74-61.01,866.79,60
					c-0.06,1-0.16,2.06-0.21,3.06c-2.6,38.84-5.25,77.73-12.46,121.43C2273.66,2698.37,2276.9,2883.18,2194.46,3027.94"/>
			</g>
			<g>
				<path class="st7" d="M1840.31,3112.48c-26.07,0-52.17-0.97-78.23-2.91c-150.36-11.23-295.75-54.8-420.46-126
					c-9.24-5.27-13.12-16.58-9.08-26.42c34.49-83.93,36.73-182.29,6.16-269.85c-13.38-38.3-77.77-233.33-30.63-311.28
					c1.59-2.66,3.52-5.42,5.84-8.37c2.8-3.56,6.67-6.12,11.04-7.32c291.44-79.72,604.22-58.07,880.74,60.98
					c8.17,3.52,13.27,11.78,12.75,20.67l-0.21,2.95c-2.43,36.4-4.93,73.7-11.41,115.57c88.16,138.07,90.85,328.96,6.01,477.92
					c-2.44,4.29-6.31,7.59-10.93,9.33C2088.36,3090.46,1964.72,3112.48,1840.31,3112.48z M1378.42,2955.63
					c237.55,129.07,542.09,150.25,801.35,55.19c74.7-136.91,69.87-310.29-12.72-433.84c-2.99-4.47-4.17-9.9-3.29-15.21
					c6.37-38.62,9.12-73.67,11.42-107.44c-261.95-109.15-556.33-128.75-831.62-55.22c-22.07,39.47-7.77,151.6,35.08,274.21
					C1410.48,2764.51,1410.23,2866.31,1378.42,2955.63z M2194.45,3027.94h0.05H2194.45z"/>
			</g>
			<g>
				<g>
					<path class="st3" d="M2197.32,2440.74c-0.06,1-0.16,2.06-0.21,3.06c-136.2,43.6-280.84,66.08-424.25,59.9
						c-154.97-6.76-308.35-46.86-446.68-116.73c1.33-2.22,2.82-4.27,4.35-6.23C1611.05,2304,1916.27,2319.72,2197.32,2440.74z"/>
				</g>
				<g>
					<path class="st1" d="M1820.6,2525.88c-16.27,0-32.48-0.35-48.65-1.04c-157.35-6.86-314.79-48.01-455.31-118.98
						c-5.24-2.65-9.15-7.36-10.78-13.01c-1.64-5.64-0.85-11.71,2.17-16.75c1.65-2.75,3.57-5.51,5.88-8.45
						c2.8-3.56,6.67-6.12,11.04-7.32c291.46-79.72,604.24-58.07,880.74,60.98c8.18,3.52,13.28,11.79,12.75,20.67l-0.21,2.95
						c-0.47,8.77-6.31,16.34-14.68,19.01C2074.98,2505.1,1946.37,2525.88,1820.6,2525.88z M1381.18,2389.69
						c123.26,55.03,257.96,87,392.6,92.87c119.07,5.13,241.22-9.38,363.91-43.15C1897.38,2348.11,1632.38,2330.66,1381.18,2389.69z"
						/>
				</g>
			</g>
			<g>
				<g>
					<path class="st11" d="M1671.89,2352.92l22.58,51.93c4.95,11.4,16.8,18.25,29.2,16.91l56.9-6.18
						c27.06-2.94,42.42,29.97,22.71,48.66l-44.4,42.09c-8.63,8.19-11.22,20.86-6.48,31.76l24.24,55.76
						c11,25.31-17.12,49.75-40.83,35.49l-46.66-28.07c-10.98-6.61-25.05-5.08-34.34,3.73l-39.48,37.43
						c-20.06,19.02-52.82,1.19-47.56-25.89l11.59-59.67c2.27-11.65-3.01-23.47-13.21-29.61l-52.48-31.57
						c-23.29-14.02-15.42-49.45,11.63-52.39l56.9-6.18c12.41-1.35,22.48-10.58,24.85-22.77l10.79-55.56
						C1623.17,2331.45,1660.78,2327.36,1671.89,2352.92z"/>
				</g>
				<g>
					<path class="st1" d="M1595.94,2671.58c-8.17,0-16.45-2.08-24.16-6.31c-19.23-10.55-28.96-31.26-24.78-52.76l11.59-59.66
						c0.57-2.91-0.78-5.9-3.35-7.45l-52.48-31.57c-18.51-11.14-27.47-31.93-22.83-52.98c4.64-21.09,21.56-36.24,43.08-38.58
						l56.9-6.18c3.21-0.35,5.77-2.67,6.37-5.78l10.79-55.56c4.23-21.75,21.23-37.36,43.3-39.78c22.11-2.38,42.08,9.16,50.93,29.51
						l22.58,51.93c1.25,2.88,4.27,4.65,7.51,4.31l56.9-6.18c21.47-2.32,41.32,8.82,50.42,28.45c9.05,19.55,4.79,41.77-10.86,56.6
						l-44.41,42.09c-2.16,2.05-2.81,5.24-1.64,7.96l24.25,55.77c8.73,20.09,3.72,42.41-12.76,56.86
						c-16.57,14.53-39.48,16.57-58.37,5.21l-46.67-28.08c-2.85-1.71-6.49-1.31-8.89,0.96l-39.47,37.42
						C1620.29,2666.88,1608.23,2671.58,1595.94,2671.58z M1646.03,2356.99c-0.36,0-0.71,0.02-1.05,0.06
						c-2.44,0.27-5.53,1.49-6.36,5.78l-10.79,55.56c-4.17,21.44-21.6,37.42-43.35,39.77l-56.89,6.18c-4.31,0.47-5.82,3.31-6.33,5.61
						c-0.5,2.26-0.33,5.42,3.33,7.62l52.47,31.57c17.75,10.68,27.03,31.49,23.07,51.79l-11.58,59.65c-0.82,4.19,1.51,6.45,3.6,7.59
						c1.76,0.97,5.24,2.12,8.62-1.09l39.48-37.43c16.15-15.3,40.74-17.97,59.81-6.5l46.66,28.08c4.01,2.41,7.16,0.56,8.67-0.77
						c1.78-1.56,3.55-4.24,1.85-8.16l-24.24-55.76c-8.25-18.97-3.7-41.29,11.32-55.55l44.41-42.09c3.06-2.9,2.55-6.02,1.57-8.12
						c-1-2.16-3.08-4.6-7.44-4.16l-56.9,6.18c-21.72,2.37-42.2-9.5-50.89-29.52l-22.57-51.92v0
						C1650.97,2357.87,1648.31,2356.99,1646.03,2356.99z"/>
				</g>
			</g>
			<g>
				<g>
					<path class="st11" d="M2046.2,2309.38l-7.8,56.06c-1.71,12.3,4.83,24.28,16.13,29.54l51.86,24.12
						c24.65,11.47,20.61,47.54-5.98,53.33l-59.91,13.02c-11.65,2.54-20.48,12.03-22.11,23.78l-8.37,60.19
						c-3.8,27.32-40.59,33.67-53.41,9.22l-25.23-48.1c-5.94-11.32-18.76-17.29-31.3-14.57l-53.26,11.59
						c-27.06,5.88-45.75-26.29-27.15-46.7l41.04-44.99c8.01-8.79,9.67-21.62,4.15-32.14l-28.38-54.1
						c-12.6-24.02,12.61-50.24,37.27-38.77l51.85,24.13c11.3,5.26,24.73,2.58,33.11-6.62l38.21-41.91
						C2015.75,2265.84,2050.04,2281.79,2046.2,2309.38z"/>
				</g>
				<g>
					<path class="st1" d="M1981.43,2615.07c-18.26,0-34.76-9.83-43.54-26.58l-25.23-48.12c-1.51-2.89-4.86-4.42-8.08-3.71
						l-53.24,11.59c-21.58,4.69-42.59-4.61-53.59-23.69c-10.94-18.99-8.47-41.73,6.3-57.94l41.04-45c2-2.19,2.43-5.44,1.05-8.06
						l-28.38-54.09c-10-19.06-6.86-41.45,8-57.03c14.94-15.67,37.29-19.89,56.93-10.75l51.86,24.13c2.89,1.34,6.41,0.65,8.55-1.69
						l38.21-41.91c14.97-16.43,37.68-20.93,57.83-11.48c20.07,9.42,31.06,29.66,28.02,51.57l0,0l-7.8,56.05
						c-0.43,3.11,1.22,6.1,4.11,7.45l51.85,24.12c19.6,9.12,30.72,28.86,28.34,50.29c-2.39,21.46-17.59,38.29-38.73,42.9
						l-59.92,13.02c-2.96,0.64-5.23,3.07-5.64,6.03l-8.37,60.2c-3.02,21.71-18.96,38.17-40.61,41.94
						C1987.37,2614.81,1984.38,2615.07,1981.43,2615.07z M1906.1,2494.18c18.18,0,35.37,10.02,44.03,26.54l25.23,48.11
						c2.04,3.88,5.36,4.19,7.76,3.77c2.39-0.42,5.36-1.81,5.95-6.09l8.37-60.19c2.85-20.44,18.34-37.14,38.56-41.54l59.92-13.02
						c4.21-0.92,5.41-3.89,5.66-6.22c0.26-2.31-0.25-5.45-4.13-7.26l-51.86-24.12c-19.86-9.25-31.18-30-28.17-51.64l7.8-56.06
						c0.6-4.28-1.89-6.4-4.08-7.43c-2.26-1.05-5.57-1.62-8.58,1.68l-38.21,41.91c-14.7,16.12-37.88,20.76-57.68,11.55l-51.86-24.13
						c-4.2-1.97-7.09,0.16-8.45,1.58c-1.6,1.68-3.11,4.46-1.16,8.17l28.38,54.1c9.6,18.32,6.69,40.91-7.25,56.22l-41.05,45.01
						c-2.88,3.16-2.08,6.25-0.91,8.3c1.21,2.1,3.56,4.4,7.92,3.48l53.26-11.59C1899.1,2494.55,1902.62,2494.18,1906.1,2494.18z
						 M2046.2,2309.38h0.05H2046.2z"/>
				</g>
			</g>
			<g>
				<path class="st3" d="M2193.77,3030.7c-273.54,102.65-592,78.87-840.12-62.15c-0.87-0.5-1.24-1.56-0.86-2.48
					c36.31-89.54,37.69-192.08,5.86-283.25c-35.48-101.68-64.42-236.82-33.45-291.74c0.52-0.93,1.7-1.25,2.65-0.77
					c137.88,69.34,290.69,109.15,444.97,115.87c143.41,6.17,288.1-16.31,424.3-59.9c-2.58,38.6-5.22,77.25-12.38,120.62
					c-0.09,0.52,0.03,1.05,0.32,1.49c88.44,132.89,91.7,316.96,9.78,461.38C2194.61,3030.2,2194.22,3030.53,2193.77,3030.7z"/>
			</g>
			<g>
				<path class="st1" d="M2108.15,2519.93c-226.58,71.5-489,59.01-698.61-35.89c-25.94-11.75-54.8,9.71-50.5,37.76
					c10.08,65.77,43.86,127.42,62.33,190.45c15.68,53.51,20.31,110.18,13.77,165.53c-3.82,32.37,14.11,63.31,43.67,77.34
					c99.8,47.38,207.21,66.2,313.14,68.3c108.73,2.17,216.91-12.35,324.5-28.97c30.36-4.69,55.37-26.89,62.55-56.62
					c28.6-118.3,12.36-256.14-53.76-365.93l7.51-28.57C2136.61,2528.64,2122.71,2515.34,2108.15,2519.93z"/>
			</g>
			<g>
				<path class="st5" d="M1809.32,2693.91c0,2.15-1.47,3.89-3.28,3.89s-3.28-1.74-3.28-3.89s1.47-3.89,3.28-3.89
					S1809.32,2691.76,1809.32,2693.91z"/>
			</g>
			<g>
				<path class="st5" d="M1850.48,2697.8c0,2.15-1.47,3.89-3.28,3.89s-3.28-1.74-3.28-3.89c0-2.15,1.47-3.89,3.28-3.89
					S1850.48,2695.65,1850.48,2697.8z"/>
			</g>
			<g>
				<ellipse class="st5" cx="1902.58" cy="2617.26" rx="3.28" ry="3.89"/>
			</g>
			<g>
				<ellipse class="st5" cx="1960.52" cy="2752.2" rx="3.28" ry="3.89"/>
			</g>
			<g>
				<path class="st5" d="M1996.91,2944.29c0,2.15-1.47,3.89-3.28,3.89c-1.81,0-3.28-1.74-3.28-3.89c0-2.15,1.47-3.89,3.28-3.89
					C1995.44,2940.4,1996.91,2942.14,1996.91,2944.29z"/>
			</g>
			<g>
				<path class="st5" d="M1833.43,2892.06c0,2.15-1.47,3.89-3.28,3.89c-1.81,0-3.28-1.74-3.28-3.89c0-2.15,1.47-3.89,3.28-3.89
					C1831.97,2888.17,1833.43,2889.91,1833.43,2892.06z"/>
			</g>
			<g>
				<path class="st5" d="M1685.77,2940.4c0,2.15-1.47,3.89-3.28,3.89s-3.28-1.74-3.28-3.89s1.47-3.89,3.28-3.89
					S1685.77,2938.25,1685.77,2940.4z"/>
			</g>
			<g>
				<path class="st5" d="M1723.39,2940.4c0,2.15-1.47,3.89-3.28,3.89c-1.81,0-3.28-1.74-3.28-3.89s1.47-3.89,3.28-3.89
					C1721.92,2936.51,1723.39,2938.25,1723.39,2940.4z"/>
			</g>
			<g>
				<path class="st5" d="M1671.41,2867.46c0,2.15-1.47,3.89-3.28,3.89s-3.28-1.74-3.28-3.89c0-2.15,1.47-3.89,3.28-3.89
					S1671.41,2865.31,1671.41,2867.46z"/>
			</g>
			<g>
				<path class="st5" d="M2074.57,2843.76c0,2.15-1.47,3.89-3.28,3.89c-1.81,0-3.28-1.74-3.28-3.89s1.47-3.89,3.28-3.89
					C2073.1,2839.88,2074.57,2841.62,2074.57,2843.76z"/>
			</g>
			<g>
				<path class="st5" d="M2094.04,2712.6c0,2.15-1.47,3.89-3.28,3.89c-1.81,0-3.28-1.74-3.28-3.89s1.47-3.89,3.28-3.89
					C2092.57,2708.71,2094.04,2710.45,2094.04,2712.6z"/>
			</g>
			<g>
				<path class="st5" d="M1576.11,2672.39c0,2.15-1.47,3.89-3.28,3.89c-1.81,0-3.28-1.74-3.28-3.89c0-2.15,1.47-3.89,3.28-3.89
					C1574.64,2668.5,1576.11,2670.24,1576.11,2672.39z"/>
			</g>
			<g>
				<path class="st5" d="M1513.78,2783c0,2.15-1.47,3.89-3.28,3.89s-3.28-1.74-3.28-3.89s1.47-3.89,3.28-3.89
					S1513.78,2780.85,1513.78,2783z"/>
			</g>
			<g>
				<path class="st5" d="M1539.47,2756.09c0,2.15-1.47,3.89-3.28,3.89s-3.28-1.74-3.28-3.89c0-2.15,1.47-3.89,3.28-3.89
					S1539.47,2753.94,1539.47,2756.09z"/>
			</g>
			<g>
				<ellipse class="st5" cx="1439.78" cy="2560.67" rx="3.28" ry="3.89"/>
			</g>
			<g>
				<path class="st5" d="M1602.4,2814.03c0,2.15-1.47,3.89-3.28,3.89s-3.28-1.74-3.28-3.89s1.47-3.89,3.28-3.89
					S1602.4,2811.88,1602.4,2814.03z"/>
			</g>
			<g>
				<ellipse class="st5" cx="1728.76" cy="2764.7" rx="8.65" ry="8.61"/>
			</g>
			<g>
				<ellipse class="st5" cx="2062.64" cy="2608.65" rx="8.65" ry="8.61"/>
			</g>
			<g>
				<ellipse class="st5" cx="2068.01" cy="2927.9" rx="8.65" ry="8.61"/>
			</g>
			<g>
				<path class="st5" d="M1549,2651.7c-6.42-2.2-12.83-3.29-19.25-4.14c-4.7-0.57-9.4-0.84-14.1-0.99
					c-0.15-4.68-0.42-9.36-0.99-14.04c-0.85-6.39-1.95-12.77-4.15-19.16c-2.21,6.39-3.31,12.77-4.15,19.16
					c-0.57,4.68-0.85,9.35-0.99,14.03c-4.7,0.14-9.4,0.42-14.1,0.98c-6.42,0.84-12.83,1.94-19.25,4.15
					c6.42,2.21,12.83,3.31,19.25,4.15c4.7,0.57,9.4,0.84,14.1,0.98c0.14,4.68,0.42,9.35,0.99,14.03c0.84,6.39,1.95,12.78,4.17,19.16
					c2.22-6.39,3.33-12.77,4.17-19.16c0.57-4.68,0.84-9.36,0.99-14.04c4.7-0.15,9.4-0.42,14.1-0.99
					C1536.17,2654.99,1542.58,2653.9,1549,2651.7z"/>
			</g>
			<g>
				<path class="st5" d="M2032.13,2848.24c-6.42-2.2-12.83-3.29-19.25-4.14c-4.7-0.57-9.4-0.84-14.1-0.99
					c-0.15-4.68-0.42-9.36-0.99-14.04c-0.85-6.39-1.95-12.77-4.15-19.16c-2.21,6.39-3.31,12.77-4.15,19.16
					c-0.57,4.68-0.85,9.35-0.99,14.03c-4.7,0.14-9.4,0.42-14.1,0.98c-6.42,0.84-12.83,1.94-19.25,4.15
					c6.42,2.21,12.83,3.31,19.25,4.15c4.7,0.57,9.4,0.84,14.1,0.98c0.14,4.68,0.42,9.35,0.99,14.03c0.84,6.39,1.95,12.78,4.17,19.16
					c2.22-6.39,3.33-12.77,4.17-19.16c0.57-4.68,0.84-9.36,0.99-14.04c4.7-0.15,9.4-0.42,14.1-0.99
					C2019.29,2851.54,2025.71,2850.44,2032.13,2848.24z"/>
			</g>
			<g>
				<path class="st1" d="M1840.31,3114.97c-26.07,0-52.17-0.97-78.22-2.91c-150.35-11.23-295.73-54.79-420.44-126
					c-9.24-5.27-13.12-16.58-9.08-26.42c34.47-83.89,36.7-182.25,6.11-269.85c-13.37-38.31-77.68-233.36-30.63-311.27
					c5.72-9.47,17.77-12.92,27.65-7.95c135.2,68.3,286.68,107.89,438.06,114.48c136.12,5.86,276.47-13.95,416.93-58.91
					c6.67-2.13,13.96-0.83,19.49,3.49c5.52,4.32,8.54,11.09,8.08,18.08c-2.42,36.14-4.91,73.43-11.44,115.3
					c88.16,138.08,90.88,328.97,6.05,477.91c-2.44,4.29-6.31,7.59-10.93,9.33C2088.36,3092.96,1964.71,3114.97,1840.31,3114.97z
					 M1378.44,2958.12c237.52,129.05,542.07,150.24,801.35,55.19c74.69-136.89,69.84-310.27-12.77-433.84
					c-2.99-4.47-4.17-9.92-3.29-15.22c5.24-31.51,8.03-60.66,10.14-88.67c-135.31,40.01-270.4,57.41-401.96,51.74
					c-149.68-6.52-299.46-44.08-434.67-108.83c-11.96,49.09,3.61,149.13,41.38,257.35
					C1410.46,2767.03,1410.23,2868.84,1378.44,2958.12z M2194.47,3030.43h0.05H2194.47z"/>
			</g>
			<g>
				<path class="st5" d="M2604.81,1502.01c0,4.86-0.05,9.71-0.15,14.51c-8.16,408.62-359.78,737.5-792.46,737.5
					c-260.15,0-491.05-118.9-635.58-302.6c-26.87-34.2-50.84-70.72-71.36-109.08c-54.82-102.17-85.68-217.85-85.68-340.33
					c0-415.32,354.9-752.01,792.62-752.01c39.61,0,78.52,2.74,116.53,8.07C2311.25,811.53,2604.81,1124.26,2604.81,1502.01"/>
			</g>
			<g>
				<path class="st1" d="M1812.19,2275.18c-130.46,0-255.08-28.44-370.4-84.54c-110.11-53.56-207.55-131.76-281.81-226.13
					c-27.82-35.4-52.51-73.14-73.39-112.19c-58.51-109.04-88.18-226.91-88.18-350.31c0-426.33,365.06-773.17,813.77-773.17
					c40.1,0,80.3,2.79,119.47,8.28c191.06,26.7,366.56,117.98,494.14,257.01c129.08,140.66,200.16,321.03,200.16,507.88
					c0,5-0.05,10-0.16,14.94c-4.07,203.58-90.64,394.31-243.77,537.03C2229.01,2196.62,2026.63,2275.18,1812.19,2275.18z
					 M1812.19,771.16c-425.39,0-771.46,327.86-771.46,730.85c0,116.34,27.98,227.48,83.16,330.33
					c19.73,36.9,43.06,72.56,69.36,106.01c147.25,187.17,372.85,294.52,618.94,294.52c417.4,0,763.41-321.54,771.31-716.77
					c0.09-4.66,0.15-9.38,0.15-14.09c0-359.76-282.82-670.57-657.86-722.98C1888.55,773.81,1850.33,771.16,1812.19,771.16z"/>
			</g>
			<g>
				<path class="st1" d="M2604.81,1501.31c0,4.82-0.05,9.64-0.15,14.4c-18.42,76.2-52.57,148.37-102.18,209.54
					c-103.18,127.16-290.91,226.14-446.97,276.89c-349.32,113.7-707,35.72-868.06-54.83c-16.47-9.32-30.89-18.7-43.04-28.02
					c-11.15-26.19-20.41-53-27.78-80.23c-50.56-185.66-56.5-395.81,29.26-570.1c86.56-175.87,234.18-353.29,408.34-444.42
					c107.07-56.04,235-69.53,379.62-61.52C2316.61,784.23,2604.81,1126.43,2604.81,1501.31"/>
			</g>
			<g>
				<path class="st1" d="M1708.15,2170.33c-159.28,0-323.06-34.93-477.14-103.18c-10.68-4.73-15.51-17.23-10.78-27.91
					c4.74-10.68,17.23-15.5,27.91-10.78c219.19,97.1,458.42,124.33,673.6,76.66c459.11-101.68,622.07-391.94,639.14-424.7
					c5.47-10.5,16.01-13.21,24.05-11.25l-10.11,41.09l5.08-20.54l18.64,10.01c-18.13,34.8-189.81,340.88-667.64,446.71
					C1858.7,2162.42,1783.92,2170.33,1708.15,2170.33z"/>
			</g>
			<g>
				<g>
					<path class="st5" d="M1057.76,2040.62c-66.56-106.38-53.03-234.46,30.24-286.08c83.26-51.62,204.72-7.22,271.28,99.16
						c66.56,106.38,53.03,234.46-30.24,286.08C1245.77,2191.4,1124.32,2147,1057.76,2040.62"/>
				</g>
				<g class="st0">
					<path class="st1" d="M1329.05,2139.81c-83.29,51.61-204.75,7.18-271.29-99.16c-53.55-85.54-55.24-185.18-10.55-247.72
						c2.97,40.74,16.65,83.65,41.62,123.49c66.54,106.39,188,150.77,271.29,99.16c16.28-10.08,29.9-23.11,40.77-38.37
						C1405.93,2045.29,1381.12,2107.51,1329.05,2139.81z"/>
				</g>
				<g>
					<path class="st1" d="M1251.73,2182.28c-77.15,0-160.25-47.88-211.91-130.43c0,0,0,0,0,0c-40.35-64.47-54.8-138.8-39.66-203.93
						c11.17-48.08,38.41-87.62,76.69-111.35c93.02-57.65,227.75-10.13,300.36,105.92c40.35,64.47,54.8,138.8,39.67,203.92
						c-11.17,48.08-38.41,87.63-76.69,111.36C1313.35,2174.4,1283.03,2182.28,1251.73,2182.28z M1075.69,2029.4
						c60.3,96.36,168.94,137.81,242.2,92.4c29.06-18.01,49.03-47.4,57.77-84.97c12.61-54.24,0.1-116.9-34.32-171.9
						c-60.29-96.37-168.94-137.81-242.2-92.4c-29.06,18.01-49.03,47.39-57.77,84.97C1028.77,1911.74,1041.28,1974.4,1075.69,2029.4
						L1075.69,2029.4z"/>
				</g>
				<g>
					<path class="st1" d="M1220.8,2165.48c-64.76,0-137.35-43.9-183.78-118.11c-36.63-58.53-50.76-126.74-37.81-182.45
						c8.74-37.56,28.75-66.97,57.9-85.03c74.39-46.13,186.45-1.27,249.8,99.97c36.62,58.53,50.75,126.73,37.8,182.45
						c-8.73,37.56-28.75,66.97-57.9,85.03C1266.95,2159.65,1244.39,2165.48,1220.8,2165.48z M1124.34,1803.59
						c-16.21,0-31.51,3.94-44.93,12.26c-19.37,12.01-32.85,32.29-38.97,58.65c-10.46,44.99,1.67,101.23,32.46,150.43
						c51.03,81.54,136.99,120.32,191.63,86.44c19.37-12.01,32.85-32.28,38.97-58.65c10.46-44.99-1.67-101.23-32.46-150.42
						C1232.54,1840.78,1174.16,1803.59,1124.34,1803.59z"/>
				</g>
			</g>
			<g class="st12">
				<path class="st5" d="M1180.31,1529.65c0-65.58,39.36-118.74,87.91-118.74c48.55,0,87.9,53.16,87.9,118.74
					c0,65.58-39.36,118.74-87.9,118.74C1219.67,1648.39,1180.31,1595.22,1180.31,1529.65"/>
			</g>
			<g class="st12">
				<path class="st5" d="M1432.86,1680.78c32.9-28.42,77.94-30.41,100.59-4.43c22.65,25.97,14.34,70.08-18.57,98.5
					c-32.9,28.42-77.93,30.4-100.59,4.43C1391.65,1753.31,1399.96,1709.21,1432.86,1680.78"/>
			</g>
			<g class="st12">
				<path class="st5" d="M2238.67,1084.42c41.64,13.49,58.14-51.39,19.94-78.29c-129.29-91.01-276.67-139.57-416.47-132.89
					c-143.14,6.84-276.09,71.48-377.58,180.22c-27.64,29.61,7.5,88.73,42.59,71.47C1724.83,1017.92,1984.17,1001.97,2238.67,1084.42
					"/>
			</g>
			<g>
				<path class="st13" d="M1203.16,2548.08c6.26,7.18,9.7,15.94,10.71,25.17C1209.15,2565.5,1205.55,2557.11,1203.16,2548.08z"/>
			</g>
			<g>
				<g>
					<g>
						<path class="st11" d="M2358.71,1641.32l-26.24,50.27c-5.75,11.03-3.18,24.6,6.35,33.47l43.77,40.66
							c20.8,19.33,4.89,52.01-23.53,48.32l-64.02-8.33c-12.46-1.62-24.38,4.31-29.88,14.85l-28.18,53.98
							c-12.79,24.5-51.56,17.83-56.3-9.69l-9.31-54.13c-2.19-12.74-13.01-22.79-26.41-24.54l-56.93-7.4
							c-28.92-3.76-36.96-40.6-11.68-53.47l55.74-28.37c10.88-5.55,16.77-17.09,14.73-28.94l-10.48-60.88
							c-4.65-27.03,29.13-43.12,49.94-23.78l43.75,40.66c9.54,8.86,23.81,10.95,35.2,5.15l51.91-26.43
							C2342.7,1589.69,2371.63,1616.57,2358.71,1641.32z"/>
					</g>
					<g>
						<path class="st1" d="M2211.44,1900.28c-2.23,0-4.49-0.18-6.78-0.53c-17.94-2.81-31.45-15.81-34.42-33.11l-9.31-54.14
							c-1.41-8.17-8.54-14.68-17.34-15.83l-56.92-7.4c-18.2-2.37-32.47-15.75-35.49-33.29c-2.87-16.62,5.13-32.38,20.37-40.14
							l55.75-28.37c6.77-3.45,10.34-10.4,9.09-17.69l-10.47-60.88c-2.79-16.21,4.83-31.79,19.42-39.69
							c15.86-8.6,34.79-6.11,48.18,6.34l43.75,40.65c6.24,5.81,15.77,7.24,23.17,3.47l51.91-26.43c16.1-8.21,35.61-4.96,48.52,8.08
							c12.21,12.33,15.05,29.96,7.26,44.9l-26.24,50.27c-3.55,6.81-1.88,15.17,4.17,20.8l43.76,40.65
							c12.79,11.88,16.42,29.44,9.25,44.72c-7.33,15.61-23.51,24.25-41.36,21.88l-64.02-8.33c-8.01-1.01-15.68,2.68-19.11,9.25
							l-28.18,53.98C2239.54,1892.54,2226.27,1900.27,2211.44,1900.28z M2165.13,1585.43c-3.68,0-7.08,1-9.71,2.43
							c-2.5,1.35-10.48,6.6-8.62,17.45l10.47,60.88c2.82,16.39-5.36,32.53-20.36,40.18l-55.75,28.37
							c-10.35,5.27-9.58,14.83-9.09,17.64c1.11,6.42,6.31,14.43,17.33,15.87l56.93,7.4c17.93,2.34,32.53,16.01,35.5,33.26
							l9.31,54.14c1.71,9.94,9.8,14.65,16.81,15.75c6.65,1.01,15.28-0.83,19.64-9.17l28.18-53.98
							c7.52-14.41,23.84-22.62,40.64-20.46l64.03,8.34c10.32,1.29,16.77-4.23,19.42-9.88c3.28-6.97,1.6-14.51-4.48-20.16
							l-43.76-40.65c-13.13-12.22-16.57-30.76-8.54-46.14l26.24-50.27c5.26-10.08-1.37-17.98-3.53-20.17
							c-4.93-4.98-14.13-9.02-23.82-4.1l-51.9,26.43c-15.41,7.84-34.38,5.11-47.23-6.83l-43.75-40.65
							C2174.62,1586.96,2169.67,1585.43,2165.13,1585.43z"/>
					</g>
				</g>
				<g>
					<path class="st5" d="M2873.89,1797c-30.49,7.28-57.47,48.34-67.39,67.97c-21.95,43.38-47.19,87.18-84.4,114.83
						c-13.2,9.82-27.94,17.57-44.54,22.53c-46.39,13.83-63.04-5.22-106.41-26.65c-25.02-12.4-48.14-26.81-70.25-42.48
						c-0.05,0-0.05-0.05-0.05-0.05c-27.62-31.72-59.38-56.73-90.34-81.8c-38.65-31.29-77.35-64.33-101.85-107.45
						c-24.49-43.12-32.39-98.84-7.63-141.8c10.82-18.79,26.3-33.09,44.54-43.59c38.23-22.06,88.75-27.65,134.14-23.96
						C2644.27,1547.8,2798.18,1651.24,2873.89,1797z"/>
				</g>
				<g class="st6">
					<path class="st7" d="M2722.1,1979.8c-13.2,9.82-27.94,17.57-44.54,22.53c-46.39,13.83-63.04-5.22-106.41-26.65
						c-25.02-12.4-48.14-26.81-70.25-42.48c-0.05,0-0.05-0.05-0.05-0.05c-27.62-31.72-59.38-56.73-90.34-81.8
						c-38.65-31.29-77.35-64.33-101.85-107.45c-24.49-43.12-32.39-98.84-7.63-141.8c10.82-18.79,26.3-33.09,44.54-43.59
						c5.25,46.18,29.85,90.82,58.9,126.23c44.59,54.41,103.92,94.46,160.91,135.89c56.99,41.43,113.72,86.34,149.83,146.71
						C2717.64,1971.41,2719.92,1975.58,2722.1,1979.8z"/>
				</g>
				<g>
					<path class="st1" d="M2519.59,1919.85l85.35,105.91c3.02,3.74,2.43,9.21-1.31,12.23c-3.32,2.67-8,2.51-11.12-0.17
						l-103.29-88.51c-8.91-7.64-9.95-21.05-2.31-29.96c7.64-8.91,21.05-9.95,29.96-2.31
						C2517.85,1917.88,2518.81,1918.88,2519.59,1919.85z"/>
				</g>
				<g>
					<path class="st1" d="M2525.86,1954.25c-10.95,0-20.22-8.45-21.07-19.55c-0.88-11.65,7.84-21.82,19.49-22.71
						c120.75-9.19,229.64-86.68,277.42-197.4c4.64-10.73,17.08-15.66,27.81-11.04c10.73,4.63,15.67,17.08,11.04,27.81
						c-53.94,124.99-176.83,212.46-313.07,222.83C2526.95,1954.23,2526.41,1954.25,2525.86,1954.25z"/>
				</g>
				<g>
					<path class="st1" d="M2500.9,1954.34c-6.38,0-12.11-2.84-16.01-7.32l0,0c-24.62-28.28-53.63-51.72-81.69-74.39l-6.01-4.86
						c-41.46-33.56-80.83-67.5-106.93-113.44c-31.05-54.65-33.96-117.04-7.57-162.82c32.38-56.34,106.68-85.56,198.71-78.07
						c170.57,13.73,332,121.2,411.25,273.78c5.39,10.37,1.35,23.14-9.02,28.53c-10.37,5.4-23.14,1.35-28.53-9.02
						c-72.69-139.95-220.71-238.52-377.11-251.1c-28.21-2.27-123.03-4.93-158.63,57c-18.65,32.36-15.63,79.77,7.69,120.81
						c22.45,39.52,58.58,70.54,96.76,101.46l5.98,4.83c29.38,23.74,59.75,48.28,86.73,79.2c3.43,3.76,5.53,8.76,5.53,14.26
						C2522.06,1944.87,2512.58,1954.34,2500.9,1954.34z"/>
				</g>
			</g>
			<g>
				<path class="st11" d="M1916.6,2638.9l12.33,24.87l27.57,3.99c4.7,0.68,6.58,6.43,3.18,9.74l-19.95,19.36l4.71,27.34
					c0.8,4.66-4.11,8.22-8.32,6.02l-24.66-12.91l-24.66,12.91c-4.21,2.2-9.12-1.35-8.32-6.02l4.71-27.34l-19.95-19.36
					c-3.4-3.3-1.53-9.06,3.18-9.74l27.57-3.99l12.33-24.87C1908.42,2634.66,1914.5,2634.66,1916.6,2638.9z"/>
			</g>
			<g>
				<path class="st11" d="M1537.41,2761.03l49.07,26.44l49.69-25.25c8.48-4.31,18.24,2.93,16.51,12.25l-10.1,54.62l39.48,39.24
					c6.73,6.69,2.83,18.17-6.6,19.42l-55.31,7.32l-25.3,49.5c-4.32,8.44-16.49,8.3-20.59-0.25l-24.09-50.09l-55.11-8.65
					c-9.4-1.48-13.02-13.04-6.13-19.57l40.42-38.28l-8.77-54.85C1519.1,2763.52,1529.04,2756.52,1537.41,2761.03z"/>
			</g>
			<g>
				<path class="st11" d="M1933.52,1836.21c-0.33-1.37-0.96-2.57-1.9-3.59c-0.75-1.15-1.74-2.06-2.97-2.72
					c-0.84-0.35-1.69-0.71-2.53-1.06c-1.88-0.5-3.76-0.5-5.64,0c-0.84,0.35-1.69,0.71-2.53,1.06c-1.59,0.94-2.86,2.2-3.8,3.79
					c-0.38,0.75-0.76,1.51-1.14,2.26c-0.78,1.21-1.19,2.52-1.26,3.92c-0.32,1.4-0.25,2.81,0.19,4.21c0.33,1.37,0.96,2.57,1.9,3.59
					c0.75,1.15,1.74,2.06,2.97,2.72c0.84,0.35,1.69,0.71,2.53,1.06c1.88,0.5,3.76,0.5,5.64,0c0.84-0.35,1.69-0.71,2.53-1.06
					c1.59-0.94,2.86-2.2,3.8-3.79c0.38-0.75,0.76-1.51,1.14-2.26c0.78-1.21,1.19-2.52,1.26-3.92
					C1934.03,1839.01,1933.97,1837.61,1933.52,1836.21z"/>
			</g>
			<g>
				<path class="st11" d="M1992.49,1706.27c-13.65,0-13.67,21.11,0,21.11C2006.13,1727.38,2006.16,1706.27,1992.49,1706.27z"/>
			</g>
			<g>
				<path class="st11" d="M2010.67,1785.43c-13.65,0-13.67,21.11,0,21.11C2024.31,1806.54,2024.33,1785.43,2010.67,1785.43z"/>
			</g>
			<g>
				<path class="st11" d="M1918.94,1778.12c-0.21-0.65-0.58-1.22-1.1-1.7c-0.48-0.51-1.05-0.88-1.71-1.09
					c-0.63-0.33-1.31-0.48-2.04-0.45l-1.41,0.19c-0.9,0.25-1.68,0.7-2.34,1.36c-0.28,0.36-0.55,0.71-0.83,1.07
					c-0.48,0.82-0.72,1.71-0.72,2.66v1.13c-0.03,0.73,0.12,1.4,0.46,2.03c0.21,0.65,0.58,1.22,1.1,1.7
					c0.48,0.51,1.05,0.88,1.71,1.09c0.63,0.33,1.31,0.48,2.04,0.45c0.47-0.06,0.94-0.13,1.41-0.19c0.9-0.25,1.68-0.7,2.34-1.36
					c0.28-0.36,0.55-0.71,0.83-1.07c0.48-0.82,0.72-1.71,0.72-2.66v-1.13C1919.43,1779.43,1919.27,1778.75,1918.94,1778.12z"/>
			</g>
			<g>
				<path class="st11" d="M1787.42,1883.92c-0.25-0.89-0.71-1.67-1.36-2.33c-0.36-0.27-0.72-0.55-1.07-0.83
					c-0.83-0.48-1.72-0.72-2.68-0.72h-2.27c-0.73-0.03-1.41,0.12-2.04,0.45c-0.66,0.21-1.23,0.58-1.71,1.09
					c-0.52,0.48-0.88,1.04-1.1,1.7c-0.33,0.63-0.48,1.31-0.46,2.03l0.19,1.4c0.25,0.89,0.71,1.67,1.36,2.33
					c0.36,0.28,0.72,0.55,1.07,0.83c0.83,0.48,1.72,0.72,2.68,0.72h2.27c0.73,0.03,1.41-0.12,2.04-0.45
					c0.66-0.21,1.23-0.58,1.71-1.09c0.52-0.48,0.88-1.04,1.1-1.7c0.33-0.63,0.48-1.31,0.46-2.03
					C1787.55,1884.85,1787.49,1884.39,1787.42,1883.92z"/>
			</g>
			<g>
				<path class="st11" d="M2364.56,1502.82c-0.25-0.89-0.71-1.67-1.36-2.33c-0.36-0.28-0.72-0.55-1.07-0.83
					c-0.83-0.48-1.72-0.72-2.68-0.72h-2.27c-0.73-0.03-1.41,0.12-2.04,0.45c-0.66,0.21-1.23,0.58-1.71,1.09
					c-0.52,0.48-0.88,1.04-1.1,1.7c-0.33,0.63-0.48,1.31-0.46,2.03c0.06,0.47,0.13,0.93,0.19,1.4c0.25,0.89,0.71,1.67,1.36,2.33
					c0.36,0.28,0.72,0.55,1.07,0.83c0.83,0.48,1.72,0.72,2.68,0.72h2.27c0.73,0.03,1.41-0.12,2.04-0.45
					c0.66-0.21,1.23-0.58,1.71-1.09c0.52-0.48,0.88-1.04,1.1-1.7c0.33-0.63,0.48-1.31,0.46-2.03
					C2364.69,1503.76,2364.62,1503.29,2364.56,1502.82z"/>
			</g>
			<g>
				<path class="st11" d="M2419.66,1458.24c-6.82,0-6.83,10.55,0,10.55C2426.48,1468.79,2426.49,1458.24,2419.66,1458.24z"/>
			</g>
			<g>
				<path class="st11" d="M2348.65,1440.63c-0.25-0.89-0.71-1.67-1.36-2.33c-0.36-0.28-0.72-0.55-1.07-0.83
					c-0.83-0.48-1.72-0.72-2.68-0.72h-1.14c-0.73-0.03-1.41,0.12-2.04,0.45c-0.66,0.21-1.23,0.58-1.71,1.09
					c-0.52,0.48-0.88,1.04-1.1,1.7c-0.33,0.63-0.48,1.31-0.46,2.03l0.19,1.4c0.25,0.89,0.71,1.67,1.36,2.33
					c0.36,0.28,0.72,0.55,1.07,0.83c0.83,0.48,1.72,0.72,2.68,0.72h1.14c0.73,0.03,1.41-0.12,2.04-0.45
					c0.66-0.21,1.23-0.58,1.71-1.09c0.52-0.48,0.88-1.04,1.1-1.7c0.33-0.63,0.48-1.31,0.46-2.03
					C2348.78,1441.56,2348.72,1441.1,2348.65,1440.63z"/>
			</g>
			<g>
				<path class="st11" d="M2466.24,1455.98c-6.82,0-6.83,10.55,0,10.55C2473.06,1466.53,2473.07,1455.98,2466.24,1455.98z"/>
			</g>
			<g>
				<path class="st11" d="M2317.41,1535.14c-6.82,0-6.83,10.55,0,10.55C2324.23,1545.69,2324.25,1535.14,2317.41,1535.14z"/>
			</g>
			<g>
				<path class="st11" d="M2137.07,1886.68c-0.21-0.65-0.58-1.22-1.1-1.7c-0.48-0.51-1.05-0.88-1.71-1.09
					c-0.63-0.33-1.31-0.48-2.04-0.45c-0.47,0.06-0.94,0.13-1.41,0.19c-0.9,0.25-1.68,0.7-2.34,1.36c-0.28,0.36-0.55,0.71-0.83,1.07
					c-0.48,0.82-0.72,1.71-0.72,2.66v2.26c-0.03,0.73,0.12,1.4,0.46,2.03c0.21,0.65,0.58,1.22,1.1,1.7
					c0.48,0.51,1.05,0.88,1.71,1.09c0.63,0.33,1.31,0.48,2.04,0.45c0.47-0.06,0.94-0.13,1.41-0.19c0.9-0.25,1.68-0.7,2.34-1.36
					c0.28-0.36,0.55-0.71,0.83-1.07c0.48-0.82,0.72-1.71,0.72-2.66v-2.26C2137.56,1887.99,2137.41,1887.31,2137.07,1886.68z"/>
			</g>
			<g>
				<path class="st11" d="M1548.84,1930.28c-0.25-0.89-0.71-1.67-1.36-2.33c-0.36-0.28-0.72-0.55-1.07-0.83
					c-0.83-0.48-1.72-0.72-2.68-0.72h-4.54c-0.73-0.03-1.41,0.12-2.04,0.45c-0.66,0.21-1.23,0.58-1.71,1.09
					c-0.52,0.48-0.88,1.04-1.1,1.7c-0.33,0.63-0.48,1.31-0.46,2.03c0.06,0.47,0.13,0.94,0.19,1.4c0.25,0.89,0.71,1.67,1.36,2.33
					c0.36,0.28,0.72,0.55,1.07,0.83c0.83,0.48,1.72,0.72,2.68,0.72h4.54c0.73,0.03,1.41-0.12,2.04-0.45
					c0.66-0.21,1.23-0.58,1.71-1.09c0.52-0.48,0.88-1.04,1.1-1.7c0.33-0.63,0.48-1.31,0.46-2.03L1548.84,1930.28z"/>
			</g>
			<g>
				<path class="st11" d="M1864.11,1989.74c-6.82,0-6.83,10.55,0,10.55C1870.93,2000.29,1870.94,1989.74,1864.11,1989.74z"/>
			</g>
			<g>
				<path class="st11" d="M1891.38,1557.75c-6.82,0-6.83,10.55,0,10.55C1898.2,1568.31,1898.21,1557.75,1891.38,1557.75z"/>
			</g>
			<g>
				<path class="st11" d="M2568.49,1492.16c-6.82,0-6.83,10.55,0,10.55C2575.31,1502.72,2575.32,1492.16,2568.49,1492.16z"/>
			</g>
			<g>
				<path class="st11" d="M2532.13,1336.11c-6.82,0-6.83,10.55,0,10.55C2538.96,1346.66,2538.97,1336.11,2532.13,1336.11z"/>
			</g>
		</g>
	</g>
</g>
</svg>
