<svg width="58" height="58" viewBox="0 0 58 58" fill="none" xmlns="http://www.w3.org/2000/svg">
<path d="M41 1H17C8.16344 1 1 8.16344 1 17V41C1 49.8366 8.16344 57 17 57H41C49.8366 57 57 49.8366 57 41V17C57 8.16344 49.8366 1 41 1Z" fill="#FFD0EC"/>
<path d="M41 1H17C8.16344 1 1 8.16344 1 17V41C1 49.8366 8.16344 57 17 57H41C49.8366 57 57 49.8366 57 41V17C57 8.16344 49.8366 1 41 1Z" stroke="#4E4E4E" stroke-width="2"/>
<g clip-path="url(#clip0_0_1)">
<path d="M41.9319 40.5832C42.7219 39.6636 43.4151 38.6613 44 37.5929L40.4999 35.8089C39.9968 36.6761 39.3794 37.468 38.6651 38.1625C37.6891 39.0899 36.651 39.6304 35.5944 39.7685C33.5537 40.0355 32.1279 39.3897 30.0483 38.0235C27.863 36.5883 25.3867 34.9614 21.8724 35.4211C19.7431 35.7008 17.7858 36.8436 16.0664 38.8174C15.2769 39.7371 14.5843 40.7394 14 41.8077L17.4992 43.5917C18.0019 42.7248 18.618 41.9323 19.3305 41.2364C20.2958 40.3216 21.3285 39.783 22.4021 39.6458C22.6963 39.6068 22.9926 39.5867 23.2893 39.5859C24.8988 39.5859 26.1915 40.2217 27.9491 41.3762C29.9897 42.7179 32.5325 44.3874 36.1267 43.9196C38.2986 43.6326 40.2523 42.5108 41.9319 40.5832V40.5832ZM41.9319 29.9119C42.7219 28.9922 43.4151 27.9899 44 26.9216L40.4999 25.1376C39.9967 26.0049 39.3793 26.7972 38.6651 27.492C37.6891 28.4195 36.651 28.9599 35.5944 29.098C33.5537 29.3642 32.1279 28.7192 30.0483 27.3531C27.863 25.9179 25.3867 24.291 21.8724 24.7506C19.7431 25.0304 17.7858 26.1722 16.0664 28.147C15.2768 29.0662 14.5841 30.0682 14 31.1364L17.4992 32.9204C18.0021 32.0533 18.6182 31.2606 19.3305 30.5641C20.2994 29.6503 21.3285 29.1153 22.4021 28.9745C22.6963 28.9354 22.9926 28.9154 23.2893 28.9145C24.8988 28.9145 26.1915 29.5504 27.9491 30.7049C29.9897 32.0465 32.5325 33.7161 36.1267 33.2483C38.2986 32.9612 40.2523 31.8394 41.9319 29.9119V29.9119ZM41.9319 19.2406C42.7219 18.3209 43.4151 17.3186 44 16.2503L40.4999 14.4663C39.9967 15.3336 39.3793 16.1258 38.6651 16.8207C37.6891 17.7481 36.651 18.2886 35.5944 18.4267C33.5537 18.6928 32.1279 18.0479 30.0483 16.6817C27.8657 15.2465 25.3894 13.6197 21.8751 14.0793C19.7422 14.3636 17.7885 15.5009 16.069 17.4756C15.2785 18.3947 14.585 19.3968 14 20.465L17.4992 22.249C18.0021 21.382 18.6182 20.5892 19.3305 19.8928C20.2994 18.979 21.3285 18.4439 22.4021 18.3031C22.6963 18.2641 22.9926 18.2441 23.2893 18.2432C24.8988 18.2432 26.1915 18.879 27.9491 20.0336C29.9897 21.3752 32.5307 23.0438 36.1267 22.5769C38.2986 22.2899 40.2523 21.1681 41.9319 19.2406V19.2406Z" fill="black"/>
</g>
<defs>
<clipPath id="clip0_0_1">
<rect width="30" height="30" fill="white" transform="translate(14 14)"/>
</clipPath>
</defs>
</svg>
