<svg width="204" height="204" viewBox="0 0 204 204" fill="none" xmlns="http://www.w3.org/2000/svg">
<path d="M187.639 69.9021C193.092 67.8586 199.226 70.6143 200.696 76.2484C206.238 97.4863 204.802 120.051 196.436 140.546C186.737 164.31 168.435 183.543 145.182 194.409C121.928 205.275 95.4333 206.975 70.9821 199.169C46.5309 191.364 25.9211 174.628 13.2642 152.299C0.607315 129.97 -3.16619 103.69 2.69649 78.7016C8.55917 53.7134 23.627 31.854 44.8941 17.4842C66.1612 3.1144 92.0641 -2.70939 117.435 1.17465C139.317 4.52445 159.415 14.8827 174.791 30.5466C178.869 34.702 178.083 41.3805 173.529 45.009C168.975 48.6374 162.385 47.8272 158.195 43.7832C146.212 32.2155 130.877 24.5642 114.244 22.0179C94.1181 18.9368 73.5701 23.5566 56.6994 34.9558C39.8288 46.355 27.8758 63.6955 23.2251 83.518C18.5744 103.34 21.5679 124.188 31.6082 141.901C41.6486 159.614 57.9979 172.89 77.3943 179.082C96.7908 185.274 117.809 183.925 136.255 175.305C154.701 166.686 169.219 151.429 176.914 132.578C183.273 116.999 184.584 99.9117 180.815 83.688C179.497 78.0164 182.187 71.9457 187.639 69.9021Z" fill="url(#paint0_linear_0_1)"/>
<path d="M77.9375 74.4688H74.3864C74.339 74.1042 74.242 73.7751 74.0952 73.4815C73.9484 73.188 73.7543 72.937 73.5128 72.7287C73.2713 72.5204 72.9848 72.3617 72.6534 72.2528C72.3267 72.1392 71.9645 72.0824 71.5668 72.0824C70.8613 72.0824 70.2528 72.2552 69.7415 72.6009C69.2348 72.9465 68.8442 73.446 68.5696 74.0994C68.2997 74.7528 68.1648 75.5436 68.1648 76.4716C68.1648 77.4375 68.3021 78.2472 68.5767 78.9006C68.8561 79.5492 69.2467 80.0393 69.7486 80.3707C70.2552 80.6974 70.8542 80.8608 71.5455 80.8608C71.9337 80.8608 72.2865 80.8111 72.6037 80.7116C72.9257 80.6122 73.2074 80.4678 73.4489 80.2784C73.6951 80.0843 73.8963 79.8499 74.0526 79.5753C74.2135 79.2959 74.3248 78.9811 74.3864 78.6307L77.9375 78.652C77.8759 79.2959 77.6889 79.9304 77.3764 80.5554C77.0687 81.1804 76.6449 81.7509 76.1051 82.267C75.5653 82.7784 74.9072 83.1856 74.1307 83.4886C73.3589 83.7917 72.4735 83.9432 71.4744 83.9432C70.1581 83.9432 68.9792 83.6544 67.9375 83.0767C66.9006 82.4943 66.0814 81.6468 65.4801 80.5341C64.8788 79.4214 64.5781 78.0672 64.5781 76.4716C64.5781 74.8712 64.8835 73.5147 65.4943 72.402C66.1051 71.2893 66.9313 70.4441 67.973 69.8665C69.0147 69.2888 70.1818 69 71.4744 69C72.3551 69 73.1695 69.1231 73.9176 69.3693C74.6657 69.6108 75.3239 69.9659 75.892 70.4347C76.4602 70.8987 76.9219 71.4692 77.277 72.1463C77.6321 72.8234 77.8523 73.5975 77.9375 74.4688Z" fill="white"/>
<path d="M83.0245 83.929C82.3285 83.929 81.7106 83.813 81.1708 83.581C80.6358 83.3442 80.212 82.9891 79.8995 82.5156C79.5917 82.0374 79.4379 81.4384 79.4379 80.7188C79.4379 80.1127 79.5444 79.6013 79.7575 79.1847C79.9705 78.768 80.2641 78.4295 80.6381 78.169C81.0122 77.9086 81.4431 77.7121 81.9308 77.5795C82.4184 77.4422 82.9393 77.3499 83.4933 77.3026C84.1135 77.2457 84.613 77.1866 84.9918 77.125C85.3706 77.0587 85.6452 76.9664 85.8157 76.848C85.9909 76.7249 86.0785 76.5521 86.0785 76.3295V76.294C86.0785 75.9295 85.953 75.6477 85.7021 75.4489C85.4511 75.25 85.1126 75.1506 84.6864 75.1506C84.2272 75.1506 83.8578 75.25 83.5785 75.4489C83.2991 75.6477 83.1216 75.9223 83.0458 76.2727L79.8427 76.1591C79.9374 75.4962 80.1812 74.9044 80.5742 74.3835C80.9719 73.858 81.5165 73.446 82.2077 73.1477C82.9038 72.8447 83.7395 72.6932 84.7148 72.6932C85.4109 72.6932 86.0524 72.776 86.6396 72.9418C87.2267 73.1027 87.738 73.3395 88.1737 73.652C88.6093 73.9598 88.9454 74.3385 89.1822 74.7884C89.4237 75.2382 89.5444 75.7519 89.5444 76.3295V83.7443H86.2773V82.2244H86.1921C85.998 82.5938 85.7494 82.9063 85.4464 83.1619C85.1481 83.4176 84.7953 83.6094 84.3881 83.7372C83.9857 83.8651 83.5311 83.929 83.0245 83.929ZM84.0969 81.6562C84.471 81.6562 84.8072 81.5805 85.1055 81.429C85.4085 81.2775 85.65 81.0691 85.8299 80.804C86.0098 80.5341 86.0998 80.2216 86.0998 79.8665V78.8295C86.0004 78.8816 85.8796 78.929 85.7376 78.9716C85.6003 79.0142 85.4487 79.0545 85.283 79.0923C85.1173 79.1302 84.9469 79.1634 84.7717 79.1918C84.5965 79.2202 84.4284 79.2462 84.2674 79.2699C83.9407 79.322 83.6613 79.4025 83.4293 79.5114C83.2021 79.6203 83.0269 79.7623 82.9038 79.9375C82.7854 80.108 82.7262 80.3116 82.7262 80.5483C82.7262 80.9081 82.854 81.1828 83.1097 81.3722C83.3701 81.5616 83.6992 81.6562 84.0969 81.6562Z" fill="white"/>
<path d="M91.668 83.7443V72.8352H95.0415V74.8239H95.1552C95.354 74.1042 95.6784 73.5691 96.1282 73.2188C96.578 72.8636 97.1012 72.6861 97.6978 72.6861C97.8588 72.6861 98.0245 72.6979 98.195 72.7216C98.3654 72.7405 98.524 72.7713 98.6708 72.8139V75.8324C98.5051 75.7756 98.2873 75.7306 98.0174 75.6974C97.7523 75.6643 97.5155 75.6477 97.3072 75.6477C96.8952 75.6477 96.5236 75.7401 96.1921 75.9247C95.8654 76.1046 95.6074 76.358 95.418 76.6847C95.2333 77.0066 95.141 77.3854 95.141 77.821V83.7443H91.668Z" fill="white"/>
<path d="M104.619 83.9503C103.478 83.9503 102.493 83.7254 101.664 83.2756C100.841 82.821 100.206 82.1747 99.761 81.3366C99.3207 80.4938 99.1005 79.4924 99.1005 78.3324C99.1005 77.2055 99.323 76.2206 99.7681 75.3778C100.213 74.5303 100.841 73.8722 101.65 73.4034C102.46 72.9299 103.414 72.6932 104.512 72.6932C105.289 72.6932 105.999 72.8139 106.643 73.0554C107.287 73.2969 107.843 73.6544 108.312 74.1278C108.781 74.6013 109.145 75.1861 109.406 75.8821C109.666 76.5734 109.797 77.3665 109.797 78.2614V79.1278H100.315V77.1108H106.565C106.56 76.7415 106.473 76.4124 106.302 76.1236C106.132 75.8348 105.897 75.6098 105.599 75.4489C105.306 75.2831 104.967 75.2003 104.583 75.2003C104.195 75.2003 103.847 75.2879 103.539 75.4631C103.232 75.6335 102.988 75.8679 102.808 76.1662C102.628 76.4598 102.533 76.7936 102.524 77.1676V79.2202C102.524 79.6652 102.611 80.0559 102.787 80.392C102.962 80.7235 103.21 80.9815 103.532 81.1662C103.854 81.3509 104.238 81.4432 104.683 81.4432C104.991 81.4432 105.27 81.4006 105.521 81.3153C105.772 81.2301 105.987 81.1046 106.167 80.9389C106.347 80.7732 106.482 80.5696 106.572 80.3281L109.761 80.4205C109.628 81.1354 109.337 81.758 108.887 82.2884C108.442 82.8139 107.858 83.2235 107.133 83.517C106.409 83.8059 105.571 83.9503 104.619 83.9503Z" fill="white"/>
<path d="M116.67 83.9503C115.529 83.9503 114.544 83.7254 113.715 83.2756C112.891 82.821 112.257 82.1747 111.812 81.3366C111.371 80.4938 111.151 79.4924 111.151 78.3324C111.151 77.2055 111.374 76.2206 111.819 75.3778C112.264 74.5303 112.891 73.8722 113.701 73.4034C114.511 72.9299 115.465 72.6932 116.563 72.6932C117.34 72.6932 118.05 72.8139 118.694 73.0554C119.338 73.2969 119.894 73.6544 120.363 74.1278C120.832 74.6013 121.196 75.1861 121.457 75.8821C121.717 76.5734 121.847 77.3665 121.847 78.2614V79.1278H112.366V77.1108H118.616C118.611 76.7415 118.523 76.4124 118.353 76.1236C118.183 75.8348 117.948 75.6098 117.65 75.4489C117.356 75.2831 117.018 75.2003 116.634 75.2003C116.246 75.2003 115.898 75.2879 115.59 75.4631C115.282 75.6335 115.039 75.8679 114.859 76.1662C114.679 76.4598 114.584 76.7936 114.575 77.1676V79.2202C114.575 79.6652 114.662 80.0559 114.837 80.392C115.013 80.7235 115.261 80.9815 115.583 81.1662C115.905 81.3509 116.289 81.4432 116.734 81.4432C117.041 81.4432 117.321 81.4006 117.572 81.3153C117.823 81.2301 118.038 81.1046 118.218 80.9389C118.398 80.7732 118.533 80.5696 118.623 80.3281L121.812 80.4205C121.679 81.1354 121.388 81.758 120.938 82.2884C120.493 82.8139 119.908 83.2235 119.184 83.517C118.46 83.8059 117.621 83.9503 116.67 83.9503Z" fill="white"/>
<path d="M123.621 83.7443V72.8352H126.995V74.8239H127.108C127.307 74.1042 127.632 73.5691 128.081 73.2188C128.531 72.8636 129.054 72.6861 129.651 72.6861C129.812 72.6861 129.978 72.6979 130.148 72.7216C130.319 72.7405 130.477 72.7713 130.624 72.8139V75.8324C130.458 75.7756 130.24 75.7306 129.971 75.6974C129.705 75.6643 129.469 75.6477 129.26 75.6477C128.848 75.6477 128.477 75.7401 128.145 75.9247C127.819 76.1046 127.56 76.358 127.371 76.6847C127.186 77.0066 127.094 77.3854 127.094 77.821V83.7443H123.621Z" fill="white"/>
<path d="M138.864 76.5213V79.1989H132.131V76.5213H138.864Z" fill="white"/>
<path d="M75.418 107.901C74.613 107.901 73.8815 107.692 73.2234 107.276C72.5652 106.859 72.0397 106.234 71.6467 105.401C71.2537 104.567 71.0572 103.533 71.0572 102.297C71.0572 101.014 71.2608 99.9579 71.668 99.1293C72.0752 98.3007 72.6078 97.6875 73.266 97.2898C73.9289 96.892 74.6415 96.6932 75.4038 96.6932C75.9767 96.6932 76.4667 96.7926 76.8739 96.9915C77.2811 97.1856 77.6173 97.4366 77.8825 97.7443C78.1476 98.0521 78.3488 98.3717 78.4862 98.7031H78.5572V93.1989H82.0302V107.744H78.5927V105.976H78.4862C78.3394 106.312 78.131 106.627 77.8612 106.92C77.5913 107.214 77.2527 107.451 76.8455 107.631C76.4431 107.811 75.9672 107.901 75.418 107.901ZM76.6254 105.195C77.0468 105.195 77.4066 105.076 77.7049 104.839C78.0032 104.598 78.2328 104.259 78.3938 103.824C78.5548 103.388 78.6353 102.877 78.6353 102.29C78.6353 101.693 78.5548 101.179 78.3938 100.749C78.2376 100.318 78.0079 99.9863 77.7049 99.7543C77.4066 99.5223 77.0468 99.4062 76.6254 99.4062C76.1945 99.4062 75.8299 99.5246 75.5316 99.7614C75.2333 99.9981 75.006 100.332 74.8498 100.763C74.6983 101.194 74.6225 101.703 74.6225 102.29C74.6225 102.877 74.7006 103.388 74.8569 103.824C75.0131 104.259 75.238 104.598 75.5316 104.839C75.8299 105.076 76.1945 105.195 76.6254 105.195Z" fill="white"/>
<path d="M84.2266 107.744V96.8352H87.6001V98.8239H87.7138C87.9126 98.1042 88.237 97.5691 88.6868 97.2188C89.1366 96.8636 89.6598 96.6861 90.2564 96.6861C90.4174 96.6861 90.5831 96.6979 90.7536 96.7216C90.924 96.7405 91.0826 96.7713 91.2294 96.8139V99.8324C91.0637 99.7756 90.8459 99.7306 90.576 99.6974C90.3108 99.6643 90.0741 99.6477 89.8658 99.6477C89.4538 99.6477 89.0821 99.7401 88.7507 99.9247C88.424 100.105 88.166 100.358 87.9766 100.685C87.7919 101.007 87.6996 101.385 87.6996 101.821V107.744H84.2266Z" fill="white"/>
<path d="M92.6445 107.744V96.8352H96.1175V107.744H92.6445ZM94.3846 95.5639C93.8969 95.5639 93.4779 95.4029 93.1275 95.081C92.7771 94.7543 92.6019 94.3613 92.6019 93.902C92.6019 93.4474 92.7771 93.0592 93.1275 92.7372C93.4779 92.4105 93.8969 92.2472 94.3846 92.2472C94.877 92.2472 95.296 92.4105 95.6417 92.7372C95.9921 93.0592 96.1673 93.4474 96.1673 93.902C96.1673 94.3613 95.9921 94.7543 95.6417 95.081C95.296 95.4029 94.877 95.5639 94.3846 95.5639Z" fill="white"/>
<path d="M108.911 96.8352L105.168 107.744H101.19L97.4545 96.8352H101.112L103.122 104.349H103.236L105.253 96.8352H108.911Z" fill="white"/>
<path d="M114.99 107.95C113.849 107.95 112.864 107.725 112.036 107.276C111.212 106.821 110.577 106.175 110.132 105.337C109.692 104.494 109.472 103.492 109.472 102.332C109.472 101.205 109.694 100.221 110.139 99.3778C110.584 98.5303 111.212 97.8722 112.021 97.4034C112.831 96.9299 113.785 96.6932 114.884 96.6932C115.66 96.6932 116.37 96.8139 117.014 97.0554C117.658 97.2969 118.214 97.6544 118.683 98.1278C119.152 98.6013 119.517 99.1861 119.777 99.8821C120.037 100.573 120.168 101.366 120.168 102.261V103.128H110.686V101.111H116.936C116.931 100.741 116.844 100.412 116.673 100.124C116.503 99.8348 116.268 99.6098 115.97 99.4489C115.677 99.2831 115.338 99.2003 114.955 99.2003C114.566 99.2003 114.218 99.2879 113.911 99.4631C113.603 99.6335 113.359 99.8679 113.179 100.166C112.999 100.46 112.904 100.794 112.895 101.168V103.22C112.895 103.665 112.982 104.056 113.158 104.392C113.333 104.723 113.581 104.982 113.903 105.166C114.225 105.351 114.609 105.443 115.054 105.443C115.362 105.443 115.641 105.401 115.892 105.315C116.143 105.23 116.358 105.105 116.538 104.939C116.718 104.773 116.853 104.57 116.943 104.328L120.132 104.42C120 105.135 119.708 105.758 119.259 106.288C118.813 106.814 118.229 107.223 117.504 107.517C116.78 107.806 115.942 107.95 114.99 107.95Z" fill="white"/>
<path d="M125.414 101.523V107.744H121.941V96.8352H125.244V98.8381H125.365C125.606 98.1705 126.018 97.6473 126.6 97.2685C127.183 96.8849 127.877 96.6932 128.681 96.6932C129.449 96.6932 130.114 96.866 130.677 97.2116C131.245 97.5526 131.686 98.0308 131.998 98.6463C132.315 99.2571 132.472 99.9721 132.467 100.791V107.744H128.994V101.473C128.999 100.867 128.845 100.393 128.532 100.053C128.225 99.7116 127.796 99.5412 127.247 99.5412C126.882 99.5412 126.56 99.6217 126.281 99.7827C126.006 99.9389 125.793 100.164 125.642 100.457C125.495 100.751 125.419 101.106 125.414 101.523Z" fill="white"/>
<path d="M62 135.835V120.835H65.4375V122.703H65.544C65.6861 122.372 65.8873 122.052 66.1477 121.744C66.4129 121.437 66.7491 121.186 67.1562 120.991C67.5682 120.793 68.0606 120.693 68.6335 120.693C69.3911 120.693 70.099 120.892 70.7571 121.29C71.42 121.687 71.955 122.301 72.3622 123.129C72.7694 123.958 72.973 125.014 72.973 126.297C72.973 127.533 72.7765 128.567 72.3835 129.401C71.9953 130.234 71.4697 130.859 70.8068 131.276C70.1487 131.692 69.4171 131.901 68.6122 131.901C68.063 131.901 67.5871 131.811 67.1847 131.631C66.7822 131.451 66.4437 131.214 66.169 130.92C65.8991 130.627 65.6908 130.312 65.544 129.976H65.473V135.835H62ZM65.402 126.29C65.402 126.877 65.4801 127.388 65.6364 127.824C65.7973 128.259 66.027 128.598 66.3253 128.839C66.6283 129.076 66.9905 129.195 67.4119 129.195C67.8381 129.195 68.2003 129.076 68.4986 128.839C68.7969 128.598 69.0218 128.259 69.1733 127.824C69.3295 127.388 69.4077 126.877 69.4077 126.29C69.4077 125.703 69.3295 125.194 69.1733 124.763C69.0218 124.332 68.7969 123.998 68.4986 123.761C68.205 123.525 67.8428 123.406 67.4119 123.406C66.9858 123.406 66.6236 123.522 66.3253 123.754C66.027 123.986 65.7973 124.318 65.6364 124.749C65.4801 125.179 65.402 125.693 65.402 126.29Z" fill="white"/>
<path d="M74.793 131.744V120.835H78.1665V122.824H78.2802C78.479 122.104 78.8034 121.569 79.2532 121.219C79.703 120.864 80.2262 120.686 80.8228 120.686C80.9838 120.686 81.1495 120.698 81.32 120.722C81.4904 120.741 81.649 120.771 81.7958 120.814V123.832C81.6301 123.776 81.4123 123.731 81.1424 123.697C80.8772 123.664 80.6405 123.648 80.4322 123.648C80.0202 123.648 79.6486 123.74 79.3171 123.925C78.9904 124.105 78.7324 124.358 78.543 124.685C78.3583 125.007 78.266 125.385 78.266 125.821V131.744H74.793Z" fill="white"/>
<path d="M85.8761 131.929C85.18 131.929 84.5621 131.813 84.0224 131.581C83.4873 131.344 83.0636 130.989 82.7511 130.516C82.4433 130.037 82.2894 129.438 82.2894 128.719C82.2894 128.113 82.396 127.601 82.609 127.185C82.8221 126.768 83.1156 126.429 83.4897 126.169C83.8638 125.909 84.2946 125.712 84.7823 125.58C85.27 125.442 85.7908 125.35 86.3448 125.303C86.9651 125.246 87.4646 125.187 87.8434 125.125C88.2222 125.059 88.4968 124.966 88.6673 124.848C88.8424 124.725 88.93 124.552 88.93 124.33V124.294C88.93 123.929 88.8046 123.648 88.5536 123.449C88.3027 123.25 87.9641 123.151 87.538 123.151C87.0787 123.151 86.7094 123.25 86.43 123.449C86.1507 123.648 85.9731 123.922 85.8974 124.273L82.6942 124.159C82.7889 123.496 83.0328 122.904 83.4258 122.384C83.8235 121.858 84.368 121.446 85.0593 121.148C85.7553 120.845 86.591 120.693 87.5664 120.693C88.2624 120.693 88.904 120.776 89.4911 120.942C90.0782 121.103 90.5896 121.339 91.0252 121.652C91.4608 121.96 91.797 122.339 92.0337 122.788C92.2752 123.238 92.396 123.752 92.396 124.33V131.744H89.1289V130.224H89.0437C88.8495 130.594 88.601 130.906 88.2979 131.162C87.9996 131.418 87.6469 131.609 87.2397 131.737C86.8372 131.865 86.3827 131.929 85.8761 131.929ZM86.9485 129.656C87.3226 129.656 87.6587 129.58 87.957 129.429C88.2601 129.277 88.5015 129.069 88.6815 128.804C88.8614 128.534 88.9513 128.222 88.9513 127.866V126.83C88.8519 126.882 88.7312 126.929 88.5891 126.972C88.4518 127.014 88.3003 127.054 88.1346 127.092C87.9689 127.13 87.7984 127.163 87.6232 127.192C87.448 127.22 87.2799 127.246 87.119 127.27C86.7923 127.322 86.5129 127.402 86.2809 127.511C86.0536 127.62 85.8784 127.762 85.7553 127.938C85.637 128.108 85.5778 128.312 85.5778 128.548C85.5778 128.908 85.7056 129.183 85.9613 129.372C86.2217 129.562 86.5508 129.656 86.9485 129.656Z" fill="white"/>
<path d="M99.6119 131.95C98.4613 131.95 97.4741 131.714 96.6502 131.24C95.8311 130.767 95.2014 130.108 94.761 129.266C94.3207 128.418 94.1005 127.438 94.1005 126.325C94.1005 125.208 94.3207 124.228 94.761 123.385C95.2061 122.537 95.8382 121.877 96.6573 121.403C97.4812 120.93 98.4637 120.693 99.6048 120.693C100.613 120.693 101.492 120.875 102.24 121.24C102.993 121.605 103.58 122.121 104.001 122.788C104.427 123.451 104.652 124.23 104.676 125.125H101.43C101.364 124.566 101.174 124.128 100.862 123.811C100.554 123.494 100.152 123.335 99.6545 123.335C99.252 123.335 98.8993 123.449 98.5962 123.676C98.2932 123.899 98.0565 124.23 97.886 124.67C97.7203 125.106 97.6374 125.646 97.6374 126.29C97.6374 126.934 97.7203 127.478 97.886 127.923C98.0565 128.364 98.2932 128.697 98.5962 128.925C98.8993 129.147 99.252 129.259 99.6545 129.259C99.9764 129.259 100.261 129.19 100.507 129.053C100.758 128.915 100.964 128.714 101.125 128.449C101.286 128.179 101.387 127.852 101.43 127.469H104.676C104.643 128.368 104.418 129.154 104.001 129.827C103.589 130.499 103.009 131.022 102.261 131.396C101.518 131.766 100.635 131.95 99.6119 131.95Z" fill="white"/>
<path d="M112.611 120.835V123.392H105.729V120.835H112.611ZM107.17 118.222H110.643V128.314C110.643 128.527 110.677 128.7 110.743 128.832C110.814 128.96 110.916 129.053 111.048 129.109C111.181 129.161 111.339 129.188 111.524 129.188C111.657 129.188 111.796 129.176 111.943 129.152C112.095 129.124 112.208 129.1 112.284 129.081L112.81 131.588C112.644 131.635 112.41 131.695 112.107 131.766C111.808 131.837 111.451 131.882 111.034 131.901C110.22 131.938 109.521 131.844 108.939 131.616C108.361 131.384 107.919 131.025 107.611 130.537C107.308 130.049 107.161 129.436 107.17 128.697V118.222Z" fill="white"/>
<path d="M114.383 131.744V120.835H117.856V131.744H114.383ZM116.123 119.564C115.635 119.564 115.216 119.403 114.866 119.081C114.515 118.754 114.34 118.361 114.34 117.902C114.34 117.447 114.515 117.059 114.866 116.737C115.216 116.411 115.635 116.247 116.123 116.247C116.615 116.247 117.034 116.411 117.38 116.737C117.73 117.059 117.906 117.447 117.906 117.902C117.906 118.361 117.73 118.754 117.38 119.081C117.034 119.403 116.615 119.564 116.123 119.564Z" fill="white"/>
<path d="M125.159 131.95C124.008 131.95 123.021 131.714 122.197 131.24C121.378 130.767 120.748 130.108 120.308 129.266C119.868 128.418 119.647 127.438 119.647 126.325C119.647 125.208 119.868 124.228 120.308 123.385C120.753 122.537 121.385 121.877 122.204 121.403C123.028 120.93 124.011 120.693 125.152 120.693C126.16 120.693 127.038 120.875 127.787 121.24C128.539 121.605 129.127 122.121 129.548 122.788C129.974 123.451 130.199 124.23 130.223 125.125H126.977C126.911 124.566 126.721 124.128 126.409 123.811C126.101 123.494 125.699 123.335 125.201 123.335C124.799 123.335 124.446 123.449 124.143 123.676C123.84 123.899 123.603 124.23 123.433 124.67C123.267 125.106 123.184 125.646 123.184 126.29C123.184 126.934 123.267 127.478 123.433 127.923C123.603 128.364 123.84 128.697 124.143 128.925C124.446 129.147 124.799 129.259 125.201 129.259C125.523 129.259 125.807 129.19 126.054 129.053C126.305 128.915 126.511 128.714 126.672 128.449C126.833 128.179 126.934 127.852 126.977 127.469H130.223C130.19 128.368 129.965 129.154 129.548 129.827C129.136 130.499 128.556 131.022 127.808 131.396C127.065 131.766 126.181 131.95 125.159 131.95Z" fill="white"/>
<path d="M137.099 131.95C135.958 131.95 134.973 131.725 134.145 131.276C133.321 130.821 132.687 130.175 132.241 129.337C131.801 128.494 131.581 127.492 131.581 126.332C131.581 125.205 131.804 124.221 132.249 123.378C132.694 122.53 133.321 121.872 134.131 121.403C134.94 120.93 135.894 120.693 136.993 120.693C137.769 120.693 138.48 120.814 139.124 121.055C139.768 121.297 140.324 121.654 140.793 122.128C141.261 122.601 141.626 123.186 141.886 123.882C142.147 124.573 142.277 125.366 142.277 126.261V127.128H132.795V125.111H139.045C139.041 124.741 138.953 124.412 138.783 124.124C138.612 123.835 138.378 123.61 138.08 123.449C137.786 123.283 137.447 123.2 137.064 123.2C136.676 123.2 136.328 123.288 136.02 123.463C135.712 123.634 135.468 123.868 135.288 124.166C135.108 124.46 135.014 124.794 135.004 125.168V127.22C135.004 127.665 135.092 128.056 135.267 128.392C135.442 128.723 135.691 128.982 136.013 129.166C136.335 129.351 136.718 129.443 137.163 129.443C137.471 129.443 137.75 129.401 138.001 129.315C138.252 129.23 138.468 129.105 138.648 128.939C138.828 128.773 138.963 128.57 139.053 128.328L142.241 128.42C142.109 129.135 141.818 129.758 141.368 130.288C140.923 130.814 140.338 131.223 139.614 131.517C138.889 131.806 138.051 131.95 137.099 131.95Z" fill="white"/>
<defs>
<linearGradient id="paint0_linear_0_1" x1="-12.4348" y1="91.2145" x2="228.124" y2="92.098" gradientUnits="userSpaceOnUse">
<stop stop-color="#AA367C"/>
<stop offset="1" stop-color="#4A2FBD"/>
</linearGradient>
</defs>
</svg>
