<svg width="204" height="204" viewBox="0 0 204 204" fill="none" xmlns="http://www.w3.org/2000/svg">
<path d="M187.639 69.9021C193.092 67.8586 199.226 70.6143 200.696 76.2484C206.238 97.4863 204.802 120.051 196.436 140.546C186.737 164.31 168.435 183.543 145.182 194.409C121.928 205.275 95.4333 206.975 70.9821 199.169C46.5309 191.364 25.9211 174.628 13.2642 152.299C0.607315 129.97 -3.16619 103.69 2.69649 78.7016C8.55917 53.7134 23.627 31.854 44.8941 17.4842C66.1612 3.11439 92.0641 -2.7094 117.435 1.17464C139.317 4.52444 159.415 14.8827 174.791 30.5466C178.869 34.702 178.083 41.3805 173.529 45.009C168.975 48.6374 162.385 47.8272 158.195 43.7832C146.212 32.2155 130.877 24.5642 114.244 22.0179C94.1181 18.9368 73.5701 23.5566 56.6994 34.9558C39.8288 46.355 27.8758 63.6955 23.2251 83.518C18.5744 103.34 21.5679 124.188 31.6082 141.901C41.6486 159.614 57.9979 172.89 77.3943 179.082C96.7908 185.274 117.809 183.925 136.255 175.305C154.701 166.686 169.219 151.429 176.914 132.578C183.273 116.999 184.584 99.9117 180.815 83.688C179.497 78.0164 182.187 71.9457 187.639 69.9021Z" fill="url(#paint0_linear_0_1)"/>
<path d="M57.214 83.5455V69H67.356V71.8551H60.7296V74.8381H66.8375V77.7003H60.7296V80.6903H67.356V83.5455H57.214Z" fill="white"/>
<path d="M72.5123 72.6364L74.3091 76.2301L76.1699 72.6364H79.6713L76.6245 78.0909L79.785 83.5455H76.312L74.3091 79.9233L72.356 83.5455H68.8333L72.0009 78.0909L68.9895 72.6364H72.5123Z" fill="white"/>
<path d="M85.9586 83.7514C84.8081 83.7514 83.8208 83.5147 82.997 83.0412C82.1779 82.5677 81.5481 81.9096 81.1078 81.0668C80.6674 80.2192 80.4473 79.2391 80.4473 78.1264C80.4473 77.009 80.6674 76.0289 81.1078 75.1861C81.5529 74.3385 82.185 73.678 83.0041 73.2045C83.8279 72.7311 84.8104 72.4943 85.9515 72.4943C86.96 72.4943 87.8384 72.6766 88.5865 73.0412C89.3393 73.4058 89.9264 73.9219 90.3478 74.5895C90.774 75.2524 90.9989 76.0313 91.0225 76.9261H87.7768C87.7105 76.3674 87.5211 75.9295 87.2086 75.6122C86.9009 75.295 86.4984 75.1364 86.0012 75.1364C85.5988 75.1364 85.246 75.25 84.943 75.4773C84.64 75.6998 84.4032 76.0313 84.2328 76.4716C84.0671 76.9072 83.9842 77.447 83.9842 78.0909C83.9842 78.7348 84.0671 79.2794 84.2328 79.7244C84.4032 80.1648 84.64 80.4986 84.943 80.7259C85.246 80.9484 85.5988 81.0597 86.0012 81.0597C86.3232 81.0597 86.6073 80.991 86.8535 80.8537C87.1045 80.7164 87.3104 80.5152 87.4714 80.25C87.6324 79.9801 87.7342 79.6534 87.7768 79.2699H91.0225C90.9894 80.1695 90.7645 80.9555 90.3478 81.6278C89.9359 82.3002 89.3559 82.8234 88.6078 83.1974C87.8644 83.5668 86.9814 83.7514 85.9586 83.7514Z" fill="white"/>
<path d="M97.8993 83.7514C96.7582 83.7514 95.7734 83.5265 94.9448 83.0767C94.1209 82.6222 93.4864 81.9759 93.0414 81.1378C92.601 80.295 92.3809 79.2936 92.3809 78.1335C92.3809 77.0066 92.6034 76.0218 93.0485 75.179C93.4935 74.3314 94.1209 73.6733 94.9306 73.2045C95.7402 72.7311 96.6943 72.4943 97.7928 72.4943C98.5693 72.4943 99.2795 72.6151 99.9235 72.8565C100.567 73.098 101.124 73.4555 101.593 73.929C102.061 74.4025 102.426 74.9872 102.686 75.6832C102.947 76.3745 103.077 77.1676 103.077 78.0625V78.929H93.5953V76.9119H99.8453C99.8406 76.5426 99.753 76.2135 99.5826 75.9247C99.4121 75.6359 99.1777 75.411 98.8794 75.25C98.5859 75.0843 98.2473 75.0014 97.8638 75.0014C97.4756 75.0014 97.1275 75.089 96.8198 75.2642C96.512 75.4347 96.2682 75.669 96.0882 75.9673C95.9083 76.2609 95.8136 76.5947 95.8042 76.9688V79.0213C95.8042 79.4664 95.8918 79.857 96.0669 80.1932C96.2421 80.5246 96.4907 80.7827 96.8127 80.9673C97.1346 81.152 97.5182 81.2443 97.9632 81.2443C98.271 81.2443 98.5504 81.2017 98.8013 81.1165C99.0523 81.0313 99.2677 80.9058 99.4476 80.7401C99.6275 80.5743 99.7625 80.3707 99.8525 80.1293L103.041 80.2216C102.909 80.9366 102.618 81.5592 102.168 82.0895C101.723 82.6151 101.138 83.0246 100.414 83.3182C99.6891 83.607 98.851 83.7514 97.8993 83.7514Z" fill="white"/>
<path d="M108.324 69V83.5455H104.851V69H108.324Z" fill="white"/>
<path d="M114.007 69V83.5455H110.534V69H114.007Z" fill="white"/>
<path d="M121.317 83.7514C120.176 83.7514 119.191 83.5265 118.363 83.0767C117.539 82.6222 116.904 81.9759 116.459 81.1378C116.019 80.295 115.799 79.2936 115.799 78.1335C115.799 77.0066 116.021 76.0218 116.466 75.179C116.912 74.3314 117.539 73.6733 118.349 73.2045C119.158 72.7311 120.112 72.4943 121.211 72.4943C121.987 72.4943 122.697 72.6151 123.341 72.8565C123.985 73.098 124.542 73.4555 125.01 73.929C125.479 74.4025 125.844 74.9872 126.104 75.6832C126.365 76.3745 126.495 77.1676 126.495 78.0625V78.929H117.013V76.9119H123.263C123.259 76.5426 123.171 76.2135 123.001 75.9247C122.83 75.6359 122.596 75.411 122.297 75.25C122.004 75.0843 121.665 75.0014 121.282 75.0014C120.894 75.0014 120.546 75.089 120.238 75.2642C119.93 75.4347 119.686 75.669 119.506 75.9673C119.326 76.2609 119.232 76.5947 119.222 76.9688V79.0213C119.222 79.4664 119.31 79.857 119.485 80.1932C119.66 80.5246 119.909 80.7827 120.231 80.9673C120.553 81.152 120.936 81.2443 121.381 81.2443C121.689 81.2443 121.968 81.2017 122.219 81.1165C122.47 81.0313 122.686 80.9058 122.866 80.7401C123.046 80.5743 123.18 80.3707 123.27 80.1293L126.459 80.2216C126.327 80.9366 126.036 81.5592 125.586 82.0895C125.141 82.6151 124.556 83.0246 123.831 83.3182C123.107 83.607 122.269 83.7514 121.317 83.7514Z" fill="white"/>
<path d="M131.742 77.3239V83.5455H128.269V72.6364H131.571V74.6392H131.692C131.933 73.9716 132.345 73.4484 132.928 73.0696C133.51 72.6861 134.204 72.4943 135.009 72.4943C135.776 72.4943 136.441 72.6671 137.004 73.0128C137.573 73.3537 138.013 73.8319 138.325 74.4474C138.643 75.0582 138.799 75.7732 138.794 76.5923V83.5455H135.321V77.2741C135.326 76.6681 135.172 76.1946 134.86 75.8537C134.552 75.5128 134.123 75.3423 133.574 75.3423C133.209 75.3423 132.887 75.4228 132.608 75.5838C132.334 75.7401 132.12 75.965 131.969 76.2585C131.822 76.5521 131.746 76.9072 131.742 77.3239Z" fill="white"/>
<path d="M147.102 72.6364V75.1932H140.22V72.6364H147.102ZM141.662 70.0227H145.135V80.1151C145.135 80.3281 145.168 80.5009 145.234 80.6335C145.305 80.7614 145.407 80.8537 145.54 80.9105C145.672 80.9626 145.831 80.9886 146.015 80.9886C146.148 80.9886 146.288 80.9768 146.434 80.9531C146.586 80.9247 146.7 80.901 146.775 80.8821L147.301 83.3892C147.135 83.4366 146.901 83.4957 146.598 83.5668C146.3 83.6378 145.942 83.6828 145.525 83.7017C144.711 83.7396 144.013 83.6449 143.43 83.4176C142.853 83.1856 142.41 82.8258 142.102 82.3381C141.799 81.8504 141.652 81.2372 141.662 80.4986V70.0227Z" fill="white"/>
<path d="M65.6479 93V107.545H62.1749V93H65.6479Z" fill="white"/>
<path d="M72.9579 107.751C71.8168 107.751 70.832 107.527 70.0034 107.077C69.1795 106.622 68.545 105.976 68.1 105.138C67.6596 104.295 67.4395 103.294 67.4395 102.134C67.4395 101.007 67.662 100.022 68.1071 99.179C68.5521 98.3314 69.1795 97.6733 69.9892 97.2045C70.7988 96.7311 71.7529 96.4943 72.8514 96.4943C73.6279 96.4943 74.3381 96.6151 74.9821 96.8565C75.626 97.098 76.1824 97.4555 76.6511 97.929C77.1199 98.4025 77.4844 98.9872 77.7449 99.6832C78.0053 100.375 78.1355 101.168 78.1355 102.062V102.929H68.6539V100.912H74.9039C74.8992 100.543 74.8116 100.214 74.6412 99.9247C74.4707 99.6359 74.2363 99.411 73.938 99.25C73.6445 99.0843 73.3059 99.0014 72.9224 99.0014C72.5341 99.0014 72.1861 99.089 71.8784 99.2642C71.5706 99.4347 71.3268 99.669 71.1468 99.9673C70.9669 100.261 70.8722 100.595 70.8627 100.969V103.021C70.8627 103.466 70.9503 103.857 71.1255 104.193C71.3007 104.525 71.5493 104.783 71.8713 104.967C72.1932 105.152 72.5768 105.244 73.0218 105.244C73.3296 105.244 73.609 105.202 73.8599 105.116C74.1109 105.031 74.3263 104.906 74.5062 104.74C74.6861 104.574 74.8211 104.371 74.911 104.129L78.1 104.222C77.9674 104.937 77.6762 105.559 77.2264 106.089C76.7813 106.615 76.1966 107.025 75.4721 107.318C74.7477 107.607 73.9096 107.751 72.9579 107.751Z" fill="white"/>
<path d="M82.9846 107.73C82.2885 107.73 81.6706 107.614 81.1309 107.382C80.5958 107.145 80.1721 106.79 79.8596 106.317C79.5518 105.839 79.3979 105.24 79.3979 104.52C79.3979 103.914 79.5044 103.402 79.7175 102.986C79.9306 102.569 80.2241 102.231 80.5982 101.97C80.9722 101.71 81.4031 101.513 81.8908 101.381C82.3785 101.243 82.8993 101.151 83.4533 101.104C84.0736 101.047 84.5731 100.988 84.9519 100.926C85.3307 100.86 85.6053 100.768 85.7757 100.649C85.9509 100.526 86.0385 100.353 86.0385 100.131V100.095C86.0385 99.7306 85.9131 99.4489 85.6621 99.25C85.4112 99.0511 85.0726 98.9517 84.6465 98.9517C84.1872 98.9517 83.8179 99.0511 83.5385 99.25C83.2592 99.4489 83.0816 99.7235 83.0059 100.074L79.8027 99.9602C79.8974 99.2973 80.1413 98.7055 80.5343 98.1847C80.932 97.6591 81.4765 97.2472 82.1678 96.9489C82.8638 96.6458 83.6995 96.4943 84.6749 96.4943C85.3709 96.4943 86.0125 96.5772 86.5996 96.7429C87.1867 96.9039 87.6981 97.1406 88.1337 97.4531C88.5693 97.7609 88.9055 98.1397 89.1422 98.5895C89.3837 99.0393 89.5044 99.553 89.5044 100.131V107.545H86.2374V106.026H86.1522C85.958 106.395 85.7095 106.707 85.4064 106.963C85.1081 107.219 84.7554 107.411 84.3482 107.538C83.9457 107.666 83.4912 107.73 82.9846 107.73ZM84.057 105.457C84.431 105.457 84.7672 105.382 85.0655 105.23C85.3685 105.079 85.61 104.87 85.79 104.605C85.9699 104.335 86.0598 104.023 86.0598 103.668V102.631C85.9604 102.683 85.8397 102.73 85.6976 102.773C85.5603 102.815 85.4088 102.856 85.2431 102.893C85.0774 102.931 84.9069 102.964 84.7317 102.993C84.5565 103.021 84.3884 103.047 84.2275 103.071C83.9007 103.123 83.6214 103.204 83.3894 103.312C83.1621 103.421 82.9869 103.563 82.8638 103.739C82.7454 103.909 82.6863 104.113 82.6863 104.349C82.6863 104.709 82.8141 104.984 83.0698 105.173C83.3302 105.363 83.6593 105.457 84.057 105.457Z" fill="white"/>
<path d="M91.628 107.545V96.6364H95.0016V98.625H95.1152C95.3141 97.9053 95.6384 97.3703 96.0882 97.0199C96.5381 96.6648 97.0613 96.4872 97.6578 96.4872C97.8188 96.4872 97.9846 96.4991 98.155 96.5227C98.3255 96.5417 98.4841 96.5724 98.6309 96.6151V99.6335C98.4651 99.5767 98.2473 99.5317 97.9775 99.4986C97.7123 99.4654 97.4756 99.4489 97.2672 99.4489C96.8553 99.4489 96.4836 99.5412 96.1522 99.7259C95.8255 99.9058 95.5674 100.159 95.378 100.486C95.1934 100.808 95.101 101.187 95.101 101.622V107.545H91.628Z" fill="white"/>
<path d="M103.519 101.324V107.545H100.046V96.6364H103.349V98.6392H103.469C103.711 97.9716 104.123 97.4484 104.705 97.0696C105.287 96.6861 105.981 96.4943 106.786 96.4943C107.553 96.4943 108.218 96.6671 108.782 97.0128C109.35 97.3537 109.79 97.8319 110.103 98.4474C110.42 99.0582 110.576 99.7732 110.572 100.592V107.545H107.099V101.274C107.103 100.668 106.949 100.195 106.637 99.8537C106.329 99.5128 105.901 99.3423 105.351 99.3423C104.987 99.3423 104.665 99.4228 104.385 99.5838C104.111 99.7401 103.898 99.965 103.746 100.259C103.599 100.552 103.524 100.907 103.519 101.324Z" fill="white"/>
<path d="M112.722 107.545V96.6364H116.195V107.545H112.722ZM114.462 95.3651C113.974 95.3651 113.555 95.2041 113.205 94.8821C112.854 94.5554 112.679 94.1624 112.679 93.7031C112.679 93.2486 112.854 92.8603 113.205 92.5384C113.555 92.2116 113.974 92.0483 114.462 92.0483C114.954 92.0483 115.373 92.2116 115.719 92.5384C116.069 92.8603 116.244 93.2486 116.244 93.7031C116.244 94.1624 116.069 94.5554 115.719 94.8821C115.373 95.2041 114.954 95.3651 114.462 95.3651Z" fill="white"/>
<path d="M121.878 101.324V107.545H118.405V96.6364H121.708V98.6392H121.829C122.07 97.9716 122.482 97.4484 123.064 97.0696C123.647 96.6861 124.34 96.4943 125.145 96.4943C125.912 96.4943 126.578 96.6671 127.141 97.0128C127.709 97.3537 128.15 97.8319 128.462 98.4474C128.779 99.0582 128.936 99.7732 128.931 100.592V107.545H125.458V101.274C125.463 100.668 125.309 100.195 124.996 99.8537C124.689 99.5128 124.26 99.3423 123.711 99.3423C123.346 99.3423 123.024 99.4228 122.745 99.5838C122.47 99.7401 122.257 99.965 122.106 100.259C121.959 100.552 121.883 100.907 121.878 101.324Z" fill="white"/>
<path d="M136.166 111.864C135.129 111.864 134.242 111.719 133.503 111.43C132.764 111.142 132.184 110.746 131.763 110.244C131.342 109.742 131.088 109.174 131.003 108.54L134.291 108.355C134.353 108.578 134.467 108.772 134.632 108.938C134.803 109.103 135.023 109.231 135.293 109.321C135.567 109.411 135.889 109.456 136.259 109.456C136.841 109.456 137.322 109.314 137.7 109.03C138.084 108.75 138.276 108.26 138.276 107.56V105.642H138.155C138.018 105.978 137.809 106.279 137.53 106.544C137.251 106.809 136.903 107.018 136.486 107.169C136.074 107.321 135.601 107.396 135.066 107.396C134.27 107.396 133.541 107.212 132.878 106.842C132.22 106.468 131.692 105.891 131.294 105.109C130.901 104.323 130.705 103.313 130.705 102.077C130.705 100.803 130.908 99.7543 131.316 98.9304C131.723 98.1018 132.255 97.4886 132.914 97.0909C133.576 96.6932 134.289 96.4943 135.051 96.4943C135.624 96.4943 136.114 96.5938 136.521 96.7926C136.933 96.9867 137.272 97.2377 137.537 97.5455C137.802 97.8532 138.003 98.1728 138.141 98.5043H138.24V96.6364H141.699V107.588C141.699 108.511 141.467 109.29 141.003 109.925C140.539 110.559 139.89 111.04 139.057 111.366C138.224 111.698 137.26 111.864 136.166 111.864ZM136.273 104.868C136.694 104.868 137.054 104.757 137.352 104.534C137.651 104.312 137.88 103.992 138.041 103.575C138.202 103.159 138.283 102.659 138.283 102.077C138.283 101.485 138.202 100.976 138.041 100.55C137.885 100.119 137.655 99.7874 137.352 99.5554C137.054 99.3234 136.694 99.2074 136.273 99.2074C135.842 99.2074 135.477 99.3258 135.179 99.5625C134.881 99.7992 134.654 100.133 134.497 100.564C134.346 100.99 134.27 101.494 134.27 102.077C134.27 102.659 134.348 103.159 134.504 103.575C134.661 103.992 134.886 104.312 135.179 104.534C135.477 104.757 135.842 104.868 136.273 104.868Z" fill="white"/>
<path d="M52.5185 131.751C51.3774 131.751 50.3925 131.527 49.5639 131.077C48.7401 130.622 48.1056 129.976 47.6605 129.138C47.2202 128.295 47 127.294 47 126.134C47 125.007 47.2225 124.022 47.6676 123.179C48.1127 122.331 48.7401 121.673 49.5497 121.205C50.3594 120.731 51.3134 120.494 52.4119 120.494C53.1884 120.494 53.8987 120.615 54.5426 120.857C55.1866 121.098 55.7429 121.455 56.2116 121.929C56.6804 122.402 57.045 122.987 57.3054 123.683C57.5658 124.375 57.696 125.168 57.696 126.062V126.929H48.2145V124.912H54.4645C54.4598 124.543 54.3722 124.214 54.2017 123.925C54.0313 123.636 53.7969 123.411 53.4986 123.25C53.205 123.084 52.8665 123.001 52.483 123.001C52.0947 123.001 51.7467 123.089 51.4389 123.264C51.1312 123.435 50.8873 123.669 50.7074 123.967C50.5275 124.261 50.4328 124.595 50.4233 124.969V127.021C50.4233 127.466 50.5109 127.857 50.6861 128.193C50.8613 128.525 51.1098 128.783 51.4318 128.967C51.7538 129.152 52.1373 129.244 52.5824 129.244C52.8902 129.244 53.1695 129.202 53.4205 129.116C53.6714 129.031 53.8868 128.906 54.0668 128.74C54.2467 128.574 54.3816 128.371 54.4716 128.129L57.6605 128.222C57.5279 128.937 57.2367 129.559 56.7869 130.089C56.3419 130.615 55.7571 131.025 55.0327 131.318C54.3082 131.607 53.4702 131.751 52.5185 131.751Z" fill="white"/>
<path d="M62.2681 120.636L64.065 124.23L65.9258 120.636H69.4272L66.3803 126.091L69.5408 131.545H66.0678L64.065 127.923L62.1119 131.545H58.5891L61.7567 126.091L58.7454 120.636H62.2681Z" fill="white"/>
<path d="M71.0128 135.636V120.636H74.4503V122.504H74.5568C74.6989 122.173 74.9001 121.853 75.1605 121.545C75.4257 121.238 75.7618 120.987 76.169 120.793C76.581 120.594 77.0734 120.494 77.6463 120.494C78.4039 120.494 79.1117 120.693 79.7699 121.091C80.4328 121.489 80.9678 122.102 81.375 122.93C81.7822 123.759 81.9858 124.815 81.9858 126.098C81.9858 127.334 81.7893 128.368 81.3963 129.202C81.008 130.035 80.4825 130.66 79.8196 131.077C79.1615 131.493 78.4299 131.702 77.625 131.702C77.0758 131.702 76.5999 131.612 76.1974 131.432C75.795 131.252 75.4564 131.015 75.1818 130.722C74.9119 130.428 74.7036 130.113 74.5568 129.777H74.4858V135.636H71.0128ZM74.4148 126.091C74.4148 126.678 74.4929 127.189 74.6491 127.625C74.8101 128.061 75.0398 128.399 75.3381 128.641C75.6411 128.877 76.0033 128.996 76.4247 128.996C76.8509 128.996 77.2131 128.877 77.5114 128.641C77.8097 128.399 78.0346 128.061 78.1861 127.625C78.3423 127.189 78.4205 126.678 78.4205 126.091C78.4205 125.504 78.3423 124.995 78.1861 124.564C78.0346 124.133 77.8097 123.799 77.5114 123.562C77.2178 123.326 76.8556 123.207 76.4247 123.207C75.9986 123.207 75.6364 123.323 75.3381 123.555C75.0398 123.787 74.8101 124.119 74.6491 124.55C74.4929 124.981 74.4148 125.494 74.4148 126.091Z" fill="white"/>
<path d="M88.9052 131.751C87.7641 131.751 86.7792 131.527 85.9506 131.077C85.1268 130.622 84.4923 129.976 84.0472 129.138C83.6069 128.295 83.3867 127.294 83.3867 126.134C83.3867 125.007 83.6093 124.022 84.0543 123.179C84.4994 122.331 85.1268 121.673 85.9364 121.205C86.7461 120.731 87.7002 120.494 88.7986 120.494C89.5752 120.494 90.2854 120.615 90.9293 120.857C91.5733 121.098 92.1296 121.455 92.5984 121.929C93.0671 122.402 93.4317 122.987 93.6921 123.683C93.9525 124.375 94.0827 125.168 94.0827 126.062V126.929H84.6012V124.912H90.8512C90.8465 124.543 90.7589 124.214 90.5884 123.925C90.418 123.636 90.1836 123.411 89.8853 123.25C89.5917 123.084 89.2532 123.001 88.8697 123.001C88.4814 123.001 88.1334 123.089 87.8256 123.264C87.5179 123.435 87.274 123.669 87.0941 123.967C86.9142 124.261 86.8195 124.595 86.81 124.969V127.021C86.81 127.466 86.8976 127.857 87.0728 128.193C87.248 128.525 87.4966 128.783 87.8185 128.967C88.1405 129.152 88.524 129.244 88.9691 129.244C89.2769 129.244 89.5562 129.202 89.8072 129.116C90.0581 129.031 90.2736 128.906 90.4535 128.74C90.6334 128.574 90.7683 128.371 90.8583 128.129L94.0472 128.222C93.9147 128.937 93.6235 129.559 93.1736 130.089C92.7286 130.615 92.1438 131.025 91.4194 131.318C90.695 131.607 89.8569 131.751 88.9052 131.751Z" fill="white"/>
<path d="M95.8565 131.545V120.636H99.2301V122.625H99.3438C99.5426 121.905 99.867 121.37 100.317 121.02C100.767 120.665 101.29 120.487 101.886 120.487C102.047 120.487 102.213 120.499 102.384 120.523C102.554 120.542 102.713 120.572 102.859 120.615V123.634C102.694 123.577 102.476 123.532 102.206 123.499C101.941 123.465 101.704 123.449 101.496 123.449C101.084 123.449 100.712 123.541 100.381 123.726C100.054 123.906 99.7959 124.159 99.6065 124.486C99.4219 124.808 99.3295 125.187 99.3295 125.622V131.545H95.8565Z" fill="white"/>
<path d="M104.275 131.545V120.636H107.748V131.545H104.275ZM106.015 119.365C105.527 119.365 105.108 119.204 104.757 118.882C104.407 118.555 104.232 118.162 104.232 117.703C104.232 117.249 104.407 116.86 104.757 116.538C105.108 116.212 105.527 116.048 106.015 116.048C106.507 116.048 106.926 116.212 107.272 116.538C107.622 116.86 107.797 117.249 107.797 117.703C107.797 118.162 107.622 118.555 107.272 118.882C106.926 119.204 106.507 119.365 106.015 119.365Z" fill="white"/>
<path d="M115.058 131.751C113.916 131.751 112.932 131.527 112.103 131.077C111.279 130.622 110.645 129.976 110.2 129.138C109.759 128.295 109.539 127.294 109.539 126.134C109.539 125.007 109.762 124.022 110.207 123.179C110.652 122.331 111.279 121.673 112.089 121.205C112.898 120.731 113.853 120.494 114.951 120.494C115.728 120.494 116.438 120.615 117.082 120.857C117.726 121.098 118.282 121.455 118.751 121.929C119.219 122.402 119.584 122.987 119.844 123.683C120.105 124.375 120.235 125.168 120.235 126.062V126.929H110.754V124.912H117.004C116.999 124.543 116.911 124.214 116.741 123.925C116.57 123.636 116.336 123.411 116.038 123.25C115.744 123.084 115.406 123.001 115.022 123.001C114.634 123.001 114.286 123.089 113.978 123.264C113.67 123.435 113.426 123.669 113.246 123.967C113.067 124.261 112.972 124.595 112.962 124.969V127.021C112.962 127.466 113.05 127.857 113.225 128.193C113.4 128.525 113.649 128.783 113.971 128.967C114.293 129.152 114.676 129.244 115.121 129.244C115.429 129.244 115.709 129.202 115.96 129.116C116.21 129.031 116.426 128.906 116.606 128.74C116.786 128.574 116.921 128.371 117.011 128.129L120.2 128.222C120.067 128.937 119.776 129.559 119.326 130.089C118.881 130.615 118.296 131.025 117.572 131.318C116.847 131.607 116.009 131.751 115.058 131.751Z" fill="white"/>
<path d="M125.482 125.324V131.545H122.009V120.636H125.311V122.639H125.432C125.674 121.972 126.086 121.448 126.668 121.07C127.25 120.686 127.944 120.494 128.749 120.494C129.516 120.494 130.181 120.667 130.745 121.013C131.313 121.354 131.753 121.832 132.066 122.447C132.383 123.058 132.539 123.773 132.534 124.592V131.545H129.061V125.274C129.066 124.668 128.912 124.195 128.6 123.854C128.292 123.513 127.864 123.342 127.314 123.342C126.95 123.342 126.628 123.423 126.348 123.584C126.074 123.74 125.861 123.965 125.709 124.259C125.562 124.552 125.487 124.907 125.482 125.324Z" fill="white"/>
<path d="M139.777 131.751C138.626 131.751 137.639 131.515 136.815 131.041C135.996 130.568 135.366 129.91 134.926 129.067C134.486 128.219 134.266 127.239 134.266 126.126C134.266 125.009 134.486 124.029 134.926 123.186C135.371 122.339 136.003 121.678 136.822 121.205C137.646 120.731 138.629 120.494 139.77 120.494C140.778 120.494 141.657 120.677 142.405 121.041C143.158 121.406 143.745 121.922 144.166 122.589C144.592 123.252 144.817 124.031 144.841 124.926H141.595C141.529 124.367 141.339 123.929 141.027 123.612C140.719 123.295 140.317 123.136 139.82 123.136C139.417 123.136 139.064 123.25 138.761 123.477C138.458 123.7 138.222 124.031 138.051 124.472C137.885 124.907 137.803 125.447 137.803 126.091C137.803 126.735 137.885 127.279 138.051 127.724C138.222 128.165 138.458 128.499 138.761 128.726C139.064 128.948 139.417 129.06 139.82 129.06C140.142 129.06 140.426 128.991 140.672 128.854C140.923 128.716 141.129 128.515 141.29 128.25C141.451 127.98 141.553 127.653 141.595 127.27H144.841C144.808 128.17 144.583 128.955 144.166 129.628C143.754 130.3 143.174 130.823 142.426 131.197C141.683 131.567 140.8 131.751 139.777 131.751Z" fill="white"/>
<path d="M151.718 131.751C150.577 131.751 149.592 131.527 148.763 131.077C147.939 130.622 147.305 129.976 146.86 129.138C146.419 128.295 146.199 127.294 146.199 126.134C146.199 125.007 146.422 124.022 146.867 123.179C147.312 122.331 147.939 121.673 148.749 121.205C149.559 120.731 150.513 120.494 151.611 120.494C152.388 120.494 153.098 120.615 153.742 120.857C154.386 121.098 154.942 121.455 155.411 121.929C155.88 122.402 156.244 122.987 156.505 123.683C156.765 124.375 156.895 125.168 156.895 126.062V126.929H147.414V124.912H153.664C153.659 124.543 153.571 124.214 153.401 123.925C153.23 123.636 152.996 123.411 152.698 123.25C152.404 123.084 152.066 123.001 151.682 123.001C151.294 123.001 150.946 123.089 150.638 123.264C150.33 123.435 150.087 123.669 149.907 123.967C149.727 124.261 149.632 124.595 149.623 124.969V127.021C149.623 127.466 149.71 127.857 149.885 128.193C150.06 128.525 150.309 128.783 150.631 128.967C150.953 129.152 151.337 129.244 151.782 129.244C152.089 129.244 152.369 129.202 152.62 129.116C152.871 129.031 153.086 128.906 153.266 128.74C153.446 128.574 153.581 128.371 153.671 128.129L156.86 128.222C156.727 128.937 156.436 129.559 155.986 130.089C155.541 130.615 154.956 131.025 154.232 131.318C153.507 131.607 152.669 131.751 151.718 131.751Z" fill="white"/>
<defs>
<linearGradient id="paint0_linear_0_1" x1="-12.4348" y1="91.2145" x2="228.124" y2="92.098" gradientUnits="userSpaceOnUse">
<stop stop-color="#AA367C"/>
<stop offset="1" stop-color="#4A2FBD"/>
</linearGradient>
</defs>
</svg>
