<svg width="204" height="204" viewBox="0 0 204 204" fill="none" xmlns="http://www.w3.org/2000/svg">
<path d="M187.639 69.9021C193.092 67.8586 199.226 70.6143 200.696 76.2484C206.238 97.4863 204.802 120.051 196.436 140.546C186.737 164.31 168.435 183.543 145.182 194.409C121.928 205.275 95.4333 206.975 70.9821 199.169C46.5309 191.364 25.9211 174.628 13.2642 152.299C0.60733 129.97 -3.16618 103.69 2.6965 78.7016C8.55918 53.7134 23.627 31.854 44.8941 17.4842C66.1612 3.1144 92.0641 -2.70939 117.435 1.17465C139.317 4.52445 159.415 14.8827 174.791 30.5466C178.869 34.702 178.083 41.3805 173.529 45.009C168.975 48.6374 162.385 47.8272 158.195 43.7832C146.212 32.2155 130.877 24.5642 114.244 22.0179C94.1181 18.9368 73.5701 23.5566 56.6994 34.9558C39.8288 46.355 27.8758 63.6955 23.2251 83.518C18.5744 103.34 21.5679 124.188 31.6082 141.901C41.6486 159.614 57.9979 172.89 77.3943 179.082C96.7908 185.274 117.809 183.925 136.255 175.305C154.701 166.686 169.219 151.429 176.914 132.578C183.273 116.999 184.584 99.9117 180.815 83.688C179.497 78.0164 182.187 71.9457 187.639 69.9021Z" fill="url(#paint0_linear_0_1)"/>
<path d="M54.7017 73.7031C54.6212 73.4048 54.5028 73.142 54.3466 72.9148C54.1903 72.6828 53.9986 72.4863 53.7713 72.3253C53.544 72.1643 53.2836 72.0436 52.9901 71.9631C52.6965 71.8778 52.3745 71.8352 52.0241 71.8352C51.3187 71.8352 50.7079 72.0057 50.1918 72.3466C49.6804 72.6875 49.285 73.1847 49.0057 73.8381C48.7263 74.4867 48.5866 75.2751 48.5866 76.2031C48.5866 77.1359 48.7216 77.9313 48.9915 78.5895C49.2614 79.2476 49.652 79.7495 50.1634 80.0952C50.6747 80.4408 51.295 80.6136 52.0241 80.6136C52.6681 80.6136 53.2126 80.5095 53.6577 80.3011C54.1075 80.0881 54.4484 79.7874 54.6804 79.3991C54.9124 79.0109 55.0284 78.554 55.0284 78.0284L55.6818 78.1065H52.1449V75.5426H58.4162V77.4673C58.4162 78.7694 58.1392 79.8845 57.5852 80.8125C57.036 81.7405 56.2784 82.4531 55.3125 82.9503C54.3513 83.4474 53.2457 83.696 51.9957 83.696C50.6084 83.696 49.3892 83.3954 48.3381 82.794C47.2869 82.1927 46.4678 81.3357 45.8807 80.223C45.2936 79.1056 45 77.7798 45 76.2457C45 75.0526 45.1776 73.9943 45.5327 73.071C45.8878 72.143 46.3826 71.357 47.017 70.7131C47.6563 70.0691 48.3949 69.5814 49.233 69.25C50.0758 68.9186 50.9825 68.7528 51.9531 68.7528C52.7959 68.7528 53.5795 68.8736 54.304 69.1151C55.0331 69.3565 55.6771 69.6974 56.2358 70.1378C56.7992 70.5781 57.2562 71.1013 57.6065 71.7074C57.9569 72.3134 58.1747 72.9787 58.2599 73.7031H54.7017Z" fill="white"/>
<path d="M60.4883 83.4972V72.5881H63.8619V74.5767H63.9755C64.1744 73.857 64.4987 73.322 64.9485 72.9716C65.3983 72.6165 65.9215 72.4389 66.5181 72.4389C66.6791 72.4389 66.8448 72.4508 67.0153 72.4744C67.1857 72.4934 67.3443 72.5241 67.4911 72.5668V75.5852C67.3254 75.5284 67.1076 75.4834 66.8377 75.4503C66.5726 75.4171 66.3358 75.4006 66.1275 75.4006C65.7156 75.4006 65.3439 75.4929 65.0124 75.6776C64.6857 75.8575 64.4277 76.1108 64.2383 76.4375C64.0536 76.7595 63.9613 77.1383 63.9613 77.5739V83.4972H60.4883Z" fill="white"/>
<path d="M73.4322 83.7031C72.2863 83.7031 71.3015 83.4688 70.4776 83C69.6585 82.5265 69.0264 81.8684 68.5813 81.0256C68.141 80.178 67.9208 79.1956 67.9208 78.0781C67.9208 76.956 68.141 75.9735 68.5813 75.1307C69.0264 74.2831 69.6585 73.625 70.4776 73.1562C71.3015 72.6828 72.2863 72.446 73.4322 72.446C74.578 72.446 75.5605 72.6828 76.3796 73.1562C77.2035 73.625 77.8356 74.2831 78.2759 75.1307C78.721 75.9735 78.9435 76.956 78.9435 78.0781C78.9435 79.1956 78.721 80.178 78.2759 81.0256C77.8356 81.8684 77.2035 82.5265 76.3796 83C75.5605 83.4688 74.578 83.7031 73.4322 83.7031ZM73.4535 81.0824C73.8701 81.0824 74.2229 80.9545 74.5117 80.6989C74.8005 80.4432 75.0207 80.0881 75.1722 79.6335C75.3285 79.179 75.4066 78.6534 75.4066 78.0568C75.4066 77.4508 75.3285 76.9205 75.1722 76.4659C75.0207 76.0114 74.8005 75.6563 74.5117 75.4006C74.2229 75.1449 73.8701 75.017 73.4535 75.017C73.0226 75.017 72.658 75.1449 72.3597 75.4006C72.0662 75.6563 71.8413 76.0114 71.685 76.4659C71.5335 76.9205 71.4577 77.4508 71.4577 78.0568C71.4577 78.6534 71.5335 79.179 71.685 79.6335C71.8413 80.0881 72.0662 80.4432 72.3597 80.6989C72.658 80.9545 73.0226 81.0824 73.4535 81.0824Z" fill="white"/>
<path d="M82.5266 83.4972L79.6857 72.5881H83.1729L84.6431 79.5767H84.7354L86.3121 72.5881H89.7141L91.3335 79.527H91.4258L92.8533 72.5881H96.3406L93.4925 83.4972H89.7781L88.0735 77.1406H87.9528L86.2482 83.4972H82.5266Z" fill="white"/>
<path d="M104.07 83.4972L101.229 72.5881H104.716L106.186 79.5767H106.278L107.855 72.5881H111.257L112.876 79.527H112.969L114.396 72.5881H117.884L115.036 83.4972H111.321L109.616 77.1406H109.496L107.791 83.4972H104.07Z" fill="white"/>
<path d="M119.277 83.4972V72.5881H122.75V83.4972H119.277ZM121.017 71.3168C120.53 71.3168 120.111 71.1558 119.76 70.8338C119.41 70.5071 119.235 70.1141 119.235 69.6548C119.235 69.2003 119.41 68.812 119.76 68.4901C120.111 68.1634 120.53 68 121.017 68C121.51 68 121.929 68.1634 122.275 68.4901C122.625 68.812 122.8 69.2003 122.8 69.6548C122.8 70.1141 122.625 70.5071 122.275 70.8338C121.929 71.1558 121.51 71.3168 121.017 71.3168Z" fill="white"/>
<path d="M131.119 72.5881V75.1449H124.237V72.5881H131.119ZM125.678 69.9744H129.151V80.0668C129.151 80.2798 129.184 80.4527 129.251 80.5852C129.322 80.7131 129.424 80.8054 129.556 80.8622C129.689 80.9143 129.847 80.9403 130.032 80.9403C130.165 80.9403 130.304 80.9285 130.451 80.9048C130.603 80.8764 130.716 80.8527 130.792 80.8338L131.317 83.3409C131.152 83.3883 130.917 83.4474 130.614 83.5185C130.316 83.5895 129.959 83.6345 129.542 83.6534C128.728 83.6913 128.029 83.5966 127.447 83.3693C126.869 83.1373 126.426 82.7775 126.119 82.2898C125.816 81.8021 125.669 81.1889 125.678 80.4503V69.9744Z" fill="white"/>
<path d="M136.598 77.2756V83.4972H133.125V68.9517H136.484V74.5909H136.605C136.851 73.9186 137.254 73.393 137.812 73.0142C138.376 72.6354 139.065 72.446 139.879 72.446C140.646 72.446 141.314 72.6165 141.882 72.9574C142.45 73.2936 142.891 73.7694 143.203 74.3849C143.52 75.0005 143.677 75.7202 143.672 76.544V83.4972H140.199V77.2259C140.204 76.6198 140.052 76.1463 139.744 75.8054C139.437 75.4645 139.003 75.294 138.445 75.294C138.08 75.294 137.758 75.3745 137.479 75.5355C137.204 75.6918 136.989 75.9167 136.832 76.2102C136.681 76.5038 136.603 76.8589 136.598 77.2756Z" fill="white"/>
<path d="M153.212 83.6818C152.516 83.6818 151.898 83.5658 151.358 83.3338C150.823 83.0971 150.4 82.742 150.087 82.2685C149.779 81.7902 149.625 81.1913 149.625 80.4716C149.625 79.8655 149.732 79.3542 149.945 78.9375C150.158 78.5208 150.452 78.1823 150.826 77.9219C151.2 77.6615 151.631 77.465 152.118 77.3324C152.606 77.1951 153.127 77.1027 153.681 77.0554C154.301 76.9986 154.801 76.9394 155.179 76.8778C155.558 76.8116 155.833 76.7192 156.003 76.6009C156.178 76.4777 156.266 76.3049 156.266 76.0824V76.0469C156.266 75.6823 156.141 75.4006 155.89 75.2017C155.639 75.0028 155.3 74.9034 154.874 74.9034C154.415 74.9034 154.045 75.0028 153.766 75.2017C153.487 75.4006 153.309 75.6752 153.233 76.0256L150.03 75.9119C150.125 75.2491 150.369 74.6572 150.762 74.1364C151.159 73.6108 151.704 73.1989 152.395 72.9006C153.091 72.5975 153.927 72.446 154.902 72.446C155.598 72.446 156.24 72.5289 156.827 72.6946C157.414 72.8556 157.926 73.0923 158.361 73.4048C158.797 73.7126 159.133 74.0914 159.37 74.5412C159.611 74.991 159.732 75.5047 159.732 76.0824V83.4972H156.465V81.9773H156.38C156.185 82.3466 155.937 82.6591 155.634 82.9148C155.336 83.1705 154.983 83.3622 154.576 83.4901C154.173 83.6179 153.719 83.6818 153.212 83.6818ZM154.284 81.4091C154.658 81.4091 154.995 81.3333 155.293 81.1818C155.596 81.0303 155.837 80.822 156.017 80.5568C156.197 80.2869 156.287 79.9744 156.287 79.6193V78.5824C156.188 78.6345 156.067 78.6818 155.925 78.7244C155.788 78.767 155.636 78.8073 155.471 78.8452C155.305 78.883 155.134 78.9162 154.959 78.9446C154.784 78.973 154.616 78.9991 154.455 79.0227C154.128 79.0748 153.849 79.1553 153.617 79.2642C153.39 79.3731 153.214 79.5152 153.091 79.6903C152.973 79.8608 152.914 80.0644 152.914 80.3011C152.914 80.661 153.042 80.9356 153.297 81.125C153.558 81.3144 153.887 81.4091 154.284 81.4091Z" fill="white"/>
<path d="M68.8485 107.497L64.6156 92.9517H68.5005L70.6951 102.483H70.8159L73.323 92.9517H76.4906L78.9977 102.504H79.1184L81.3201 92.9517H85.198L80.9721 107.497H77.5843L74.9636 98.6761H74.85L72.2292 107.497H68.8485Z" fill="white"/>
<path d="M90.5389 107.703C89.3978 107.703 88.4129 107.478 87.5843 107.028C86.7605 106.574 86.126 105.928 85.6809 105.089C85.2406 104.247 85.0204 103.245 85.0204 102.085C85.0204 100.958 85.243 99.9735 85.688 99.1307C86.1331 98.2831 86.7605 97.625 87.5701 97.1562C88.3798 96.6828 89.3339 96.446 90.4324 96.446C91.2089 96.446 91.9191 96.5668 92.563 96.8082C93.207 97.0497 93.7633 97.4072 94.2321 97.8807C94.7008 98.3542 95.0654 98.9389 95.3258 99.6349C95.5862 100.326 95.7164 101.119 95.7164 102.014V102.881H86.2349V100.864H92.4849C92.4802 100.494 92.3926 100.165 92.2221 99.8764C92.0517 99.5876 91.8173 99.3627 91.519 99.2017C91.2254 99.036 90.8869 98.9531 90.5034 98.9531C90.1151 98.9531 89.7671 99.0407 89.4593 99.2159C89.1516 99.3864 88.9077 99.6207 88.7278 99.919C88.5479 100.213 88.4532 100.546 88.4437 100.92V102.973C88.4437 103.418 88.5313 103.809 88.7065 104.145C88.8817 104.476 89.1303 104.734 89.4522 104.919C89.7742 105.104 90.1577 105.196 90.6028 105.196C90.9106 105.196 91.1899 105.153 91.4409 105.068C91.6918 104.983 91.9073 104.857 92.0872 104.692C92.2671 104.526 92.402 104.322 92.492 104.081L95.6809 104.173C95.5484 104.888 95.2572 105.511 94.8074 106.041C94.3623 106.567 93.7775 106.976 93.0531 107.27C92.3287 107.559 91.4906 107.703 90.5389 107.703Z" fill="white"/>
<path d="M97.4902 107.497V92.9517H100.963V98.456H101.034C101.176 98.1245 101.378 97.8049 101.638 97.4972C101.903 97.1894 102.239 96.9384 102.646 96.7443C103.058 96.5455 103.551 96.446 104.124 96.446C104.881 96.446 105.589 96.6449 106.247 97.0426C106.91 97.4403 107.445 98.0535 107.852 98.8821C108.26 99.7107 108.463 100.767 108.463 102.05C108.463 103.286 108.267 104.32 107.874 105.153C107.485 105.987 106.96 106.612 106.297 107.028C105.639 107.445 104.907 107.653 104.102 107.653C103.553 107.653 103.077 107.563 102.675 107.384C102.272 107.204 101.934 106.967 101.659 106.673C101.389 106.38 101.181 106.065 101.034 105.729H100.928V107.497H97.4902ZM100.892 102.043C100.892 102.63 100.97 103.141 101.127 103.577C101.288 104.012 101.517 104.351 101.816 104.592C102.119 104.829 102.481 104.947 102.902 104.947C103.328 104.947 103.691 104.829 103.989 104.592C104.287 104.351 104.512 104.012 104.664 103.577C104.82 103.141 104.898 102.63 104.898 102.043C104.898 101.455 104.82 100.946 104.664 100.516C104.512 100.085 104.287 99.7509 103.989 99.5142C103.695 99.2775 103.333 99.1591 102.902 99.1591C102.476 99.1591 102.114 99.2751 101.816 99.5071C101.517 99.7391 101.288 100.071 101.127 100.501C100.97 100.932 100.892 101.446 100.892 102.043Z" fill="white"/>
<path d="M120.084 107.696C118.976 107.696 117.994 107.507 117.137 107.128C116.285 106.744 115.612 106.216 115.12 105.544C114.627 104.872 114.376 104.098 114.367 103.222H117.904C117.918 103.539 118.02 103.821 118.209 104.067C118.399 104.308 118.657 104.498 118.983 104.635C119.31 104.772 119.682 104.841 120.099 104.841C120.515 104.841 120.882 104.768 121.199 104.621C121.521 104.469 121.772 104.263 121.952 104.003C122.132 103.738 122.22 103.435 122.215 103.094C122.22 102.753 122.123 102.45 121.924 102.185C121.725 101.92 121.443 101.714 121.079 101.567C120.719 101.42 120.293 101.347 119.8 101.347H118.387V98.8466H119.8C120.231 98.8466 120.61 98.7756 120.937 98.6335C121.268 98.4915 121.526 98.2926 121.711 98.0369C121.895 97.7765 121.985 97.4782 121.981 97.142C121.985 96.8153 121.907 96.5289 121.746 96.2827C121.59 96.0317 121.37 95.8376 121.086 95.7003C120.806 95.563 120.482 95.4943 120.113 95.4943C119.724 95.4943 119.372 95.563 119.055 95.7003C118.742 95.8376 118.493 96.0317 118.309 96.2827C118.124 96.5336 118.027 96.8248 118.018 97.1562H114.658C114.668 96.2898 114.909 95.5275 115.383 94.8693C115.856 94.2064 116.5 93.688 117.314 93.3139C118.134 92.9399 119.066 92.7528 120.113 92.7528C121.154 92.7528 122.071 92.9351 122.861 93.2997C123.652 93.6643 124.268 94.1615 124.708 94.7912C125.148 95.4162 125.368 96.1241 125.368 96.9148C125.373 97.7339 125.106 98.4086 124.566 98.9389C124.031 99.4692 123.342 99.7959 122.499 99.919V100.033C123.626 100.165 124.476 100.53 125.049 101.126C125.626 101.723 125.913 102.469 125.908 103.364C125.908 104.206 125.66 104.955 125.162 105.608C124.67 106.257 123.983 106.768 123.103 107.142C122.227 107.511 121.221 107.696 120.084 107.696Z" fill="white"/>
<path d="M132.252 105.395V95.1108H135.115V105.395H132.252ZM128.538 101.688V98.8182H138.822V101.688H128.538Z" fill="white"/>
<path d="M52.4654 131.703C51.3148 131.703 50.3276 131.466 49.5037 130.993C48.6846 130.519 48.0549 129.861 47.6145 129.018C47.1742 128.171 46.954 127.191 46.954 126.078C46.954 124.961 47.1742 123.981 47.6145 123.138C48.0596 122.29 48.6917 121.63 49.5108 121.156C50.3347 120.683 51.3172 120.446 52.4583 120.446C53.4668 120.446 54.3451 120.628 55.0932 120.993C55.8461 121.357 56.4332 121.874 56.8546 122.541C57.2807 123.204 57.5056 123.983 57.5293 124.878H54.2836C54.2173 124.319 54.0279 123.881 53.7154 123.564C53.4076 123.247 53.0051 123.088 52.508 123.088C52.1055 123.088 51.7528 123.202 51.4498 123.429C51.1467 123.652 50.91 123.983 50.7395 124.423C50.5738 124.859 50.4909 125.399 50.4909 126.043C50.4909 126.687 50.5738 127.231 50.7395 127.676C50.91 128.116 51.1467 128.45 51.4498 128.678C51.7528 128.9 52.1055 129.011 52.508 129.011C52.83 129.011 53.1141 128.943 53.3603 128.805C53.6112 128.668 53.8172 128.467 53.9782 128.202C54.1391 127.932 54.2409 127.605 54.2836 127.222H57.5293C57.4962 128.121 57.2712 128.907 56.8546 129.58C56.4426 130.252 55.8626 130.775 55.1145 131.149C54.3712 131.518 53.4881 131.703 52.4654 131.703Z" fill="white"/>
<path d="M64.399 131.703C63.2531 131.703 62.2683 131.469 61.4444 131C60.6253 130.527 59.9932 129.868 59.5481 129.026C59.1078 128.178 58.8876 127.196 58.8876 126.078C58.8876 124.956 59.1078 123.973 59.5481 123.131C59.9932 122.283 60.6253 121.625 61.4444 121.156C62.2683 120.683 63.2531 120.446 64.399 120.446C65.5448 120.446 66.5273 120.683 67.3464 121.156C68.1703 121.625 68.8024 122.283 69.2427 123.131C69.6878 123.973 69.9103 124.956 69.9103 126.078C69.9103 127.196 69.6878 128.178 69.2427 129.026C68.8024 129.868 68.1703 130.527 67.3464 131C66.5273 131.469 65.5448 131.703 64.399 131.703ZM64.4203 129.082C64.8369 129.082 65.1897 128.955 65.4785 128.699C65.7673 128.443 65.9875 128.088 66.139 127.634C66.2953 127.179 66.3734 126.653 66.3734 126.057C66.3734 125.451 66.2953 124.92 66.139 124.466C65.9875 124.011 65.7673 123.656 65.4785 123.401C65.1897 123.145 64.8369 123.017 64.4203 123.017C63.9894 123.017 63.6248 123.145 63.3265 123.401C63.033 123.656 62.8081 124.011 62.6518 124.466C62.5003 124.92 62.4245 125.451 62.4245 126.057C62.4245 126.653 62.5003 127.179 62.6518 127.634C62.8081 128.088 63.033 128.443 63.3265 128.699C63.6248 128.955 63.9894 129.082 64.4203 129.082Z" fill="white"/>
<path d="M71.6895 131.497V120.588H74.992V122.591H75.1127C75.34 121.928 75.7235 121.405 76.2633 121.021C76.8031 120.638 77.447 120.446 78.1951 120.446C78.9527 120.446 79.6014 120.64 80.1412 121.028C80.6809 121.417 81.0242 121.938 81.171 122.591H81.2846C81.4882 121.942 81.886 121.424 82.4778 121.036C83.0697 120.643 83.7681 120.446 84.573 120.446C85.6052 120.446 86.4432 120.777 87.0872 121.44C87.7311 122.098 88.0531 123.003 88.0531 124.153V131.497H84.5801V124.949C84.5801 124.404 84.4404 123.99 84.161 123.706C83.8817 123.417 83.5195 123.273 83.0744 123.273C82.5962 123.273 82.2198 123.429 81.9451 123.741C81.6753 124.049 81.5403 124.464 81.5403 124.984V131.497H78.2022V124.913C78.2022 124.407 78.0649 124.007 77.7903 123.713C77.5157 123.42 77.1535 123.273 76.7037 123.273C76.4006 123.273 76.1331 123.346 75.9011 123.493C75.6691 123.635 75.4868 123.839 75.3542 124.104C75.2264 124.369 75.1625 124.681 75.1625 125.041V131.497H71.6895Z" fill="white"/>
<path d="M90.2051 131.497V120.588H93.5076V122.591H93.6284C93.8556 121.928 94.2392 121.405 94.7789 121.021C95.3187 120.638 95.9627 120.446 96.7108 120.446C97.4683 120.446 98.117 120.64 98.6568 121.028C99.1966 121.417 99.5398 121.938 99.6866 122.591H99.8002C100.004 121.942 100.402 121.424 100.993 121.036C101.585 120.643 102.284 120.446 103.089 120.446C104.121 120.446 104.959 120.777 105.603 121.44C106.247 122.098 106.569 123.003 106.569 124.153V131.497H103.096V124.949C103.096 124.404 102.956 123.99 102.677 123.706C102.397 123.417 102.035 123.273 101.59 123.273C101.112 123.273 100.735 123.429 100.461 123.741C100.191 124.049 100.056 124.464 100.056 124.984V131.497H96.7179V124.913C96.7179 124.407 96.5806 124.007 96.3059 123.713C96.0313 123.42 95.6691 123.273 95.2193 123.273C94.9163 123.273 94.6487 123.346 94.4167 123.493C94.1847 123.635 94.0024 123.839 93.8699 124.104C93.742 124.369 93.6781 124.681 93.6781 125.041V131.497H90.2051Z" fill="white"/>
<path d="M115.759 126.788V120.588H119.225V131.497H115.915V129.466H115.802C115.56 130.134 115.148 130.664 114.566 131.057C113.988 131.445 113.29 131.639 112.471 131.639C111.727 131.639 111.074 131.469 110.51 131.128C109.947 130.787 109.509 130.311 109.197 129.7C108.884 129.085 108.725 128.365 108.721 127.541V120.588H112.194V126.859C112.198 127.451 112.355 127.918 112.662 128.259C112.97 128.599 113.389 128.77 113.92 128.77C114.265 128.77 114.575 128.694 114.85 128.543C115.129 128.386 115.349 128.161 115.51 127.868C115.676 127.57 115.759 127.21 115.759 126.788Z" fill="white"/>
<path d="M124.909 125.276V131.497H121.436V120.588H124.738V122.591H124.859C125.1 121.923 125.512 121.4 126.095 121.021C126.677 120.638 127.371 120.446 128.176 120.446C128.943 120.446 129.608 120.619 130.171 120.964C130.74 121.305 131.18 121.784 131.492 122.399C131.81 123.01 131.966 123.725 131.961 124.544V131.497H128.488V125.226C128.493 124.62 128.339 124.146 128.026 123.805C127.719 123.464 127.29 123.294 126.741 123.294C126.376 123.294 126.054 123.375 125.775 123.536C125.5 123.692 125.287 123.917 125.136 124.21C124.989 124.504 124.913 124.859 124.909 125.276Z" fill="white"/>
<path d="M134.111 131.497V120.588H137.584V131.497H134.111ZM135.851 119.317C135.364 119.317 134.945 119.156 134.594 118.834C134.244 118.507 134.069 118.114 134.069 117.655C134.069 117.2 134.244 116.812 134.594 116.49C134.945 116.163 135.364 116 135.851 116C136.344 116 136.763 116.163 137.108 116.49C137.459 116.812 137.634 117.2 137.634 117.655C137.634 118.114 137.459 118.507 137.108 118.834C136.763 119.156 136.344 119.317 135.851 119.317Z" fill="white"/>
<path d="M145.953 120.588V123.145H139.07V120.588H145.953ZM140.512 117.974H143.985V128.067C143.985 128.28 144.018 128.453 144.085 128.585C144.156 128.713 144.258 128.805 144.39 128.862C144.523 128.914 144.681 128.94 144.866 128.94C144.999 128.94 145.138 128.929 145.285 128.905C145.436 128.876 145.55 128.853 145.626 128.834L146.151 131.341C145.986 131.388 145.751 131.447 145.448 131.518C145.15 131.589 144.793 131.634 144.376 131.653C143.561 131.691 142.863 131.597 142.281 131.369C141.703 131.137 141.26 130.777 140.953 130.29C140.65 129.802 140.503 129.189 140.512 128.45V117.974Z" fill="white"/>
<path d="M149.848 135.588C149.432 135.588 149.039 135.555 148.669 135.489C148.3 135.427 147.983 135.344 147.718 135.24L148.485 132.719C148.825 132.832 149.133 132.899 149.408 132.918C149.687 132.937 149.926 132.892 150.125 132.783C150.329 132.679 150.485 132.491 150.594 132.222L150.729 131.895L146.851 120.588H150.487L152.497 128.372H152.611L154.649 120.588H158.307L154.195 132.541C153.996 133.138 153.714 133.663 153.35 134.118C152.99 134.577 152.523 134.937 151.95 135.197C151.382 135.458 150.682 135.588 149.848 135.588Z" fill="white"/>
<defs>
<linearGradient id="paint0_linear_0_1" x1="-12.4348" y1="91.2145" x2="228.124" y2="92.098" gradientUnits="userSpaceOnUse">
<stop stop-color="#AA367C"/>
<stop offset="1" stop-color="#4A2FBD"/>
</linearGradient>
</defs>
</svg>
