<svg width="58" height="58" viewBox="0 0 58 58" fill="none" xmlns="http://www.w3.org/2000/svg">
<path d="M41 1H17C8.16344 1 1 8.16344 1 17V41C1 49.8366 8.16344 57 17 57H41C49.8366 57 57 49.8366 57 41V17C57 8.16344 49.8366 1 41 1Z" fill="#FFD0EC"/>
<path d="M41 1H17C8.16344 1 1 8.16344 1 17V41C1 49.8366 8.16344 57 17 57H41C49.8366 57 57 49.8366 57 41V17C57 8.16344 49.8366 1 41 1Z" stroke="#4E4E4E" stroke-width="2"/>
<g clip-path="url(#clip0_0_1)">
<path d="M22.9706 11L18 15.9138V29.1288L22.3098 33.5919H24.2923C24.2492 33.7227 24.1774 33.9263 24.321 34.1298C24.4647 34.3479 24.7233 34.3479 24.8239 34.3479C24.9388 34.3479 25.0968 34.3333 25.3554 34.3043C25.3554 34.3043 25.456 34.3915 25.1399 34.5078C24.8813 34.595 24.6515 34.7549 24.5796 35.0166C24.5796 35.0311 24.5796 35.0602 24.5653 35.0748H18V41.8349L22.9706 46.7778H36.0294L41 41.8494V29.1724L36.6902 24.7238H33.0269C32.8688 24.622 32.6964 24.5202 32.5528 24.4185L32.4953 24.3894H32.4809C32.3948 24.3313 32.3086 24.2731 32.2224 24.1859C32.1362 24.1132 32.0787 24.055 32.0212 23.9969L32.0069 23.9823C31.9063 23.8806 31.8201 23.7788 31.7626 23.6916C32.3373 23.8515 32.955 23.8951 33.2567 23.9097H33.2854C33.2998 23.9097 33.3285 23.9097 33.3429 23.9097H33.3716C33.4435 23.9097 33.5009 23.9242 33.5297 23.9387C33.5728 23.9533 33.6015 23.9678 33.6302 23.9823L33.7883 24.0405C33.8314 24.055 33.8601 24.055 33.9032 24.055C34.133 24.055 34.3342 23.9242 34.4347 23.7061C34.4635 23.6334 34.5209 23.4881 34.4778 23.2991H41V15.9283L36.015 11H22.9706Z" fill="#040404"/>
<path d="M40.3966 16.19L35.7851 11.6106H23.2005L18.589 16.1755V28.8816L22.554 32.9813H25.1112C24.8239 33.243 24.7377 33.5192 24.6946 33.6501C24.594 33.9408 24.4935 34.028 25.3841 33.8972C25.6715 33.8536 26.1886 33.6646 26.4329 33.5047C26.6771 33.3448 27.1368 33.4756 27.1081 33.8245C26.8926 34.3769 26.3179 34.7113 25.772 34.784C24.5222 34.9439 25.0681 35.4091 25.0681 35.4091C25.2118 35.5109 25.298 35.5981 25.3698 35.6854H24.7664H18.589V41.5732L23.2005 46.1526H35.7851L40.3966 41.5732V29.4341L36.4316 25.3489H33.228C32.9694 25.1745 32.6246 24.9855 32.3086 24.7819C32.1936 24.7092 32.0643 24.622 31.9638 24.5203C31.8632 24.4476 31.7914 24.3603 31.7196 24.2876C31.4466 23.9969 31.2311 23.6916 31.1737 23.5462C31.0731 23.2845 31.0875 22.9647 31.3317 23.0955C31.9207 23.4444 32.8976 23.5026 33.2567 23.5171C33.2998 23.5171 33.5871 23.5462 33.659 23.5753C33.7308 23.6044 33.8457 23.6625 33.8457 23.6625C33.9894 23.7207 34.2623 23.5171 33.9463 23.1392C33.8601 23.0083 33.7452 22.8629 33.6015 22.703H40.411L40.3966 16.19Z" fill="#FFD0EC"/>
<path d="M23.4447 12.2212L19.1924 16.4372V28.6199L22.8126 32.3707H26.2174C26.792 32.109 26.9213 32.1381 27.0793 31.8037C27.1081 31.7456 27.1224 31.6002 27.1368 31.4548C27.1512 31.4112 27.223 30.9751 27.0075 31.0769C26.6483 31.2658 25.9157 30.7716 25.3554 31.0623C24.8095 31.3531 25.2117 30.6843 25.2836 30.568C25.2836 30.568 25.5709 30.1755 26.0162 29.9138C26.0306 29.8993 26.045 29.8993 26.0593 29.8847C26.1024 29.8557 26.1455 29.8411 26.1886 29.8121C26.5191 29.6521 27.4816 28.9979 27.654 28.8089C27.7545 28.6926 27.9413 28.4164 27.9413 28.271C27.97 28.1402 27.9988 27.9367 27.8695 27.864C27.6827 27.7477 27.539 27.9803 27.2517 28.1111C26.9644 28.242 26.7489 28.3001 26.4903 28.3001C26.2461 28.3146 26.0019 28.2129 25.8582 28.242C25.7146 28.271 25.6284 28.1547 25.9013 27.8785C26.0306 27.7477 26.0737 27.7041 26.1312 27.6604C26.7776 27.2388 27.3523 27.2388 27.6683 26.4974C27.6683 26.4974 27.9126 25.8287 27.4385 26.1194C27.1799 26.2793 27.0219 26.4974 26.2748 26.4974C25.5134 26.4974 25.2261 26.8609 25.0968 27.0208C25.0968 27.0208 24.5796 27.7477 24.7089 26.73C24.8382 25.7124 25.0394 25.189 25.5134 24.7965C25.93 24.4621 26.9357 23.9969 27.3092 23.4881C27.4959 23.2991 27.97 22.7466 27.6971 22.296C27.5821 22.107 27.2948 22.6013 27.0075 22.6739C26.6771 22.7612 26.2461 22.8775 25.93 22.8048C25.5278 22.7176 25.2692 22.8775 25.1255 22.9502C24.9819 23.0229 24.6946 22.8048 25.0394 22.3977C25.4991 21.8598 26.6196 21.162 27.3666 20.7549C27.4672 20.7113 27.7258 20.595 27.9557 20.4496H27.97C28.0275 20.4206 28.1137 20.377 28.1568 20.3043C28.3148 20.1589 28.4297 20.0135 28.401 19.8536C28.3723 19.7082 28.3004 19.6646 28.0706 19.6355C27.8982 19.621 27.5965 19.8245 27.3523 19.81C26.9788 19.7809 26.4185 19.8681 26.6052 19.5919C26.7776 19.3448 27.0506 19.1848 27.1368 19.1412C27.2948 19.0685 27.4959 18.9813 27.7976 18.8359C28.2717 18.6179 28.2142 18.0654 28.0275 18.0509C27.7402 18.0218 26.9644 18.269 27.5103 17.6438C27.5103 17.6438 27.7689 17.3821 28.0275 17.2077C28.2286 17.0914 28.401 17.0332 28.6165 16.9605C28.7458 16.9169 29.0762 16.6116 28.2861 16.5826C28.2861 16.5826 27.8407 16.5971 27.9269 16.3936C27.9988 16.2627 28.3866 16.001 28.3866 16.001C28.3866 16.001 28.7027 15.783 28.832 15.6521C28.9613 15.5358 29.0475 15.4341 29.0331 15.3323C29.0331 15.216 28.7171 15.0561 28.5878 14.8816C28.4872 14.7653 28.5734 14.7217 28.6309 14.7072C28.6596 14.7072 28.6883 14.6926 28.7314 14.6926C29.0475 14.6926 29.148 14.3728 29.3348 13.5151C29.3923 13.2679 29.3923 13.2098 29.4785 13.2098C29.4928 13.2098 29.4928 13.2098 29.4928 13.2098C29.4928 13.2098 29.579 13.6459 29.6939 14.1257C29.7945 14.3873 29.8951 14.5036 30.0962 14.5036C30.1393 14.5036 30.168 14.5036 30.1968 14.5182C30.2542 14.5327 30.326 14.5763 30.2399 14.6926C30.168 14.7944 29.9525 14.9398 29.9382 15.027C29.8807 15.2887 30.1249 15.3905 30.3835 15.405C30.7427 15.4341 30.599 15.6521 30.2111 15.9429C29.8376 16.2191 30.8001 16.8297 30.8001 16.8297C31.346 17.2513 30.9582 17.3676 30.8432 17.4258C30.7283 17.4839 30.4266 17.6729 30.7283 17.7892C31.0443 17.9055 31.461 18.3416 31.461 18.3416C32.0069 18.9813 31.2311 18.7196 30.9438 18.7487C30.757 18.7632 30.6852 19.3157 31.1736 19.5338C31.9063 19.8681 32.0643 19.9263 32.3229 20.1153C32.8114 20.4787 32.5528 20.784 31.9494 20.6822C31.9494 20.6822 31.5615 20.5805 31.2886 20.6386C31.1162 20.6677 31.0013 20.7113 30.9294 20.7549C30.8863 20.8131 30.7858 21.0748 31.6334 21.3365C32.0356 21.4673 32.524 21.7726 32.9694 22.1215H39.8364V16.4808L35.5409 12.2212H23.4447ZM33.817 25.945C34.0181 26.2793 34.133 26.7155 34.2192 27.3406C34.2192 27.7186 33.7164 27.5441 33.5584 27.4424C33.4435 27.3697 33.2998 27.297 33.0987 27.2388C32.7395 27.1516 31.8632 26.7591 31.6334 26.6864C31.3891 26.5992 31.2167 26.7736 31.188 26.8463C31.1305 26.9626 31.2598 27.1952 31.2598 27.1952C31.6046 27.9803 32.2224 27.9367 32.9119 28.431C33.8601 29.1142 33.3573 29.2596 33.1562 29.1578C32.9694 29.0561 32.639 29.1142 32.639 29.1142C31.8776 29.3323 31.6477 28.9979 31.2024 28.8816C30.757 28.7653 31.1162 29.3178 31.2886 29.5068C31.461 29.7103 32.4235 30.3645 32.7539 30.5099C33.4866 30.8588 33.8601 31.4112 34.0899 32.1236C34.3054 32.7923 34.0756 32.6469 33.9032 32.5597C33.7308 32.4725 33.6733 32.298 33.2423 32.3126C32.8114 32.3271 32.5671 32.2835 32.2511 32.0509C32.1649 31.9927 32.1074 31.92 32.05 31.8474C32.05 31.8474 32.05 31.8474 32.0356 31.8474C31.7339 31.6148 31.7914 32.3853 31.8632 32.5016C32.0787 32.9377 32.2224 32.7632 33.4578 33.432C34.0468 33.7518 34.1761 34.1734 34.248 34.3479C34.3485 34.6386 34.4491 34.7259 33.5584 34.595C33.2711 34.5514 32.7539 34.377 32.5097 34.2025C32.2798 34.0426 31.8057 34.1734 31.8488 34.5223C32.0643 35.0748 32.639 35.4091 33.1849 35.4818C33.659 35.54 33.8745 35.6418 33.9607 35.7581C34.2192 36.0633 33.7452 36.4995 33.7452 36.4995C33.5009 36.7757 33.7595 37.1101 33.9463 37.2118C34.2336 37.3572 34.7939 37.7061 34.9806 38.1859C35.9575 40.7155 35.0094 39.9886 34.5497 39.6978C34.0899 39.4071 33.2136 38.6656 32.4091 38.7238C31.6046 38.7819 31.346 38.8256 30.8576 38.4476C30.3835 38.0696 30.4266 38.6802 30.4266 38.6802V41.7331C30.4553 42.4164 30.5846 43.0706 31.1162 43.6231C31.5615 44.0737 31.8919 44.001 32.5097 44.757C32.797 45.1059 33.7308 45.4839 34.3485 45.4984H35.5409L39.7933 41.2679V29.6376L36.173 25.9014L33.817 25.945ZM19.1924 36.296V41.3115L23.4447 45.5421H24.8095C26.1024 45.4839 26.5765 44.4663 26.9644 43.8411C27.2517 43.3759 27.7833 42.9689 28.1137 42.6345C28.4585 42.271 28.5303 41.4569 28.5303 40.5701V38.7238V38.7383V38.3022V38.0114V37.9387V37.1392C28.5303 36.9502 28.3148 36.9356 27.8551 37.4444C27.3954 37.9533 26.6052 37.9097 26.1599 37.9533C25.7146 37.9969 24.4072 38.6802 24.0481 39.1745C23.8182 39.4798 23.4878 39.2326 23.6315 38.622C23.6889 38.3458 23.8039 37.9824 23.9906 37.5026C24.2492 36.8339 25.2117 36.4413 25.2117 36.4413C25.2117 36.4413 25.3123 36.3977 25.3985 36.3105L19.1924 36.296Z" fill="#040404"/>
</g>
<defs>
<clipPath id="clip0_0_1">
<rect width="23" height="35.7778" fill="white" transform="translate(18 11)"/>
</clipPath>
</defs>
</svg>
