<svg width="600" height="140" xmlns="http://www.w3.org/2000/svg" data-name="Layer 1">
 <g id="Layer_1">
  <title>Layer 1</title>
  <g>
   <path d="m8.1,40l0,61.5l-8.1,4.7l0,-70.9l8.1,4.7z" fill="lightgray"/>
   <path d="m122.8,35.4l-8.1,4.7l-53.3,-30.8l0,-9.3l61.4,35.4z" fill="lightgray"/>
   <path d="m122.8,106.2l-61.4,35.4l0,-9.3l53.3,-30.8l8.1,4.7z" fill="lightgray"/>
   <g opacity="0.3" class="st0">
    <path enable-background="new" opacity="0.3" d="m61.4,132.3l0,9.3l-61.3,-35.4l8.1,-4.7l53.2,30.8z" class="st1" fill="lightgray"/>
   </g>
   <g opacity="0.3" class="st0">
    <path enable-background="new" opacity="0.3" d="m122.8,35.4l0,70.9l-8.1,-4.7l0,-61.5l8.1,-4.7z" class="st1" fill="lightgray"/>
   </g>
   <g opacity="0.3" class="st0">
    <path enable-background="new" opacity="0.3" d="m61.4,0l0,9.3l-53.3,30.8l-8.1,-4.7l61.4,-35.4z" class="st1" fill="lightgray"/>
   </g>
   <path fill="lightgray" d="m61.4,39.1l21.1,6.4c0.3,0.1 0.6,0.4 0.7,0.7c0.1,0.3 0.2,0.6 0.1,1c-0.1,0.3 -0.3,0.6 -0.6,0.8c-0.3,0.2 -0.6,0.2 -0.9,0.2l-20.4,-6.1l-20.3,6.1c-0.3,0.1 -0.7,0 -0.9,-0.2c-0.3,-0.2 -0.5,-0.4 -0.6,-0.8c-0.1,-0.3 -0.1,-0.7 0.1,-1c0.1,-0.3 0.4,-0.5 0.7,-0.7l21,-6.4z"/>
   <path fill="lightgray" d="m91.9,49.2c0,-0.3 -0.2,-0.6 -0.4,-0.8c-0.2,-0.2 -0.5,-0.3 -0.8,-0.4c-0.3,0 -0.6,0 -0.8,0.1c-0.3,0.1 -0.5,0.3 -0.6,0.6l-12.2,23.9l-31.3,0l-12.2,-23.8c-0.1,-0.2 -0.3,-0.4 -0.6,-0.6c-0.2,-0.1 -0.5,-0.2 -0.8,-0.2c-0.3,0 -0.6,0.2 -0.8,0.4c-0.2,0.2 -0.4,0.5 -0.4,0.8c-1.1,7.7 -0.7,15.6 1.2,23.2c3,11.9 10.6,25.8 28.6,34.6l0.6,0.3l0.6,-0.3c18,-8.8 25.7,-22.7 28.7,-34.6c1.9,-7.6 2.3,-15.4 1.2,-23.2zm-57.1,22.6c-1.4,-5.8 -2,-11.8 -1.6,-17.8l10.6,20.7l14.4,27.9c-14.5,-8.4 -20.8,-20.4 -23.4,-30.8zm26.6,31.1l-14.2,-27.5l28.4,0l-14.2,27.5zm26.6,-31.1c-2.6,10.5 -9,22.5 -23.5,30.8l14.5,-27.9l10.6,-20.7c0.4,5.9 -0.1,11.9 -1.6,17.8z"/>
   <path fill="lightgray" d="m165,76.3c0.8,0.8 1.8,1.5 2.9,2s2.2,0.7 3.4,0.6l44.3,0l0,-6l-44.3,0c-0.8,0 -1.5,-0.3 -2.1,-0.8c-0.5,-0.6 -0.8,-1.3 -0.8,-2.1l0,-35.6c0,-0.4 0.1,-0.7 0.2,-1.1c0.1,-0.3 0.4,-0.7 0.6,-0.9c0.3,-0.3 0.6,-0.5 0.9,-0.7c0.4,-0.2 0.7,-0.2 1.1,-0.2l44.4,0l0,-6l-44.3,0c-1.2,0 -2.3,0.2 -3.4,0.7c-1.1,0.4 -2.1,1.1 -2.9,1.9c-0.8,0.8 -1.5,1.8 -1.9,2.9c-0.4,1.1 -0.7,2.2 -0.7,3.4l0,35.6c0,1.2 0.2,2.3 0.6,3.4c0.5,1.1 1.2,2.1 2,2.9l0,0zm85,-50.8l0,53.4l48.8,0l0,-6l-42.7,0l0,-17.7l34.3,0l0,-6.1l-34.3,0l0,-17.7l42.7,0l0,-6l-48.8,0l0,0.1zm83.1,53.4l0,-53.3l44.5,0c2.4,0 4.6,1 6.3,2.6c1.7,1.7 2.6,3.9 2.6,6.3l0,15.6c0,1.2 -0.2,2.3 -0.7,3.4c-0.4,1.1 -1.1,2.1 -1.9,2.9c-0.8,0.8 -1.8,1.5 -2.9,1.9c-1.1,0.4 -2.2,0.7 -3.4,0.6l-8.2,0l16.8,19.8l0,0.1l-7.9,0l-16.7,-19.9l-22.5,-0.1l0,19.9l-6,0l0,0.2zm8.9,-25.9l35.6,0c0.4,0 0.7,-0.1 1.1,-0.2c0.3,-0.1 0.7,-0.4 0.9,-0.6c0.3,-0.3 0.5,-0.6 0.6,-0.9c0.1,-0.3 0.2,-0.7 0.2,-1.1l0,-15.7c0,-0.4 -0.1,-0.7 -0.2,-1.1c-0.1,-0.3 -0.4,-0.7 -0.6,-0.9c-0.2,-0.3 -0.6,-0.5 -0.9,-0.7c-0.3,-0.2 -0.7,-0.2 -1.1,-0.2l-35.6,0c-0.4,0 -0.8,0.1 -1.1,0.2c-0.4,0.2 -0.7,0.4 -0.9,0.7c-0.3,0.3 -0.5,0.6 -0.6,0.9c-0.1,0.3 -0.2,0.7 -0.2,1.1l0,15.6c0,0.4 0.1,0.7 0.2,1.1c0.1,0.3 0.3,0.7 0.6,0.9c0.5,0.6 1.2,0.9 2,0.9l0,0zm99.9,-21.5l0,47.4l6,0l0,-47.4l23.7,0l0,-6l-53.4,0l0,6l23.7,0zm61.4,-6l6.1,0l0,53.4l-6.1,0l0,-53.4zm42.7,0l0,53.4l6.1,0l0,-23.7l17.2,0l19.9,23.7l7.8,0l0,-0.1l-22.4,-26.6l22.3,-26.6l0,-0.1l-7.7,0l-19.9,23.7l-17.2,0l0,-23.7l-6.1,0z"/>
   <path fill="lightgray" d="m509.5,79l-6.3,0l0,-53.6l6.3,0l0,53.6zm-6.1,-0.2l5.9,0l0,-53.2l-5.9,0l0,53.2zm93.7,0.2l-7.9,0l0,0l-19.9,-23.6l-17.1,0l0,23.7l-6.3,0l0,-53.6l6.3,0l0,23.7l17,0l19.9,-23.7l7.9,0l0,0.2l0,0l-22.3,26.6l22.4,26.6l0,0.1zm-7.8,-0.2l7.6,0l-22.4,-26.6l0.1,-0.1l22.2,-26.5l-7.5,0l-19.9,23.7l-17.4,0l0,-23.7l-5.9,0l0,53.2l5.9,0l0,-23.7l17.4,0l0,0l19.9,23.7zm-141.3,0.2l-6.2,0l0,-47.4l-23.7,0l0,-6.2l53.6,0l0,6.2l-23.7,0l0,47.4zm-6,-0.2l5.8,0l0,-47.4l23.7,0l0,-5.8l-53.2,0l0,5.8l23.7,0l0,47.4zm-55.7,0.2l-8.1,0l0,0l-16.7,-19.8l-22.3,-0.1l0,20l-6.2,0l0,-53.6l44.6,0c2.4,0 4.7,1 6.3,2.7c1.7,1.7 2.6,4 2.7,6.3l0,15.7c0,1.2 -0.2,2.4 -0.7,3.5s-1.1,2.1 -2,2.9c-0.8,0.8 -1.8,1.5 -2.9,2c-1.1,0.5 -2.3,0.7 -3.5,0.7l-7.9,0l16.6,19.7l0.1,0zm-8,-0.2l7.7,0l-16.8,-19.9l8.4,0c1.1,0 2.3,-0.2 3.4,-0.7c1.1,-0.4 2,-1.1 2.8,-1.9c0.8,-0.8 1.5,-1.8 1.9,-2.9c0.4,-1.1 0.7,-2.2 0.7,-3.4l0,-15.6c0,-2.3 -1,-4.5 -2.6,-6.2c-1.6,-1.6 -3.9,-2.6 -6.2,-2.6l-44.4,0l0,53.2l5.8,0l0,-20l22.6,0.1l0,0l16.7,19.9zm-79.4,0.2l-49,0l0,-53.6l49,0l0,6.2l-42.7,0l0,17.4l34.3,0l0,6.3l-34.3,0l0,17.5l42.7,0l0,6.2zm-48.7,-0.2l48.5,0l0,-5.8l-42.7,0l0,-17.9l34.3,0l0,-5.9l-34.3,0l0,-17.9l42.7,0l0,-5.8l-48.5,0l0,53.3zm-34.4,0.2l-44.5,0c-1.2,0 -2.4,-0.2 -3.5,-0.7c-1.1,-0.5 -2.1,-1.1 -2.9,-2c-0.8,-0.8 -1.5,-1.8 -2,-2.9c-0.5,-1.1 -0.7,-2.3 -0.7,-3.5l0,-35.6c0,-1.2 0.2,-2.4 0.7,-3.5c0.5,-1.1 1.1,-2.1 2,-2.9c0.8,-0.8 1.8,-1.5 2.9,-2c1.1,-0.5 2.3,-0.7 3.5,-0.7l44.5,0l0,6.2l-44.5,0c-0.4,0 -0.7,0.1 -1.1,0.2c-0.3,0.1 -0.7,0.4 -0.9,0.6c-0.3,0.2 -0.5,0.5 -0.6,0.9c-0.1,0.3 -0.2,0.7 -0.2,1l0,35.6c0,0.4 0.1,0.7 0.2,1.1c0.1,0.3 0.3,0.7 0.6,0.9c0.3,0.3 0.6,0.5 0.9,0.6c0.3,0.1 0.7,0.2 1.1,0.2l44.5,0l0,6.5zm-50.7,-2.8c0.8,0.8 1.8,1.5 2.9,1.9c1.1,0.4 2.2,0.7 3.4,0.6l44.2,0l0,-5.8l-44.3,0c-0.8,0 -1.6,-0.3 -2.2,-0.8c-0.6,-0.6 -0.9,-1.4 -0.9,-2.2l0,-35.6c0,-0.4 0.1,-0.8 0.2,-1.1c0.1,-0.4 0.4,-0.7 0.6,-1c0.3,-0.3 0.6,-0.5 1,-0.7c0.4,-0.2 0.8,-0.2 1.2,-0.2l44.2,0l0,-5.8l-44.1,0c-1.2,0 -2.3,0.2 -3.4,0.7c-1.1,0.4 -2,1.1 -2.9,1.9c-0.8,0.8 -1.5,1.8 -1.9,2.9c-0.4,1.1 -0.7,2.2 -0.7,3.4l0,35.6c0,1.2 0.2,2.3 0.6,3.4c0.6,1.1 1.3,2 2.1,2.8l0,0zm212.5,-23.1l-35.6,0c-0.8,0 -1.6,-0.3 -2.2,-0.9c-0.3,-0.3 -0.5,-0.6 -0.6,-1c-0.1,-0.4 -0.2,-0.7 -0.2,-1.1l0,-15.6c0,-0.4 0.1,-0.8 0.2,-1.1c0.1,-0.4 0.4,-0.7 0.6,-1c0.3,-0.3 0.6,-0.5 1,-0.7c0.4,-0.2 0.8,-0.2 1.2,-0.2l35.6,0c0.4,0 0.8,0.1 1.1,0.2c0.4,0.2 0.7,0.4 0.9,0.7c0.3,0.3 0.5,0.6 0.6,1c0.1,0.4 0.2,0.7 0.2,1.1l0,15.6c0,0.4 -0.1,0.8 -0.2,1.1c-0.1,0.4 -0.4,0.7 -0.6,1c-0.3,0.3 -0.6,0.5 -1,0.6c-0.3,0.2 -0.6,0.3 -1,0.3l0,0zm-35.6,-21.4c-0.4,0 -0.7,0.1 -1.1,0.2c-0.3,0.1 -0.7,0.4 -0.9,0.6c-0.3,0.3 -0.5,0.6 -0.6,0.9s-0.2,0.7 -0.2,1l0,15.6c0,0.4 0.1,0.7 0.2,1c0.1,0.3 0.3,0.6 0.6,0.9c0.5,0.5 1.3,0.8 2,0.8l35.6,0c0.4,0 0.7,-0.1 1,-0.2c0.3,-0.1 0.6,-0.3 0.9,-0.6c0.3,-0.2 0.5,-0.5 0.6,-0.9c0.1,-0.3 0.2,-0.7 0.2,-1l0,-15.6c0,-0.4 -0.1,-0.7 -0.2,-1c-0.1,-0.3 -0.3,-0.6 -0.6,-0.9c-0.2,-0.3 -0.5,-0.5 -0.9,-0.6c-0.3,-0.1 -0.7,-0.2 -1.1,-0.2l-35.5,0z"/>
   <path fill="lightgray" d="m180.1,112.4l-2,0l0,-0.7c0,-0.3 -0.1,-0.5 -0.3,-0.7c-0.2,-0.2 -0.4,-0.3 -0.7,-0.3l-11.7,0c-0.3,0 -0.5,0.1 -0.7,0.3c-0.2,0.2 -0.3,0.4 -0.3,0.7l0,4c0,0.2 0.1,0.5 0.3,0.7c0.2,0.2 0.4,0.3 0.7,0.3l11.8,0c0.4,0 0.8,0.1 1.1,0.2c0.4,0.1 0.7,0.4 1,0.6c0.3,0.3 0.5,0.6 0.6,1c0.1,0.4 0.2,0.7 0.2,1.1l0,4c0,0.4 -0.1,0.8 -0.2,1.1c-0.1,0.4 -0.4,0.7 -0.6,1c-0.3,0.3 -0.6,0.5 -1,0.6c-0.4,0.1 -0.7,0.2 -1.1,0.2l-11.8,0c-0.4,0 -0.8,-0.1 -1.1,-0.2c-0.4,-0.1 -0.7,-0.4 -1,-0.6c-0.3,-0.3 -0.5,-0.6 -0.6,-1c-0.1,-0.4 -0.2,-0.7 -0.2,-1.1l0,-0.8l2,0l0,0.7c0,0.3 0.1,0.5 0.3,0.7c0.2,0.2 0.4,0.3 0.7,0.3l11.8,0c0.3,0 0.5,-0.1 0.7,-0.3c0.2,-0.2 0.3,-0.4 0.3,-0.7l0,-4c0,-0.2 -0.1,-0.5 -0.3,-0.7c-0.2,-0.2 -0.4,-0.3 -0.7,-0.3l-11.9,0c-0.4,0 -0.8,-0.1 -1.1,-0.2c-0.4,-0.1 -0.7,-0.4 -1,-0.6s-0.5,-0.6 -0.6,-1c-0.1,-0.4 -0.2,-0.7 -0.2,-1.1l0,-4c0,-0.4 0.1,-0.8 0.2,-1.1c0.1,-0.4 0.4,-0.7 0.6,-1c0.3,-0.3 0.6,-0.5 1,-0.6c0.4,-0.1 0.7,-0.2 1.1,-0.2l11.8,0c0.4,0 0.8,0.1 1.1,0.2c0.4,0.1 0.7,0.4 1,0.6c0.3,0.3 0.5,0.6 0.6,1c0.1,0.4 0.2,0.7 0.2,1.1l0,0.8z"/>
   <path fill="lightgray" d="m177.2,126.5l-11.8,0c-0.4,0 -0.8,-0.1 -1.2,-0.2s-0.7,-0.4 -1,-0.7c-0.3,-0.3 -0.5,-0.6 -0.7,-1c-0.2,-0.4 -0.2,-0.8 -0.2,-1.2l0,-0.8l2.3,0l0,0.8c0,0.2 0.1,0.4 0.3,0.6c0.2,0.2 0.4,0.2 0.6,0.3l11.8,0c0.2,0 0.4,-0.1 0.6,-0.3c0.2,-0.2 0.2,-0.4 0.3,-0.6l0,-4c0,-0.2 -0.1,-0.4 -0.3,-0.6c-0.2,-0.2 -0.4,-0.2 -0.6,-0.2l-11.9,0c-0.8,0 -1.6,-0.3 -2.2,-0.9c-0.6,-0.6 -0.9,-1.4 -0.9,-2.2l0,-4c0,-0.4 0.1,-0.8 0.2,-1.2c0.2,-0.4 0.4,-0.7 0.7,-1c0.3,-0.3 0.6,-0.5 1,-0.7c0.4,-0.2 0.8,-0.2 1.2,-0.2l11.8,0c0.4,0 0.8,0.1 1.2,0.2c0.4,0.2 0.7,0.4 1,0.7c0.3,0.3 0.5,0.6 0.7,1c0.2,0.4 0.2,0.8 0.2,1.2l0,0.8l-2.3,0l0,-0.8c0,-0.2 -0.1,-0.4 -0.3,-0.6c-0.2,-0.2 -0.4,-0.2 -0.6,-0.3l-11.7,0c-0.2,0 -0.4,0.1 -0.6,0.3c-0.2,0.2 -0.2,0.4 -0.3,0.6l0,4c0,0.2 0.1,0.4 0.3,0.6c0.2,0.2 0.4,0.2 0.6,0.2l11.8,0c0.8,0 1.6,0.3 2.2,0.9c0.6,0.6 0.9,1.4 0.9,2.2l0,4c0,0.4 -0.1,0.8 -0.2,1.2c-0.2,0.4 -0.4,0.7 -0.7,1c-0.3,0.3 -0.6,0.5 -1,0.7c-0.4,0.2 -0.8,0.2 -1.2,0.2zm-14.6,-3.6l0,0.6c0,0.4 0.1,0.7 0.2,1.1c0.1,0.3 0.3,0.7 0.6,0.9c0.3,0.3 0.6,0.5 0.9,0.6c0.3,0.1 0.7,0.2 1.1,0.2l11.8,0c0.4,0 0.7,-0.1 1.1,-0.2c0.3,-0.1 0.7,-0.3 0.9,-0.6c0.3,-0.3 0.5,-0.6 0.6,-0.9c0.1,-0.3 0.2,-0.7 0.2,-1.1l0,-4c0,-0.7 -0.3,-1.5 -0.8,-2c-0.5,-0.5 -1.2,-0.8 -2,-0.8l-11.8,0c-0.3,0 -0.6,-0.1 -0.8,-0.3c-0.2,-0.2 -0.3,-0.5 -0.3,-0.7l0,-4c0,-0.3 0.1,-0.6 0.3,-0.8c0.2,-0.2 0.5,-0.3 0.8,-0.3l11.8,0c0.3,0 0.6,0.1 0.8,0.3c0.2,0.2 0.3,0.5 0.3,0.8l0,0.5l1.7,0l0,-0.6c0,-0.4 -0.1,-0.7 -0.2,-1.1c-0.1,-0.3 -0.3,-0.7 -0.6,-0.9c-0.3,-0.3 -0.6,-0.5 -0.9,-0.6c-0.3,-0.1 -0.7,-0.2 -1.1,-0.2l-11.8,0c-0.4,0 -0.7,0.1 -1.1,0.2c-0.3,0.1 -0.7,0.3 -0.9,0.6c-0.3,0.3 -0.5,0.6 -0.6,0.9c-0.1,0.3 -0.2,0.7 -0.2,1.1l0,4c0,0.7 0.3,1.5 0.8,2c0.5,0.5 1.2,0.8 2,0.8l11.8,0c0.3,0 0.6,0.1 0.8,0.3c0.2,0.2 0.3,0.5 0.3,0.7l0,4c0,0.3 -0.1,0.6 -0.3,0.8c-0.2,0.2 -0.5,0.3 -0.8,0.3l-11.8,0c-0.3,0 -0.6,-0.1 -0.8,-0.3c-0.2,-0.2 -0.3,-0.5 -0.3,-0.8l0,-0.6l-1.7,0.1z"/>
   <path fill="lightgray" d="m177.2,126.5l-11.8,0c-0.4,0 -0.8,-0.1 -1.2,-0.2c-0.4,-0.2 -0.7,-0.4 -1,-0.7c-0.3,-0.3 -0.5,-0.6 -0.7,-1c-0.1,-0.4 -0.2,-0.8 -0.2,-1.2l0,-0.8l2.1,0l0,0.8c0,0.2 0.1,0.5 0.3,0.6c0.2,0.2 0.4,0.3 0.6,0.3l11.8,0c0.2,0 0.5,-0.1 0.6,-0.3c0.2,-0.2 0.3,-0.4 0.3,-0.6l0,-4c0,-0.2 -0.1,-0.5 -0.3,-0.6c-0.2,-0.2 -0.4,-0.3 -0.6,-0.3l-11.7,0c-0.8,0 -1.6,-0.3 -2.1,-0.9c-0.6,-0.6 -0.9,-1.3 -0.9,-2.1l0,-4c0,-0.4 0.1,-0.8 0.2,-1.2c0.2,-0.4 0.4,-0.7 0.7,-1c0.3,-0.3 0.6,-0.5 1,-0.7c0.4,-0.2 0.8,-0.2 1.2,-0.2l11.8,0c0.4,0 0.8,0.1 1.2,0.2c0.4,0.1 0.7,0.4 1,0.7c0.3,0.3 0.5,0.6 0.7,1c0.1,0.4 0.2,0.8 0.2,1.2l0,0.8l-2.1,0l0,-0.8c0,-0.2 -0.1,-0.5 -0.3,-0.6c-0.2,-0.2 -0.4,-0.3 -0.6,-0.3l-12,0c-0.2,0 -0.5,0.1 -0.6,0.3c-0.2,0.2 -0.3,0.4 -0.3,0.6l0,4c0,0.2 0.1,0.5 0.3,0.6c0.2,0.2 0.4,0.3 0.6,0.3l11.8,0c0.8,0 1.6,0.3 2.1,0.9c0.6,0.6 0.9,1.3 0.9,2.1l0,4c0,0.4 -0.1,0.8 -0.2,1.2c-0.1,0.4 -0.4,0.7 -0.7,1c-0.3,0.3 -0.6,0.5 -1,0.7c-0.3,0.1 -0.7,0.2 -1.1,0.2zm-14.7,-3.7l0,0.6c0,0.4 0.1,0.8 0.2,1.1c0.1,0.4 0.4,0.7 0.6,0.9c0.3,0.3 0.6,0.5 0.9,0.6c0.4,0.1 0.7,0.2 1.1,0.2l11.8,0c0.4,0 0.8,-0.1 1.1,-0.2c0.4,-0.1 0.7,-0.4 0.9,-0.6c0.3,-0.3 0.5,-0.6 0.6,-0.9s0.2,-0.7 0.2,-1.1l0,-4c0,-0.8 -0.3,-1.5 -0.8,-2c-0.5,-0.5 -1.3,-0.8 -2,-0.8l-11.7,0c-0.3,0 -0.5,-0.1 -0.7,-0.3c-0.2,-0.2 -0.3,-0.4 -0.3,-0.7l0,-4c0,-0.3 0.1,-0.5 0.3,-0.7c0.2,-0.2 0.4,-0.3 0.7,-0.3l11.8,0c0.3,0 0.5,0.1 0.7,0.3c0.2,0.2 0.3,0.4 0.3,0.7l0,0.6l1.9,0l0,-0.6c0,-0.4 -0.1,-0.8 -0.2,-1.1c-0.1,-0.4 -0.4,-0.7 -0.6,-0.9c-0.3,-0.3 -0.6,-0.5 -0.9,-0.6c-0.4,-0.1 -0.7,-0.2 -1.1,-0.2l-11.9,0c-0.4,0 -0.8,0.1 -1.1,0.2c-0.4,0.1 -0.7,0.4 -0.9,0.6c-0.3,0.3 -0.5,0.6 -0.6,0.9c-0.1,0.4 -0.2,0.7 -0.2,1.1l0,4c0,0.8 0.3,1.5 0.8,2c0.5,0.5 1.3,0.8 2,0.8l11.8,0c0.3,0 0.5,0.1 0.7,0.3c0.2,0.2 0.3,0.4 0.3,0.7l0,4c0,0.3 -0.1,0.5 -0.3,0.7c-0.2,0.2 -0.4,0.3 -0.7,0.3l-11.8,0c-0.3,0 -0.5,-0.1 -0.7,-0.3c-0.2,-0.2 -0.3,-0.4 -0.3,-0.7l0,-0.6l-1.9,0z"/>
   <path fill="lightgray" d="m177.2,126.6l-11.8,0c-0.4,0 -0.8,-0.1 -1.2,-0.2c-0.4,-0.2 -0.7,-0.4 -1,-0.7c-0.3,-0.3 -0.5,-0.6 -0.7,-1c-0.2,-0.4 -0.2,-0.8 -0.2,-1.2l0,-0.9l2.4,0l0,0.9c0,0.2 0.1,0.4 0.2,0.5c0.1,0.1 0.3,0.2 0.5,0.2l11.8,0c0.2,0 0.4,-0.1 0.5,-0.2c0.1,-0.1 0.2,-0.3 0.2,-0.5l0,-4c0,-0.2 -0.1,-0.4 -0.2,-0.5c-0.1,-0.1 -0.3,-0.2 -0.5,-0.2l-11.8,0c-0.8,0 -1.6,-0.3 -2.2,-0.9c-0.6,-0.6 -0.9,-1.4 -0.9,-2.2l0,-4c0,-0.4 0.1,-0.8 0.2,-1.2c0.2,-0.4 0.4,-0.7 0.7,-1c0.3,-0.3 0.6,-0.5 1,-0.7c0.4,-0.2 0.8,-0.2 1.2,-0.2l11.8,0c0.4,0 0.8,0.1 1.2,0.2c0.4,0.2 0.7,0.4 1,0.7c0.3,0.3 0.5,0.6 0.7,1c0.2,0.4 0.2,0.8 0.2,1.2l0,0.9l-2.4,0l0,-0.9c0,-0.2 -0.1,-0.4 -0.2,-0.5c-0.1,-0.1 -0.3,-0.2 -0.5,-0.2l-11.8,0c-0.2,0 -0.4,0.1 -0.5,0.2c-0.1,0.1 -0.2,0.3 -0.2,0.5l0,4c0,0.2 0.1,0.4 0.2,0.5c0.1,0.1 0.3,0.2 0.5,0.2l11.8,0c0.8,0 1.6,0.3 2.2,0.9c0.6,0.6 0.9,1.4 0.9,2.2l0,4c0,0.4 -0.1,0.8 -0.2,1.2c-0.2,0.4 -0.4,0.7 -0.7,1c-0.3,0.3 -0.6,0.5 -1,0.7c-0.4,0.1 -0.8,0.2 -1.2,0.2zm-14.5,-3.6l0,0.5c0,0.4 0.1,0.7 0.2,1.1c0.1,0.3 0.3,0.6 0.6,0.9c0.3,0.3 0.6,0.5 0.9,0.6c0.3,0.1 0.7,0.2 1.1,0.2l11.8,0c0.4,0 0.7,-0.1 1.1,-0.2c0.3,-0.1 0.6,-0.3 0.9,-0.6c0.3,-0.3 0.5,-0.6 0.6,-0.9c0.1,-0.3 0.2,-0.7 0.2,-1.1l0,-4c0,-0.7 -0.3,-1.4 -0.8,-1.9c-0.5,-0.5 -1.2,-0.8 -1.9,-0.8l-12,0c-0.3,0 -0.6,-0.1 -0.8,-0.3c-0.2,-0.2 -0.3,-0.5 -0.3,-0.8l0,-4c0,-0.3 0.1,-0.6 0.3,-0.8c0.2,-0.2 0.5,-0.3 0.8,-0.3l11.8,0c0.3,0 0.6,0.1 0.8,0.3c0.2,0.2 0.3,0.5 0.3,0.8l0,0.5l1.6,0l0,-0.5c0,-0.4 -0.1,-0.7 -0.2,-1.1c-0.1,-0.3 -0.3,-0.6 -0.6,-0.9c-0.3,-0.3 -0.6,-0.5 -0.9,-0.6c-0.3,-0.1 -0.7,-0.2 -1.1,-0.2l-11.7,0c-0.4,0 -0.7,0.1 -1.1,0.2c-0.3,0.1 -0.6,0.3 -0.9,0.6c-0.3,0.3 -0.5,0.6 -0.6,0.9c-0.1,0.3 -0.2,0.7 -0.2,1.1l0,4c0,0.7 0.3,1.4 0.8,1.9c0.5,0.5 1.2,0.8 1.9,0.8l11.8,0c0.3,0 0.6,0.1 0.8,0.3c0.2,0.2 0.3,0.5 0.3,0.8l0,4c0,0.3 -0.1,0.6 -0.3,0.8c-0.2,0.2 -0.5,0.3 -0.8,0.3l-11.7,0c-0.3,0 -0.6,-0.1 -0.8,-0.3c-0.2,-0.2 -0.3,-0.5 -0.3,-0.8l0,-0.5l-1.6,0z"/>
   <path fill="lightgray" d="m202.6,110.7l-14.1,0l0,5.9l11.3,0l0,2l-11.3,0l0,5.9l14.1,0l0,2l-16.1,0l0,-17.7l16.1,0l0,1.9z"/>
   <path fill="lightgray" d="m202.7,126.5l-16.3,0l0,-17.9l16.4,0l0,2.3l-14.2,0l0,5.6l11.4,0l0,2.3l-11.4,0l0,5.6l14.1,0l0,2.1zm-16.1,-0.2l15.9,0l0,-1.7l-14.1,0l0,-6.1l11.4,0l0,-1.8l-11.4,0l0,-6.1l14.1,0l0,-1.7l-15.9,0l0,17.4z"/>
   <path fill="lightgray" d="m202.7,126.5l-16.3,0l0,-17.8l16.3,0l0,2.1l-14.1,0l0,5.7l11.4,0l0,2.1l-11.4,0l0,5.7l14.2,0l0,2.2l-0.1,0zm-16.1,-0.2l16,0l0,-1.9l-14.2,0l0,-5.9l11.4,0l0,-1.9l-11.4,0l0,-6l14.1,0l0,-1.8l-16,0l0.1,17.5z"/>
   <path fill="lightgray" d="m202.8,126.6l-16.5,0l0,-18l16.5,0l0,2.4l-14.1,0l0,5.5l11.4,0l0,2.4l-11.4,0l0,5.5l14.1,0l0,2.2zm-16.1,-0.4l15.7,0l0,-1.6l-14.1,0l0,-6.2l11.4,0l0,-1.7l-11.4,0l0,-6.2l14.1,0l0,-1.6l-15.7,0l0,17.3z"/>
   <path fill="lightgray" d="m211.9,110.7c-0.3,0 -0.5,0.1 -0.7,0.3c-0.2,0.2 -0.3,0.4 -0.3,0.7l0,11.8c0,0.3 0.1,0.5 0.3,0.7c0.2,0.2 0.4,0.3 0.7,0.3l14.7,0l0,2l-14.7,0c-0.4,0 -0.8,-0.1 -1.1,-0.2c-0.4,-0.1 -0.7,-0.4 -1,-0.6c-0.3,-0.3 -0.5,-0.6 -0.6,-1c-0.1,-0.4 -0.2,-0.7 -0.2,-1.1l0,-11.8c0,-0.4 0.1,-0.8 0.2,-1.1c0.1,-0.4 0.4,-0.7 0.6,-1c0.3,-0.3 0.6,-0.5 1,-0.6c0.4,-0.1 0.7,-0.2 1.1,-0.2l14.7,0l0,2l-14.7,0l0,-0.2z"/>
   <path fill="lightgray" d="m226.7,126.5l-14.8,0c-0.4,0 -0.8,-0.1 -1.2,-0.2c-0.4,-0.2 -0.7,-0.4 -1,-0.7c-0.3,-0.3 -0.5,-0.6 -0.7,-1c-0.2,-0.4 -0.2,-0.8 -0.2,-1.2l0,-11.8c0,-0.4 0.1,-0.8 0.2,-1.2c0.2,-0.4 0.4,-0.7 0.7,-1c0.3,-0.3 0.6,-0.5 1,-0.7c0.4,-0.2 0.8,-0.2 1.2,-0.2l14.8,0l0,2.3l-14.8,0c-0.2,0 -0.4,0.1 -0.6,0.3c-0.2,0.2 -0.2,0.4 -0.3,0.6l0,11.8c0,0.2 0.1,0.4 0.3,0.6c0.2,0.2 0.4,0.2 0.6,0.3l14.8,0l0,2.1zm-14.8,-17.6c-0.4,0 -0.7,0.1 -1.1,0.2c-0.3,0.1 -0.7,0.3 -0.9,0.6c-0.3,0.3 -0.5,0.6 -0.6,0.9c-0.1,0.3 -0.2,0.7 -0.2,1.1l0,11.8c0,0.4 0.1,0.7 0.2,1.1c0.1,0.3 0.3,0.7 0.6,0.9c0.3,0.3 0.6,0.5 0.9,0.6c0.3,0.1 0.7,0.2 1.1,0.2l14.5,0l0,-1.7l-14.5,0c-0.3,0 -0.6,-0.1 -0.8,-0.3c-0.2,-0.2 -0.3,-0.5 -0.3,-0.8l0,-11.8c0,-0.3 0.1,-0.6 0.3,-0.8c0.2,-0.2 0.5,-0.3 0.8,-0.3l14.5,0l0,-1.7l-14.5,0z"/>
   <path fill="lightgray" d="m226.6,126.5l-14.7,0c-0.4,0 -0.8,-0.1 -1.2,-0.2c-0.4,-0.2 -0.7,-0.4 -1,-0.7c-0.3,-0.3 -0.5,-0.6 -0.7,-1c-0.1,-0.4 -0.2,-0.8 -0.2,-1.2l0,-11.8c0,-0.4 0.1,-0.8 0.2,-1.2c0.2,-0.4 0.4,-0.7 0.7,-1c0.3,-0.3 0.6,-0.5 1,-0.7c0.4,-0.1 0.8,-0.2 1.2,-0.2l14.7,0l0,2.1l-14.7,0c-0.2,0 -0.5,0.1 -0.6,0.3c-0.2,0.2 -0.3,0.4 -0.3,0.6l0,11.8c0,0.2 0.1,0.5 0.3,0.6c0.2,0.2 0.4,0.3 0.6,0.3l14.7,0l0,2.3zm-14.7,-17.7c-0.4,0 -0.8,0.1 -1.1,0.2c-0.4,0.1 -0.7,0.4 -0.9,0.6c-0.3,0.3 -0.5,0.6 -0.6,0.9c-0.1,0.4 -0.2,0.7 -0.2,1.1l0,11.8c0,0.4 0.1,0.8 0.2,1.1c0.1,0.4 0.4,0.7 0.6,0.9s0.6,0.5 0.9,0.6c0.4,0.1 0.7,0.2 1.1,0.2l14.6,0l0,-1.9l-14.6,0c-0.3,0 -0.5,-0.1 -0.7,-0.3c-0.2,-0.2 -0.3,-0.4 -0.3,-0.7l0,-11.8c0,-0.3 0.1,-0.5 0.3,-0.7c0.2,-0.2 0.4,-0.3 0.7,-0.3l14.6,0l0,-1.7l-14.6,0z"/>
   <path fill="lightgray" d="m226.7,126.6l-14.8,0c-0.4,0 -0.8,-0.1 -1.2,-0.2c-0.4,-0.2 -0.7,-0.4 -1,-0.7c-0.3,-0.3 -0.5,-0.6 -0.7,-1c-0.2,-0.4 -0.2,-0.8 -0.2,-1.2l0,-11.8c0,-0.4 0.1,-0.8 0.2,-1.2c0.2,-0.4 0.4,-0.7 0.7,-1c0.3,-0.3 0.6,-0.5 1,-0.7c0.4,-0.2 0.8,-0.2 1.2,-0.2l14.9,0l0,2.4l-14.9,0c-0.2,0 -0.4,0.1 -0.5,0.2c-0.1,0.1 -0.2,0.3 -0.2,0.5l0,11.8c0,0.2 0.1,0.4 0.2,0.5c0.1,0.1 0.3,0.2 0.5,0.2l14.9,0l0,2.4l-0.1,0zm-14.8,-17.7c-0.4,0 -0.7,0.1 -1.1,0.2c-0.3,0.1 -0.6,0.3 -0.9,0.6c-0.3,0.3 -0.5,0.6 -0.6,0.9c-0.1,0.3 -0.2,0.7 -0.2,1.1l0,11.8c0,0.4 0.1,0.7 0.2,1.1c0.1,0.3 0.3,0.6 0.6,0.9c0.3,0.3 0.6,0.5 0.9,0.6c0.3,0.1 0.7,0.2 1.1,0.2l14.5,0l0,-1.6l-14.5,0c-0.3,0 -0.6,-0.1 -0.8,-0.3c-0.2,-0.2 -0.3,-0.5 -0.3,-0.8l0,-11.8c0,-0.3 0.1,-0.6 0.3,-0.8c0.2,-0.2 0.5,-0.3 0.8,-0.3l14.5,0l0,-1.6l-14.5,0l0,-0.2z"/>
   <path fill="lightgray" d="m248.4,108.7l2,0l0,14.7c0,0.4 -0.1,0.8 -0.2,1.1c-0.1,0.4 -0.4,0.7 -0.6,1c-0.3,0.3 -0.6,0.5 -1,0.6c-0.4,0.1 -0.7,0.2 -1.1,0.2l-11.8,0c-0.4,0 -0.8,-0.1 -1.1,-0.2c-0.4,-0.1 -0.7,-0.4 -1,-0.6c-0.3,-0.3 -0.5,-0.6 -0.6,-1c-0.1,-0.4 -0.2,-0.7 -0.2,-1.1l0,-14.7l2,0l0,14.7c0,0.3 0.1,0.5 0.3,0.7c0.2,0.2 0.4,0.3 0.7,0.3l11.8,0c0.3,0 0.5,-0.1 0.7,-0.3c0.2,-0.2 0.3,-0.4 0.3,-0.7l0,-14.7l-0.2,0z"/>
   <path fill="lightgray" d="m247.5,126.5l-11.8,0c-0.4,0 -0.8,-0.1 -1.2,-0.2c-0.4,-0.2 -0.7,-0.4 -1,-0.7c-0.3,-0.3 -0.5,-0.6 -0.7,-1c-0.2,-0.4 -0.2,-0.8 -0.2,-1.2l0,-14.8l2.3,0l0,14.9c0,0.2 0.1,0.4 0.3,0.6c0.2,0.2 0.4,0.2 0.6,0.3l11.8,0c0.2,0 0.4,-0.1 0.6,-0.3c0.2,-0.2 0.2,-0.4 0.3,-0.6l0,-14.9l2.3,0l0,14.9c0,0.4 -0.1,0.8 -0.2,1.2c-0.2,0.4 -0.4,0.7 -0.7,1c-0.3,0.3 -0.6,0.5 -1,0.7c-0.6,0.1 -1,0.1 -1.4,0.1zm-14.6,-17.6l0,14.6c0,0.4 0.1,0.7 0.2,1.1c0.1,0.3 0.3,0.7 0.6,0.9c0.3,0.3 0.6,0.5 0.9,0.6c0.3,0.1 0.7,0.2 1.1,0.2l11.8,0c0.4,0 0.7,-0.1 1.1,-0.2c0.3,-0.1 0.7,-0.3 0.9,-0.6c0.3,-0.3 0.5,-0.6 0.6,-0.9c0.1,-0.3 0.2,-0.7 0.2,-1.1l0,-14.6l-1.7,0l0,14.6c0,0.3 -0.1,0.6 -0.3,0.8c-0.2,0.2 -0.5,0.3 -0.8,0.3l-11.8,0c-0.3,0 -0.6,-0.1 -0.8,-0.3c-0.2,-0.2 -0.3,-0.5 -0.3,-0.8l0,-14.6l-1.7,0z"/>
   <path fill="lightgray" d="m247.5,126.5l-11.8,0c-0.4,0 -0.8,-0.1 -1.2,-0.2c-0.4,-0.1 -0.7,-0.4 -1,-0.7c-0.3,-0.3 -0.5,-0.6 -0.7,-1c-0.1,-0.4 -0.2,-0.8 -0.2,-1.2l0,-14.8l2.1,0l0,14.8c0,0.2 0.1,0.5 0.3,0.6c0.2,0.2 0.4,0.3 0.6,0.3l11.8,0c0.2,0 0.5,-0.1 0.6,-0.3c0.2,-0.2 0.3,-0.4 0.3,-0.6l0,-14.8l2.1,0l0,14.8c0,0.4 -0.1,0.8 -0.2,1.2c-0.1,0.4 -0.4,0.7 -0.6,1c-0.3,0.3 -0.6,0.5 -1,0.7c-0.4,0.1 -0.8,0.2 -1.1,0.2zm-14.7,-17.7l0,14.7c0,0.4 0.1,0.8 0.2,1.1c0.1,0.4 0.4,0.7 0.6,0.9c0.3,0.3 0.6,0.5 0.9,0.6c0.4,0.1 0.7,0.2 1.1,0.2l11.8,0c0.4,0 0.8,-0.1 1.1,-0.2c0.4,-0.1 0.7,-0.4 0.9,-0.6c0.3,-0.3 0.5,-0.6 0.6,-0.9c0.1,-0.4 0.2,-0.7 0.2,-1.1l0,-14.7l-1.9,0l0,14.7c0,0.3 -0.1,0.5 -0.3,0.7c-0.2,0.2 -0.4,0.3 -0.7,0.3l-11.8,0c-0.3,0 -0.5,-0.1 -0.7,-0.3c-0.2,-0.2 -0.3,-0.4 -0.3,-0.7l0,-14.7l-1.7,0z"/>
   <path fill="lightgray" d="m247.5,126.6l-11.8,0c-0.4,0 -0.8,-0.1 -1.2,-0.2c-0.4,-0.2 -0.7,-0.4 -1,-0.7c-0.3,-0.3 -0.5,-0.6 -0.7,-1c-0.2,-0.4 -0.2,-0.8 -0.2,-1.2l0,-14.9l2.4,0l0,14.9c0,0.2 0.1,0.4 0.2,0.5c0.1,0.1 0.3,0.2 0.5,0.2l11.8,0c0.2,0 0.4,-0.1 0.5,-0.2c0.1,-0.1 0.2,-0.3 0.2,-0.5l0,-14.9l2.4,0l0,14.9c0,0.4 -0.1,0.8 -0.2,1.2c-0.2,0.4 -0.4,0.7 -0.7,1c-0.3,0.3 -0.6,0.5 -1,0.7c-0.4,0.1 -0.8,0.2 -1.2,0.2zm-14.6,-17.7l0,14.5c0,0.4 0.1,0.7 0.2,1.1c0.1,0.3 0.3,0.6 0.6,0.9c0.3,0.3 0.6,0.5 0.9,0.6s0.7,0.2 1.1,0.2l11.8,0c0.4,0 0.7,-0.1 1.1,-0.2c0.3,-0.1 0.6,-0.3 0.9,-0.6c0.3,-0.3 0.5,-0.6 0.6,-0.9c0.1,-0.3 0.2,-0.7 0.2,-1.1l0,-14.5l-1.6,0l0,14.5c0,0.3 -0.1,0.6 -0.3,0.8c-0.2,0.2 -0.5,0.3 -0.8,0.3l-11.8,0c-0.3,0 -0.6,-0.1 -0.8,-0.3c-0.2,-0.2 -0.3,-0.5 -0.3,-0.8l0,-14.5l-1.8,0z"/>
   <path fill="lightgray" d="m274.4,116.9c0,0.4 -0.1,0.8 -0.2,1.1c-0.1,0.4 -0.4,0.7 -0.6,1c-0.3,0.3 -0.6,0.5 -1,0.6c-0.4,0.1 -0.7,0.2 -1.1,0.2l-2.7,0l5.5,6.6l-2.6,0l-5.5,-6.6l-6.5,0c-0.3,0 -0.6,0 -1,-0.1l0,6.7l-2,0l0,-17.6l14.7,0c0.4,0 0.8,0.1 1.1,0.2c0.4,0.1 0.7,0.4 1,0.6c0.3,0.3 0.5,0.6 0.6,1c0.1,0.4 0.2,0.7 0.2,1.1l0.1,5.2zm-2.9,0.9c0.1,0 0.2,0 0.4,-0.1c0.1,0 0.2,-0.1 0.3,-0.2c0.1,-0.1 0.2,-0.2 0.2,-0.3c0,-0.1 0.1,-0.2 0.1,-0.4l0,-5.2c0,-0.2 -0.1,-0.5 -0.3,-0.7c-0.2,-0.2 -0.4,-0.3 -0.7,-0.3l-11.8,0c-0.3,0 -0.5,0.1 -0.7,0.3c-0.2,0.2 -0.3,0.4 -0.3,0.7l0,5.2c0,0.2 0.1,0.5 0.3,0.7c0.2,0.2 0.4,0.3 0.7,0.3l11.8,0z"/>
   <path fill="lightgray" d="m274.6,126.5l-3,0l-5.5,-6.6l-6.4,0c-0.3,0 -0.6,0 -0.8,-0.1l0,6.7l-2.3,0l0,-17.9l14.9,0c0.8,0 1.6,0.3 2.2,0.9c0.6,0.6 0.9,1.4 0.9,2.2l0,5.2c0,0.8 -0.3,1.6 -0.9,2.2c-0.6,0.6 -1.4,0.9 -2.2,0.9l-2.4,0l5.5,6.5zm-2.8,-0.2l2.3,0l-5.5,-6.6l3,0c0.7,0 1.5,-0.3 2,-0.8c0.5,-0.5 0.8,-1.2 0.8,-2l0,-5.2c0,-0.7 -0.3,-1.5 -0.8,-2c-0.5,-0.5 -1.2,-0.8 -2,-0.8l-14.6,0l0,17.4l1.7,0l0,-6.7l0.3,0c0.3,0 0.5,0.1 0.8,0.1l6.5,0l5.5,6.6zm-0.3,-8.3l-11.8,0c-0.3,0 -0.6,-0.1 -0.8,-0.3c-0.2,-0.2 -0.3,-0.5 -0.3,-0.7l0,-5.2c0,-0.3 0.1,-0.6 0.3,-0.8c0.2,-0.2 0.5,-0.3 0.8,-0.3l11.8,0c0.3,0 0.6,0.1 0.7,0.3c0.2,0.2 0.3,0.5 0.3,0.8l0,5.2c0,0.3 -0.1,0.5 -0.3,0.7c-0.2,0.1 -0.4,0.2 -0.7,0.3zm-11.8,-7.1c-0.2,0 -0.4,0.1 -0.6,0.3c-0.2,0.2 -0.2,0.4 -0.3,0.6l0,5.2c0,0.2 0.1,0.4 0.3,0.6c0.2,0.2 0.4,0.2 0.6,0.2l11.8,0c0.2,0 0.4,-0.1 0.6,-0.2c0.2,-0.2 0.2,-0.4 0.2,-0.6l0,-5.2c0,-0.2 -0.1,-0.4 -0.2,-0.6c-0.2,-0.2 -0.4,-0.2 -0.6,-0.3l-11.8,0z"/>
   <path fill="lightgray" d="m274.5,126.5l-2.8,0l0,0l-5.5,-6.6l-6.4,0c-0.3,0 -0.6,0 -0.8,-0.1l0,0l0,6.7l-2.1,0l0,-17.8l14.8,0c0.8,0 1.6,0.3 2.1,0.9c0.6,0.6 0.9,1.3 0.9,2.1l0,5.2c0,0.8 -0.3,1.6 -0.9,2.1c-0.6,0.6 -1.3,0.9 -2.1,0.9l-2.6,0l5.4,6.6zm-2.8,-0.2l2.5,0l-5.5,-6.6l2.8,0c0.8,0 1.5,-0.3 2,-0.8c0.5,-0.5 0.8,-1.3 0.8,-2l0,-5.2c0,-0.8 -0.3,-1.5 -0.8,-2c-0.5,-0.5 -1.3,-0.8 -2,-0.8l-14.7,0l0,17.5l1.9,0l0,-6.7l0.2,0c0.3,0 0.5,0.1 0.8,0.1l6.5,0l5.5,6.5zm-0.2,-8.4l-11.8,0c-0.3,0 -0.5,-0.1 -0.7,-0.3c-0.2,-0.2 -0.3,-0.4 -0.3,-0.7l0,-5.2c0,-0.3 0.1,-0.5 0.3,-0.7c0.2,-0.2 0.4,-0.3 0.7,-0.3l11.8,0c0.3,0 0.5,0.1 0.7,0.3c0.2,0.2 0.3,0.4 0.3,0.7l0,5.2c0,0.1 0,0.3 -0.1,0.4c-0.1,0.1 -0.1,0.2 -0.2,0.3c-0.1,0.1 -0.2,0.2 -0.3,0.2c-0.2,0.1 -0.3,0.1 -0.4,0.1zm-11.8,-7.1c-0.2,0 -0.5,0.1 -0.6,0.3c-0.2,0.2 -0.3,0.4 -0.3,0.6l0,5.2c0,0.2 0.1,0.5 0.3,0.6c0.2,0.2 0.4,0.3 0.6,0.3l11.8,0c0.2,0 0.5,-0.1 0.6,-0.3c0.2,-0.2 0.3,-0.4 0.3,-0.6l0,-5.2c0,-0.2 -0.1,-0.5 -0.3,-0.6c-0.2,-0.2 -0.4,-0.3 -0.6,-0.3l-11.8,0z"/>
   <path fill="lightgray" d="m274.7,126.6l-3.1,0l-5.5,-6.6l-6.4,0c-0.3,0 -0.5,0 -0.8,-0.1l0,6.6l-2.4,0l0,-18l14.9,0c0.8,0 1.6,0.3 2.2,0.9c0.6,0.6 0.9,1.4 0.9,2.2l0,5.2c0,0.8 -0.3,1.6 -0.9,2.2c-0.6,0.6 -1.4,0.9 -2.2,0.9l-2.3,0l5.6,6.7zm-2.9,-0.4l2.1,0l-5.5,-6.6l3.1,0c0.7,0 1.4,-0.3 1.9,-0.8c0.5,-0.5 0.8,-1.2 0.8,-1.9l0,-5.2c0,-0.7 -0.3,-1.4 -0.8,-1.9c-0.5,-0.5 -1.2,-0.8 -1.9,-0.8l-14.5,0l0,17.3l1.6,0l0,-6.7l0.3,0c0.3,0 0.5,0.1 0.8,0.1l6.6,0l0,0l5.5,6.5zm-0.3,-8.2l-11.8,0c-0.3,0 -0.6,-0.1 -0.8,-0.3c-0.2,-0.2 -0.3,-0.5 -0.3,-0.8l0,-5.2c0,-0.3 0.1,-0.6 0.3,-0.8c0.2,-0.2 0.5,-0.3 0.8,-0.3l11.8,0c0.3,0 0.6,0.1 0.8,0.3c0.2,0.2 0.3,0.5 0.3,0.8l0,5.2c0,0.3 -0.1,0.6 -0.3,0.8c-0.2,0.2 -0.5,0.3 -0.8,0.3zm-11.8,-7.1c-0.2,0 -0.4,0.1 -0.5,0.2c-0.1,0.1 -0.2,0.3 -0.2,0.5l0,5.2c0,0.2 0.1,0.4 0.2,0.5c0.1,0.1 0.3,0.2 0.5,0.2l11.8,0c0.2,0 0.4,-0.1 0.5,-0.2s0.2,-0.3 0.2,-0.5l0,-5.2c0,-0.2 -0.1,-0.4 -0.2,-0.5c-0.1,-0.1 -0.3,-0.2 -0.5,-0.2l-11.8,0z"/>
   <path fill="lightgray" d="m280.7,108.7l2,0l0,17.7l-2,0l0,-17.7z"/>
   <path fill="lightgray" d="m282.8,126.5l-2.3,0l0,-17.9l2.3,0l0,17.9zm-1.9,-0.2l1.7,0l0,-17.4l-1.7,0l0,17.4z"/>
   <path fill="lightgray" d="m282.8,126.5l-2.1,0l0,-17.8l2.1,0l0,17.8zm-2,-0.2l1.9,0l0,-17.5l-1.9,0l0,17.5z"/>
   <path fill="lightgray" d="m282.9,126.6l-2.4,0l0,-18l2.4,0l0,18zm-2,-0.4l1.6,0l0,-17.3l-1.6,0l0,17.3z"/>
   <path fill="lightgray" d="m306.6,108.7l0,2l-7.8,0l0,15.7l-2,0l0,-15.7l-7.9,0l0,-2l17.7,0z"/>
   <path fill="lightgray" d="m298.9,126.5l-2.3,0l0,-15.7l-7.8,0l0,-2.3l17.9,0l0,2.3l-7.8,0l0,15.7zm-2,-0.2l1.7,0l0,-15.7l7.8,0l0,-1.7l-17.4,0l0,1.7l7.9,0l0,15.7z"/>
   <path fill="lightgray" d="m298.8,126.5l-2.1,0l0,-15.7l-7.9,0l0,-2.1l17.8,0l0,2.1l-7.8,0l0,15.7zm-2,-0.2l1.9,0l0,-15.7l7.8,0l0,-1.8l-17.5,0l0,1.9l7.9,0l0,15.6l-0.1,0z"/>
   <path fill="lightgray" d="m298.9,126.6l-2.4,0l0,-15.7l-7.9,0l0,-2.4l18,0l0,2.4l-7.8,0l0,15.7l0.1,0zm-2,-0.4l1.6,0l0,-15.7l7.8,0l0,-1.6l-17.3,0l0,1.6l7.9,0l0,15.7z"/>
   <path fill="lightgray" d="m329.4,108.7l-8.1,11l0,6.7l-2,0l0,-6.6c-2.6,-3.6 -5.4,-7.4 -8.1,-11l2.3,0l6.8,8.6c2.1,-2.7 4.6,-5.9 6.8,-8.6l2.3,0l0,-0.1z"/>
   <path fill="lightgray" d="m321.4,126.5l-2.3,0l0,-6.7c-2.6,-3.6 -5.4,-7.3 -8,-10.9l-0.2,-0.3l2.6,0l6.8,8.6c1.7,-2.1 3.5,-4.5 5.3,-6.8l1.4,-1.8l2.6,0l-0.1,0.2l-8.1,11l0,6.7zm-2,-0.2l1.7,0l0,-6.6l0,0l8,-10.8l-2,0l-1.4,1.7c-1.8,2.3 -3.7,4.7 -5.4,6.9l-0.1,0.1l-6.9,-8.7l-2,0c2.7,3.6 5.4,7.3 8,10.8l0,0l0.1,6.6z"/>
   <path fill="lightgray" d="m321.3,126.5l-2.1,0l0,-6.7c-2.6,-3.6 -5.4,-7.3 -8.1,-10.9l-0.1,-0.2l2.4,0l0,0l6.8,8.6c1.7,-2.2 3.5,-4.5 5.3,-6.8l1.4,-1.8l2.5,0l-0.1,0.1l-8.1,11l0.1,6.7zm-2,-0.2l1.9,0l0,-6.6l8,-10.9l-2.2,0l-1.4,1.7c-1.8,2.3 -3.7,4.7 -5.4,6.9l0,0.1l-0.1,-0.1l-6.8,-8.6l-2.1,0c2.7,3.6 5.4,7.3 8,10.9l0.1,6.6z"/>
   <path fill="lightgray" d="m321.4,126.6l-2.4,0l0,-6.8c-2.5,-3.5 -5.1,-7 -8,-10.9l-0.3,-0.4l2.8,0l0,0l6.7,8.5c1.5,-1.9 3.1,-4 4.7,-6l2,-2.5l2.8,0l-8.3,11.3l0,6.8zm-2,-0.4l1.6,0l0,-6.5l0,0l7.9,-10.7l-1.9,0l-1.4,1.7c-2,2.5 -3.7,4.8 -5.4,6.9l-0.1,0.2l-0.1,-0.2l-6.8,-8.6l-1.8,0c2.5,3.4 5.3,7.2 7.9,10.7l0,0l0,0.1l0.1,6.4z"/>
   <path fill="lightgray" d="m345.9,108.7l2,0l0,15.7l15.7,0l0,2l-17.7,0l0,-17.7z"/>
   <path fill="lightgray" d="m363.7,126.5l-17.9,0l0,-17.9l2.3,0l0,15.7l15.7,0l-0.1,2.2zm-17.6,-0.2l17.4,0l0,-1.7l-15.7,0l0,-15.8l-1.7,0l0,17.5z"/>
   <path fill="lightgray" d="m363.7,126.5l-17.8,0l0,-17.8l2.1,0l0,15.7l15.7,0l0,2.1zm-17.7,-0.2l17.5,0l0,-1.9l-15.7,0l0,-15.6l-1.9,0l0,17.5l0.1,0z"/>
   <path fill="lightgray" d="m363.8,126.6l-18,0l0,-18.1l2.4,0l0,15.7l15.6,0l0,2.4zm-17.7,-0.4l17.3,0l0,-1.6l-15.7,0l0,-15.7l-1.6,0l0,17.3z"/>
   <path fill="lightgray" d="m384.9,110.7l-14.1,0l0,5.9l11.4,0l0,2l-11.4,0l0,5.9l14.1,0l0,2l-16.1,0l0,-17.7l16.1,0l0,1.9z"/>
   <path fill="lightgray" d="m385,126.5l-16.4,0l0,-17.9l16.4,0l0,2.3l-14.1,0l0,5.6l11.4,0l0,2.3l-11.4,0l0,5.6l14.1,0l0,2.1zm-16.1,-0.2l15.9,0l0,-1.7l-14.1,0l0,-6.1l11.4,0l0,-1.8l-11.4,0l0,-6.1l14.1,0l0,-1.7l-15.9,0l0,17.4z"/>
   <path fill="lightgray" d="m384.9,126.5l-16.2,0l0,-17.8l16.2,0l0,2.1l-14.1,0l0,5.7l11.4,0l0,2.1l-11.4,0l0,5.7l14.1,0l0,2.2zm-16.1,-0.2l16,0l0,-1.9l-14.1,0l0,-5.9l11.4,0l0,-1.9l-11.4,0l0,-6l14.1,0l0,-1.8l-16,0l0,17.5z"/>
   <path fill="lightgray" d="m385.1,126.6l-16.5,0l0,-18l16.5,0l0,2.4l-14.1,0l0,5.5l11.4,0l0,2.4l-11.4,0l0,5.5l14.1,0l0,2.2zm-16.2,-0.4l15.8,0l0,-1.6l-14.2,0l0,-6.2l11.4,0l0,-1.7l-11.4,0l0,-6.2l14.1,0l0,-1.6l-15.8,0l0.1,17.3z"/>
   <path fill="lightgray" d="m406,108.7c0.4,0 0.8,0.1 1.1,0.2s0.7,0.4 1,0.6c0.3,0.3 0.5,0.6 0.6,1c0.1,0.4 0.2,0.7 0.2,1.1l0,14.7l-2,0l0,-6.5l-13.7,0l0,6.5l-2,0l0,-14.7c0,-0.4 0.1,-0.8 0.2,-1.1c0.1,-0.4 0.4,-0.7 0.6,-1c0.3,-0.3 0.6,-0.5 1,-0.6c0.4,-0.1 0.7,-0.2 1.1,-0.2l11.9,0zm0.9,9.3l0,-6.3c0,-0.3 -0.1,-0.5 -0.3,-0.7c-0.2,-0.2 -0.4,-0.3 -0.7,-0.3l-11.8,0c-0.3,0 -0.5,0.1 -0.7,0.3c-0.2,0.2 -0.3,0.4 -0.3,0.7l0,6.3l13.8,0z"/>
   <path fill="lightgray" d="m409,126.5l-2.2,0l0,-6.5l-13.4,0l0,6.5l-2.3,0l0,-14.9c0,-0.4 0.1,-0.8 0.2,-1.2s0.4,-0.7 0.7,-1c0.3,-0.3 0.6,-0.5 1,-0.7c0.4,-0.2 0.8,-0.2 1.2,-0.2l11.8,0c0.4,0 0.8,0.1 1.2,0.2c0.4,0.2 0.7,0.4 1,0.7s0.5,0.6 0.7,1c0.2,0.4 0.2,0.8 0.2,1.2l-0.1,14.9zm-2,-0.2l1.7,0l0,-14.6c0,-0.4 -0.1,-0.7 -0.2,-1.1c-0.1,-0.3 -0.3,-0.7 -0.6,-0.9c-0.3,-0.3 -0.6,-0.5 -0.9,-0.6s-0.7,-0.2 -1.1,-0.2l-11.8,0c-0.4,0 -0.7,0.1 -1.1,0.2c-0.3,0.1 -0.7,0.3 -0.9,0.6c-0.3,0.3 -0.5,0.6 -0.6,0.9c-0.1,0.3 -0.2,0.7 -0.2,1.1l0,14.6l1.7,0l0,-6.5l13.9,0l0.1,6.5zm0,-8.2l-13.9,0l0,-6.4c0,-0.3 0.1,-0.6 0.3,-0.8c0.2,-0.2 0.5,-0.3 0.8,-0.3l11.8,0c0.3,0 0.6,0.1 0.8,0.3c0.2,0.2 0.3,0.5 0.3,0.8l-0.1,6.4zm-13.7,-0.3l13.5,0l0,-6.2c0,-0.2 -0.1,-0.4 -0.3,-0.6c-0.2,-0.2 -0.4,-0.2 -0.6,-0.3l-11.8,0c-0.2,0 -0.4,0.1 -0.6,0.3c-0.2,0.2 -0.2,0.4 -0.3,0.6l0.1,6.2z"/>
   <path fill="lightgray" d="m409,126.5l-2.2,0l0,-6.5l-13.6,0l0,6.5l-2.1,0l0,-14.8c0,-0.4 0.1,-0.8 0.2,-1.2c0.1,-0.4 0.4,-0.7 0.7,-1c0.3,-0.3 0.6,-0.5 1,-0.7s0.8,-0.2 1.2,-0.2l11.8,0c0.4,0 0.8,0.1 1.2,0.2c0.4,0.1 0.7,0.4 1,0.7c0.3,0.3 0.5,0.6 0.7,1c0.2,0.4 0.2,0.8 0.2,1.2l0,14.8l-0.1,0zm-2,-0.2l1.9,0l0,-14.7c0,-0.4 -0.1,-0.8 -0.2,-1.1c-0.1,-0.4 -0.4,-0.7 -0.6,-0.9c-0.3,-0.3 -0.6,-0.5 -0.9,-0.6s-0.7,-0.2 -1.1,-0.2l-11.8,0c-0.4,0 -0.8,0.1 -1.1,0.2c-0.4,0.1 -0.7,0.4 -0.9,0.6c-0.3,0.3 -0.5,0.6 -0.6,0.9c-0.1,0.4 -0.2,0.7 -0.2,1.1l0,14.7l1.9,0l0,-6.5l13.8,0l0,6.5l-0.2,0zm0,-8.3l-13.8,0l0,-6.3c0,-0.3 0.1,-0.5 0.3,-0.7c0.2,-0.2 0.4,-0.3 0.7,-0.3l11.8,0c0.3,0 0.5,0.1 0.7,0.3c0.2,0.2 0.3,0.4 0.3,0.7l0,6.3zm-13.7,-0.1l13.5,0l0,-6.2c0,-0.2 -0.1,-0.5 -0.3,-0.6c-0.2,-0.2 -0.4,-0.3 -0.6,-0.3l-11.8,0c-0.2,0 -0.5,0.1 -0.6,0.3c-0.2,0.2 -0.3,0.4 -0.3,0.6l0.1,6.2z"/>
   <path fill="lightgray" d="m409.1,126.6l-2.4,0l0,-6.5l-13.3,0l0,6.5l-2.4,0l0,-14.9c0,-0.4 0.1,-0.8 0.2,-1.2c0.2,-0.4 0.4,-0.7 0.7,-1c0.3,-0.3 0.6,-0.5 1,-0.7c0.4,-0.2 0.8,-0.2 1.2,-0.2l11.8,0c0.4,0 0.8,0.1 1.2,0.2c0.4,0.2 0.7,0.4 1,0.7c0.3,0.3 0.5,0.6 0.7,1c0.2,0.4 0.2,0.8 0.2,1.2l0.1,14.9zm-2,-0.4l1.6,0l0,-14.5c0,-0.4 -0.1,-0.7 -0.2,-1.1c-0.1,-0.3 -0.3,-0.6 -0.6,-0.9s-0.6,-0.5 -0.9,-0.6s-0.7,-0.2 -1.1,-0.2l-11.8,0c-0.4,0 -0.7,0.1 -1.1,0.2c-0.3,0.1 -0.6,0.3 -0.9,0.6s-0.5,0.6 -0.6,0.9c-0.1,0.3 -0.2,0.7 -0.2,1.1l0,14.5l1.6,0l0,-6.4l14.1,0l0,6.4l0.1,0zm0,-8l-14.1,0l0,-6.5c0,-0.3 0.1,-0.6 0.3,-0.8c0.2,-0.2 0.5,-0.3 0.8,-0.3l11.8,0c0.3,0 0.6,0.1 0.8,0.3c0.2,0.2 0.3,0.5 0.3,0.8l0,6.5l0.1,0zm-13.7,-0.4l13.3,0l0,-6.1c0,-0.2 -0.1,-0.4 -0.2,-0.5c-0.1,-0.1 -0.3,-0.2 -0.5,-0.2l-11.8,0c-0.2,0 -0.4,0.1 -0.5,0.2c-0.1,0.1 -0.2,0.3 -0.2,0.5l0,6.1l-0.1,0z"/>
   <path fill="lightgray" d="m430.2,108.7c0.4,0 0.8,0.1 1.1,0.2c0.4,0.1 0.7,0.4 1,0.6c0.3,0.3 0.5,0.6 0.6,1c0.1,0.4 0.2,0.7 0.2,1.1l0,11.8c0,0.4 -0.1,0.8 -0.2,1.1c-0.1,0.4 -0.4,0.7 -0.6,1c-0.3,0.3 -0.6,0.5 -1,0.6c-0.4,0.1 -0.7,0.2 -1.1,0.2l-14.7,0l0,-17.7l14.7,0l0,0.1zm0.9,3c0,-0.3 -0.1,-0.5 -0.3,-0.7c-0.2,-0.2 -0.4,-0.3 -0.7,-0.3l-11.8,0c-0.3,0 -0.5,0.1 -0.7,0.3c-0.2,0.2 -0.3,0.4 -0.3,0.7l0,11.8c0,0.3 0.1,0.5 0.3,0.7c0.2,0.2 0.4,0.3 0.7,0.3l11.8,0c0.3,0 0.5,-0.1 0.7,-0.3c0.2,-0.2 0.3,-0.4 0.3,-0.7l0,-11.8z"/>
   <path fill="lightgray" d="m430.2,126.5l-14.9,0l0,-17.9l14.9,0c0.4,0 0.8,0.1 1.2,0.2c0.4,0.2 0.7,0.4 1,0.7c0.3,0.3 0.5,0.6 0.7,1c0.2,0.4 0.2,0.8 0.2,1.2l0,11.8c0,0.4 -0.1,0.8 -0.2,1.2c-0.2,0.4 -0.4,0.7 -0.7,1c-0.3,0.3 -0.6,0.5 -1,0.7c-0.4,0.1 -0.8,0.1 -1.2,0.1zm-14.6,-0.2l14.6,0c0.4,0 0.7,-0.1 1.1,-0.2c0.3,-0.1 0.7,-0.3 0.9,-0.6c0.3,-0.3 0.5,-0.6 0.6,-0.9c0.1,-0.3 0.2,-0.7 0.2,-1.1l0,-11.8c0,-0.4 -0.1,-0.7 -0.2,-1.1c-0.1,-0.3 -0.3,-0.7 -0.6,-0.9c-0.3,-0.3 -0.6,-0.5 -0.9,-0.6c-0.3,-0.1 -0.7,-0.2 -1.1,-0.2l-14.6,0l0,17.4zm14.6,-1.7l-11.8,0c-0.3,0 -0.6,-0.1 -0.8,-0.3c-0.2,-0.2 -0.3,-0.5 -0.3,-0.8l0,-11.8c0,-0.3 0.1,-0.6 0.3,-0.8c0.2,-0.2 0.5,-0.3 0.8,-0.3l11.8,0c0.3,0 0.6,0.1 0.8,0.3c0.2,0.2 0.3,0.5 0.3,0.8l0,11.8c0,0.3 -0.1,0.6 -0.3,0.8c-0.3,0.1 -0.6,0.2 -0.8,0.3zm-11.8,-13.7c-0.2,0 -0.4,0.1 -0.6,0.3c-0.2,0.2 -0.2,0.4 -0.3,0.6l0,11.8c0,0.2 0.1,0.4 0.3,0.6c0.2,0.2 0.4,0.2 0.6,0.3l11.8,0c0.2,0 0.4,-0.1 0.6,-0.3c0.2,-0.2 0.2,-0.4 0.3,-0.6l0,-11.8c0,-0.2 -0.1,-0.4 -0.3,-0.6c-0.2,-0.2 -0.4,-0.2 -0.6,-0.3l-11.8,0z"/>
   <path fill="lightgray" d="m430.2,126.5l-14.8,0l0,-17.8l14.8,0c0.4,0 0.8,0.1 1.2,0.2c0.4,0.1 0.7,0.4 1,0.7c0.3,0.3 0.5,0.6 0.7,1c0.1,0.4 0.2,0.8 0.2,1.2l0,11.8c0,0.4 -0.1,0.8 -0.2,1.2c-0.1,0.4 -0.4,0.7 -0.7,1c-0.3,0.3 -0.6,0.5 -1,0.7c-0.5,-0.1 -0.9,0 -1.2,0zm-14.7,-0.2l14.7,0c0.4,0 0.8,-0.1 1.1,-0.2c0.4,-0.1 0.7,-0.4 0.9,-0.6c0.3,-0.3 0.5,-0.6 0.6,-0.9c0.1,-0.4 0.2,-0.7 0.2,-1.1l0,-11.8c0,-0.4 -0.1,-0.8 -0.2,-1.1c-0.1,-0.4 -0.4,-0.7 -0.6,-0.9c-0.3,-0.3 -0.6,-0.5 -0.9,-0.6c-0.4,-0.1 -0.7,-0.2 -1.1,-0.2l-14.7,0l0,17.4zm14.7,-1.8l-11.8,0c-0.3,0 -0.5,-0.1 -0.7,-0.3c-0.2,-0.2 -0.3,-0.4 -0.3,-0.7l0,-11.8c0,-0.3 0.1,-0.5 0.3,-0.7c0.2,-0.2 0.4,-0.3 0.7,-0.3l11.8,0c0.3,0 0.5,0.1 0.7,0.3c0.2,0.2 0.3,0.4 0.3,0.7l0,11.8c0,0.3 -0.1,0.5 -0.3,0.7c-0.2,0.2 -0.5,0.3 -0.7,0.3zm-11.8,-13.7c-0.2,0 -0.5,0.1 -0.6,0.3c-0.2,0.2 -0.3,0.4 -0.3,0.6l0,11.8c0,0.2 0.1,0.5 0.3,0.6c0.2,0.2 0.4,0.3 0.6,0.3l11.8,0c0.2,0 0.5,-0.1 0.6,-0.3c0.2,-0.2 0.3,-0.4 0.3,-0.6l0,-11.8c0,-0.2 -0.1,-0.5 -0.3,-0.6c-0.2,-0.2 -0.4,-0.3 -0.6,-0.3l-11.8,0z"/>
   <path fill="lightgray" d="m430.2,126.6l-14.9,0l0,-18l14.9,0c0.4,0 0.8,0.1 1.2,0.2c0.4,0.2 0.7,0.4 1,0.7c0.3,0.3 0.5,0.6 0.7,1c0.2,0.4 0.2,0.8 0.2,1.2l0,11.8c0,0.4 -0.1,0.8 -0.2,1.2c-0.2,0.4 -0.4,0.7 -0.7,1c-0.3,0.3 -0.6,0.5 -1,0.7s-0.8,0.2 -1.2,0.2zm-14.6,-0.4l14.5,0c0.4,0 0.7,-0.1 1.1,-0.2c0.3,-0.1 0.6,-0.3 0.9,-0.6c0.3,-0.3 0.5,-0.6 0.6,-0.9c0.1,-0.3 0.2,-0.7 0.2,-1.1l0,-11.8c0,-0.4 -0.1,-0.7 -0.2,-1.1c-0.1,-0.3 -0.3,-0.6 -0.6,-0.9c-0.3,-0.3 -0.6,-0.5 -0.9,-0.6s-0.7,-0.2 -1.1,-0.2l-14.5,0l0,17.4zm14.6,-1.6l-11.8,0c-0.3,0 -0.6,-0.1 -0.8,-0.3c-0.2,-0.2 -0.3,-0.5 -0.3,-0.8l0,-11.8c0,-0.3 0.1,-0.6 0.3,-0.8c0.2,-0.2 0.5,-0.3 0.8,-0.3l11.8,0c0.3,0 0.6,0.1 0.8,0.3c0.2,0.2 0.3,0.5 0.3,0.8l0,11.8c0,0.3 -0.1,0.6 -0.3,0.8c-0.3,0.2 -0.5,0.3 -0.8,0.3zm-11.8,-13.7c-0.2,0 -0.4,0.1 -0.5,0.2c-0.1,0.1 -0.2,0.3 -0.2,0.5l0,11.8c0,0.2 0.1,0.4 0.2,0.5c0.1,0.1 0.3,0.2 0.5,0.2l11.8,0c0.2,0 0.4,-0.1 0.5,-0.2c0.1,-0.1 0.2,-0.3 0.2,-0.5l0,-11.8c0,-0.2 -0.1,-0.4 -0.2,-0.5c-0.1,-0.1 -0.3,-0.2 -0.5,-0.2l-11.8,0z"/>
   <path fill="lightgray" d="m455.7,110.7l-14.1,0l0,5.9l11.4,0l0,2l-11.4,0l0,5.9l14.1,0l0,2l-16.1,0l0,-17.7l16.1,0l0,1.9z"/>
   <path fill="lightgray" d="m455.8,126.5l-16.4,0l0,-17.9l16.4,0l0,2.3l-14.1,0l0,5.6l11.4,0l0,2.3l-11.4,0l0,5.6l14.1,0l0,2.1zm-16.1,-0.2l15.9,0l0,-1.7l-14.1,0l0,-6.1l11.3,0l0,-1.8l-11.4,0l0,-6.1l14.1,0l0,-1.7l-15.9,0l0,17.4l0.1,0z"/>
   <path fill="lightgray" d="m455.8,126.5l-16.3,0l0,-17.8l16.3,0l0,2.1l-14.1,0l0,5.7l11.4,0l0,2.1l-11.4,0l0,5.7l14.1,0l0,2.2zm-16.2,-0.2l16,0l0,-1.9l-14.1,0l0,-5.9l11.4,0l0,-1.9l-11.4,0l0,-6l14.1,0l0,-1.8l-16,0l0,17.5z"/>
   <path fill="lightgray" d="m455.9,126.6l-16.5,0l0,-18l16.5,0l0,2.4l-14.1,0l0,5.5l11.4,0l0,2.4l-11.4,0l0,5.5l14.1,0l0,2.2zm-16.1,-0.4l15.8,0l0,-1.6l-14.1,0l0,-6.2l11.3,0l0,-1.7l-11.4,0l0,-6.2l14.1,0l0,-1.6l-15.7,0l0,17.3z"/>
   <path fill="lightgray" d="m479.6,116.9c0,0.4 -0.1,0.8 -0.2,1.1c-0.1,0.4 -0.4,0.7 -0.6,1c-0.3,0.3 -0.6,0.5 -1,0.6c-0.4,0.1 -0.7,0.2 -1.1,0.2l-2.7,0l5.5,6.6l-2.6,0l-5.5,-6.6l-6.5,0c-0.3,0 -0.6,0 -1,-0.1l0,6.7l-2,0l0,-17.6l14.7,0c0.4,0 0.8,0.1 1.1,0.2c0.4,0.1 0.7,0.4 1,0.6c0.3,0.3 0.5,0.6 0.6,1c0.1,0.4 0.2,0.7 0.2,1.1l0.1,5.2zm-2.9,0.9c0.2,0 0.5,-0.1 0.7,-0.3c0.2,-0.2 0.3,-0.4 0.3,-0.7l0,-5.2c0,-0.2 -0.1,-0.5 -0.3,-0.7c-0.2,-0.2 -0.4,-0.3 -0.7,-0.3l-11.8,0c-0.3,0 -0.5,0.1 -0.7,0.3c-0.2,0.2 -0.3,0.4 -0.3,0.7l0,5.2c0,0.2 0.1,0.5 0.3,0.7c0.2,0.2 0.4,0.3 0.7,0.3l11.8,0z"/>
   <path fill="lightgray" d="m479.8,126.5l-3,0l-5.5,-6.6l-6.4,0c-0.3,0 -0.6,0 -0.8,-0.1l0,6.7l-2.3,0l0,-17.9l14.9,0c0.8,0 1.6,0.3 2.2,0.9c0.6,0.6 0.9,1.4 0.9,2.2l0,5.2c0,0.8 -0.3,1.6 -0.9,2.2c-0.6,0.6 -1.4,0.9 -2.2,0.9l-2.4,0l5.5,6.5zm-2.8,-0.2l2.3,0l-5.5,-6.6l3,0c0.7,0 1.5,-0.3 2,-0.8c0.5,-0.5 0.8,-1.2 0.8,-2l0,-5.2c0,-0.7 -0.3,-1.5 -0.8,-2c-0.5,-0.5 -1.2,-0.8 -2,-0.8l-14.6,0l0,17.4l1.7,0l0,-6.7l0.3,0c0.3,0 0.5,0.1 0.8,0.1l6.5,0l5.5,6.6zm-0.3,-8.3l-11.8,0c-0.3,0 -0.6,-0.1 -0.8,-0.3c-0.2,-0.2 -0.3,-0.5 -0.3,-0.7l0,-5.2c0,-0.3 0.1,-0.6 0.3,-0.8c0.2,-0.2 0.5,-0.3 0.8,-0.3l11.8,0c0.3,0 0.6,0.1 0.8,0.3c0.2,0.2 0.3,0.5 0.3,0.8l0,5.2c0,0.3 -0.1,0.5 -0.3,0.7s-0.5,0.2 -0.8,0.3zm-11.8,-7.1c-0.2,0 -0.4,0.1 -0.6,0.3c-0.2,0.2 -0.2,0.4 -0.2,0.6l0,5.2c0,0.2 0.1,0.4 0.3,0.6c0.2,0.2 0.4,0.2 0.6,0.2l11.8,0c0.2,0 0.4,-0.1 0.6,-0.2c0.2,-0.2 0.2,-0.4 0.2,-0.6l0,-5.2c0,-0.2 -0.1,-0.4 -0.2,-0.6c-0.2,-0.2 -0.4,-0.2 -0.6,-0.3l-11.9,0z"/>
   <path fill="lightgray" d="m479.7,126.5l-2.8,0l0,0l-5.5,-6.6l-6.5,0c-0.3,0 -0.6,0 -0.8,-0.1l0,0l0,6.7l-2.1,0l0,-17.8l14.8,0c0.8,0 1.6,0.3 2.1,0.9c0.6,0.6 0.9,1.3 0.9,2.1l0,5.2c0,0.8 -0.3,1.6 -0.9,2.1c-0.6,0.6 -1.3,0.9 -2.1,0.9l-2.6,0l5.5,6.6zm-2.7,-0.2l2.5,0l-5.5,-6.6l2.8,0c0.8,0 1.5,-0.3 2,-0.8s0.8,-1.3 0.8,-2l0,-5.2c0,-0.8 -0.3,-1.5 -0.8,-2c-0.5,-0.5 -1.3,-0.8 -2,-0.8l-14.7,0l0,17.5l1.9,0l0,-6.7l0.2,0c0.3,0 0.6,0.1 0.8,0.1l6.5,0l5.5,6.5zm-0.3,-8.4l-11.8,0c-0.3,0 -0.5,-0.1 -0.7,-0.3c-0.2,-0.2 -0.3,-0.4 -0.3,-0.7l0,-5.2c0,-0.3 0.1,-0.5 0.3,-0.7s0.4,-0.3 0.7,-0.3l11.8,0c0.3,0 0.5,0.1 0.7,0.3c0.2,0.2 0.3,0.4 0.3,0.7l0,5.2c0,0.1 0,0.3 -0.1,0.4c-0.1,0.1 -0.1,0.2 -0.2,0.3s-0.2,0.2 -0.3,0.2c-0.1,0.1 -0.3,0.1 -0.4,0.1zm-11.8,-7.1c-0.2,0 -0.5,0.1 -0.6,0.3c-0.2,0.2 -0.3,0.4 -0.3,0.6l0,5.2c0,0.2 0.1,0.5 0.3,0.6c0.2,0.2 0.4,0.3 0.6,0.3l11.8,0c0.2,0 0.4,-0.1 0.6,-0.3c0.2,-0.2 0.3,-0.4 0.3,-0.6l0,-5.2c0,-0.2 -0.1,-0.5 -0.3,-0.6c-0.2,-0.2 -0.4,-0.3 -0.6,-0.3l-11.8,0z"/>
   <path fill="lightgray" d="m480,126.6l-3.2,0l-5.5,-6.6l-6.4,0c-0.3,0 -0.5,0 -0.8,-0.1l0,6.6l-2.3,0l0,-18l14.9,0c0.8,0 1.6,0.3 2.2,0.9c0.6,0.6 0.9,1.4 0.9,2.2l0,5.2c0,0.8 -0.3,1.6 -0.9,2.2c-0.6,0.6 -1.4,0.9 -2.2,0.9l-2.3,0l5.6,6.7zm-3,-0.4l2.1,0l-5.5,-6.6l3.1,0c0.7,0 1.4,-0.3 1.9,-0.8c0.5,-0.5 0.8,-1.2 0.8,-1.9l0,-5.2c0,-0.7 -0.3,-1.4 -0.8,-1.9c-0.5,-0.5 -1.2,-0.8 -1.9,-0.8l-14.5,0l0,17.3l1.6,0l0,-6.7l0.3,0c0.3,0 0.5,0.1 0.8,0.1l6.6,0l0,0l5.5,6.5zm-0.3,-8.2l-11.8,0c-0.3,0 -0.6,-0.1 -0.8,-0.3c-0.2,-0.2 -0.3,-0.5 -0.3,-0.8l0,-5.2c0,-0.3 0.1,-0.6 0.3,-0.8c0.2,-0.2 0.5,-0.3 0.8,-0.3l11.8,0c0.3,0 0.6,0.1 0.8,0.3c0.2,0.2 0.3,0.5 0.3,0.8l0,5.2c0,0.3 -0.1,0.6 -0.3,0.8c-0.2,0.2 -0.5,0.3 -0.8,0.3zm-11.8,-7.1c-0.2,0 -0.4,0.1 -0.5,0.2c-0.1,0.1 -0.2,0.3 -0.2,0.5l0,5.2c0,0.2 0.1,0.4 0.2,0.5c0.1,0.1 0.3,0.2 0.5,0.2l11.8,0c0.2,0 0.4,-0.1 0.5,-0.2c0.1,-0.1 0.2,-0.3 0.2,-0.5l0,-5.2c0,-0.2 -0.1,-0.4 -0.2,-0.5c-0.1,-0.1 -0.3,-0.2 -0.5,-0.2l-11.8,0z"/>
   <path fill="lightgray" d="m502.7,117.2c0.3,0.3 0.5,0.6 0.7,1c0.2,0.4 0.3,0.8 0.3,1.2l0,4.1c0,0.4 -0.1,0.8 -0.2,1.1c-0.1,0.4 -0.4,0.7 -0.6,1c-0.3,0.3 -0.6,0.5 -1,0.6c-0.4,0.1 -0.7,0.2 -1.1,0.2l-14.7,0l0,-17.7l14,0c0.4,0 0.8,0.1 1.1,0.2c0.4,0.1 0.7,0.4 1,0.6c0.3,0.3 0.5,0.6 0.6,1c0.1,0.4 0.2,0.7 0.2,1.1l0,3.8c0,0.5 -0.1,0.9 -0.3,1.3l0,0.5zm-13.7,-6.5c-0.3,0 -0.5,0.1 -0.7,0.3c-0.2,0.2 -0.3,0.4 -0.3,0.7l0,3.8c0,0.3 0.1,0.5 0.3,0.7c0.2,0.2 0.4,0.3 0.7,0.3l11,0c0.3,0 0.5,-0.1 0.7,-0.3c0.2,-0.2 0.3,-0.4 0.3,-0.7l0,-3.8c0,-0.2 -0.1,-0.5 -0.3,-0.7c-0.2,-0.2 -0.4,-0.3 -0.7,-0.3l-11,0zm12.7,8.6c0,-0.3 -0.1,-0.5 -0.3,-0.7c-0.2,-0.2 -0.4,-0.3 -0.7,-0.3l-11.8,0c-0.3,0 -0.5,0.1 -0.7,0.3c-0.2,0.2 -0.3,0.4 -0.3,0.7l0,4.1c0,0.3 0.1,0.5 0.3,0.7c0.2,0.2 0.4,0.3 0.7,0.3l11.8,0c0.3,0 0.5,-0.1 0.7,-0.3c0.2,-0.2 0.3,-0.4 0.3,-0.7l0,-4.1z"/>
   <path fill="lightgray" d="m500.7,126.5l-14.9,0l0,-17.9l14.1,0c0.4,0 0.8,0.1 1.2,0.2c0.4,0.2 0.7,0.4 1,0.7s0.5,0.6 0.7,1c0.2,0.4 0.2,0.8 0.2,1.2l0,3.8c0,0.5 -0.1,0.9 -0.3,1.3l0.1,0.3c0.3,0.3 0.6,0.6 0.7,1c0.2,0.4 0.3,0.8 0.3,1.2l0,4.1c0,0.4 -0.1,0.8 -0.2,1.2c-0.2,0.4 -0.4,0.7 -0.7,1c-0.3,0.3 -0.6,0.5 -1,0.7c-0.4,0.2 -0.8,0.2 -1.2,0.2zm-14.6,-0.2l14.6,0c0.4,0 0.7,-0.1 1.1,-0.2s0.7,-0.3 0.9,-0.6c0.3,-0.3 0.5,-0.6 0.6,-0.9c0.1,-0.3 0.2,-0.7 0.2,-1.1l0,-4.1c0,-0.4 -0.1,-0.8 -0.3,-1.1c-0.2,-0.4 -0.4,-0.7 -0.7,-1l0,0l-0.1,-0.5l0,0c0.2,-0.4 0.3,-0.8 0.3,-1.2l0,-3.8c0,-0.4 -0.1,-0.7 -0.2,-1.1c-0.1,-0.3 -0.3,-0.7 -0.6,-0.9c-0.3,-0.3 -0.6,-0.5 -0.9,-0.6c-0.3,-0.1 -0.7,-0.2 -1.1,-0.2l-13.8,0l0,17.3zm14.6,-1.8l-11.8,0c-0.3,0 -0.6,-0.1 -0.8,-0.3c-0.2,-0.2 -0.3,-0.5 -0.3,-0.8l0,-4.1c0,-0.3 0.1,-0.6 0.3,-0.8c0.2,-0.2 0.5,-0.3 0.8,-0.3l11.8,0c0.3,0 0.6,0.1 0.8,0.3c0.2,0.2 0.3,0.5 0.3,0.8l0,4.1c0,0.3 -0.1,0.6 -0.3,0.8c-0.2,0.2 -0.5,0.3 -0.8,0.3zm-11.8,-6c-0.2,0 -0.4,0.1 -0.6,0.2c-0.2,0.2 -0.2,0.4 -0.3,0.6l0,4.1c0,0.2 0.1,0.4 0.3,0.6c0.2,0.2 0.4,0.2 0.6,0.3l11.8,0c0.2,0 0.4,-0.1 0.6,-0.3c0.2,-0.2 0.2,-0.4 0.2,-0.6l0,-4.1c0,-0.2 -0.1,-0.4 -0.2,-0.6c-0.2,-0.2 -0.4,-0.2 -0.6,-0.3l-11.8,0l0,0.1zm11.1,-2l-11,0c-0.3,0 -0.6,-0.1 -0.8,-0.3c-0.2,-0.2 -0.3,-0.5 -0.3,-0.8l0,-3.8c0,-0.3 0.1,-0.6 0.3,-0.8c0.2,-0.2 0.5,-0.3 0.8,-0.3l11,0c0.3,0 0.5,0.1 0.7,0.3c0.2,0.2 0.3,0.5 0.3,0.8l0,3.8c0,0.3 -0.1,0.6 -0.3,0.8c-0.2,0.2 -0.5,0.3 -0.7,0.3zm-11.1,-5.6c-0.2,0 -0.4,0.1 -0.6,0.3c-0.2,0.2 -0.2,0.4 -0.3,0.6l0,3.8c0,0.2 0.1,0.4 0.3,0.6c0.2,0.2 0.4,0.2 0.6,0.3l11,0c0.2,0 0.4,-0.1 0.6,-0.3c0.1,-0.2 0.2,-0.4 0.2,-0.6l0,-3.8c0,-0.2 -0.1,-0.4 -0.2,-0.6c-0.2,-0.2 -0.4,-0.2 -0.6,-0.3l-11,0z"/>
   <path fill="lightgray" d="m500.7,126.5l-14.8,0l0,-17.8l14,0c0.4,0 0.8,0.1 1.2,0.2c0.4,0.2 0.7,0.4 1,0.7c0.3,0.3 0.5,0.6 0.7,1c0.2,0.4 0.2,0.8 0.2,1.2l0,3.8c0,0.5 -0.1,0.9 -0.3,1.3l0.1,0.4c0.3,0.3 0.6,0.6 0.7,1c0.2,0.4 0.3,0.8 0.3,1.2l0,4.1c0,0.4 -0.1,0.8 -0.2,1.2c-0.1,0.4 -0.4,0.7 -0.6,1c-0.3,0.3 -0.6,0.5 -1,0.7c-0.5,-0.1 -0.9,0 -1.3,0zm-14.6,-0.2l14.7,0c0.4,0 0.8,-0.1 1.1,-0.2s0.7,-0.4 0.9,-0.6c0.3,-0.3 0.5,-0.6 0.6,-0.9c0.1,-0.4 0.2,-0.7 0.2,-1.1l0,-4.1c0,-0.4 -0.1,-0.8 -0.3,-1.2c-0.2,-0.4 -0.4,-0.7 -0.7,-1l0,0l-0.1,-0.5l0,0c0.2,-0.4 0.3,-0.8 0.3,-1.3l0,-3.8c0,-0.4 -0.1,-0.8 -0.2,-1.1c-0.1,-0.4 -0.4,-0.7 -0.6,-0.9c-0.3,-0.3 -0.6,-0.5 -0.9,-0.6c-0.4,-0.1 -0.7,-0.2 -1.1,-0.2l-13.9,0l0,17.5zm14.6,-1.8l-11.8,0c-0.3,0 -0.5,-0.1 -0.7,-0.3c-0.2,-0.2 -0.3,-0.4 -0.3,-0.7l0,-4.1c0,-0.3 0.1,-0.5 0.3,-0.7c0.2,-0.2 0.4,-0.3 0.7,-0.3l11.8,0c0.3,0 0.5,0.1 0.7,0.3c0.2,0.2 0.3,0.4 0.3,0.7l0,4.1c0,0.3 -0.1,0.5 -0.3,0.7c-0.1,0.2 -0.4,0.3 -0.7,0.3zm-11.8,-6c-0.2,0 -0.5,0.1 -0.6,0.3c-0.2,0.2 -0.3,0.4 -0.3,0.6l0,4.1c0,0.2 0.1,0.5 0.3,0.6c0.2,0.2 0.4,0.3 0.6,0.3l11.8,0c0.2,0 0.5,-0.1 0.6,-0.3c0.2,-0.2 0.3,-0.4 0.3,-0.6l0,-4.1c0,-0.2 -0.1,-0.5 -0.3,-0.6c-0.2,-0.2 -0.4,-0.3 -0.6,-0.3l-11.8,0zm11.1,-2l-11,0c-0.3,0 -0.5,-0.1 -0.7,-0.3c-0.2,-0.2 -0.3,-0.4 -0.3,-0.7l0,-3.8c0,-0.3 0.1,-0.5 0.3,-0.7c0.2,-0.2 0.4,-0.3 0.7,-0.3l11,0c0.3,0 0.5,0.1 0.7,0.3c0.2,0.2 0.3,0.4 0.3,0.7l0,3.8c0,0.3 -0.1,0.5 -0.3,0.7c-0.2,0.1 -0.5,0.3 -0.7,0.3zm-11.1,-5.7c-0.2,0 -0.5,0.1 -0.6,0.3c-0.2,0.2 -0.3,0.4 -0.3,0.6l0,3.8c0,0.2 0.1,0.5 0.3,0.6c0.2,0.2 0.4,0.3 0.6,0.3l11,0c0.2,0 0.4,-0.1 0.6,-0.3c0.2,-0.2 0.3,-0.4 0.3,-0.6l0,-3.8c0,-0.2 -0.1,-0.5 -0.3,-0.6c-0.2,-0.2 -0.4,-0.3 -0.6,-0.3l-11,0z"/>
   <path fill="lightgray" d="m500.7,126.6l-14.9,0l0,-18l14.2,0c0.4,0 0.8,0.1 1.2,0.2c0.4,0.2 0.7,0.4 1,0.7c0.3,0.3 0.5,0.6 0.7,1c0.2,0.4 0.2,0.8 0.2,1.2l0,3.8c0,0.5 -0.1,0.9 -0.3,1.3l0.1,0.3c0.3,0.3 0.6,0.6 0.7,1c0.2,0.4 0.3,0.8 0.3,1.2l0,4.1c0,0.4 -0.1,0.8 -0.2,1.2c-0.2,0.4 -0.4,0.7 -0.7,1c-0.3,0.3 -0.6,0.5 -1,0.7c-0.4,0.2 -0.9,0.3 -1.3,0.3zm-14.5,-0.4l14.5,0c0.4,0 0.7,-0.1 1.1,-0.2c0.3,-0.1 0.6,-0.3 0.9,-0.6c0.3,-0.3 0.5,-0.6 0.6,-0.9c0.1,-0.3 0.2,-0.7 0.2,-1.1l0,-4.1c0,-0.4 -0.1,-0.8 -0.2,-1.1c-0.2,-0.4 -0.4,-0.7 -0.7,-0.9l0,0l0,0l-0.1,-0.5l0,0c0.2,-0.4 0.3,-0.8 0.3,-1.2l0,-3.8c0,-0.4 -0.1,-0.7 -0.2,-1.1c-0.1,-0.3 -0.3,-0.6 -0.6,-0.9c-0.3,-0.3 -0.6,-0.5 -0.9,-0.6c-0.3,-0.1 -0.7,-0.2 -1.1,-0.2l-13.8,0l0,17.2zm14.5,-1.6l-11.8,0c-0.3,0 -0.6,-0.1 -0.8,-0.3c-0.2,-0.2 -0.3,-0.5 -0.3,-0.8l0,-4.1c0,-0.3 0.1,-0.6 0.3,-0.8c0.2,-0.2 0.5,-0.3 0.8,-0.3l11.8,0c0.3,0 0.6,0.1 0.8,0.3c0.2,0.2 0.3,0.5 0.3,0.8l0,4.1c0,0.3 -0.1,0.6 -0.3,0.8c-0.2,0.2 -0.5,0.3 -0.8,0.3zm-11.8,-6c-0.2,0 -0.4,0.1 -0.5,0.2c-0.1,0.1 -0.2,0.3 -0.2,0.5l0,4.1c0,0.2 0.1,0.4 0.2,0.5c0.1,0.1 0.3,0.2 0.5,0.2l11.8,0c0.2,0 0.4,-0.1 0.5,-0.2c0.1,-0.1 0.2,-0.3 0.2,-0.5l0,-4.1c0,-0.2 -0.1,-0.4 -0.2,-0.5c-0.1,-0.1 -0.3,-0.2 -0.5,-0.2l-11.8,0zm11.1,-2l-11,0c-0.3,0 -0.6,-0.1 -0.8,-0.3c-0.2,-0.2 -0.3,-0.5 -0.3,-0.8l0,-3.8c0,-0.3 0.1,-0.6 0.3,-0.8c0.2,-0.2 0.5,-0.3 0.8,-0.3l11,0c0.3,0 0.6,0.1 0.8,0.3c0.2,0.2 0.3,0.5 0.3,0.8l0,3.8c0,0.3 -0.1,0.6 -0.3,0.8c-0.2,0.2 -0.5,0.3 -0.8,0.3zm-11.1,-5.7c-0.2,0 -0.4,0.1 -0.5,0.2c-0.1,0.1 -0.2,0.3 -0.2,0.5l0,3.8c0,0.2 0.1,0.4 0.2,0.5c0.1,0.1 0.3,0.2 0.5,0.2l11,0c0.2,0 0.4,-0.1 0.5,-0.2c0.1,-0.1 0.2,-0.3 0.2,-0.5l0,-3.8c0,-0.2 -0.1,-0.4 -0.2,-0.5c-0.1,-0.1 -0.3,-0.2 -0.5,-0.2l-11,0z"/>
   <path fill="lightgray" d="m524.7,108.7c0.4,0 0.8,0.1 1.1,0.2c0.4,0.1 0.7,0.4 1,0.6c0.3,0.3 0.5,0.6 0.6,1c0.1,0.4 0.2,0.7 0.2,1.1l0,11.8c0,0.4 -0.1,0.8 -0.2,1.1c-0.1,0.4 -0.4,0.7 -0.6,1c-0.3,0.3 -0.6,0.5 -1,0.6c-0.4,0.1 -0.7,0.2 -1.1,0.2l-11.8,0c-0.4,0 -0.8,-0.1 -1.1,-0.2c-0.4,-0.1 -0.7,-0.4 -1,-0.6c-0.3,-0.3 -0.5,-0.6 -0.6,-1c-0.1,-0.4 -0.2,-0.7 -0.2,-1.1l0,-11.8c0,-0.4 0.1,-0.8 0.2,-1.1c0.1,-0.4 0.4,-0.7 0.6,-1c0.3,-0.3 0.6,-0.5 1,-0.6c0.4,-0.1 0.7,-0.2 1.1,-0.2l11.8,0zm0,15.7c0.3,0 0.5,-0.1 0.7,-0.3c0.2,-0.2 0.3,-0.4 0.3,-0.7l0,-11.8c0,-0.3 -0.1,-0.5 -0.3,-0.7c-0.2,-0.2 -0.4,-0.3 -0.7,-0.3l-11.8,0c-0.3,0 -0.5,0.1 -0.7,0.3c-0.2,0.2 -0.3,0.4 -0.3,0.7l0,11.8c0,0.3 0.1,0.5 0.3,0.7c0.2,0.2 0.4,0.3 0.7,0.3l11.8,0z"/>
   <path fill="lightgray" d="m524.7,126.5l-11.8,0c-0.4,0 -0.8,-0.1 -1.2,-0.2s-0.7,-0.4 -1,-0.7c-0.3,-0.3 -0.5,-0.6 -0.7,-1c-0.2,-0.4 -0.2,-0.8 -0.2,-1.2l0,-11.8c0,-0.4 0.1,-0.8 0.2,-1.2c0.2,-0.4 0.4,-0.7 0.7,-1c0.3,-0.3 0.6,-0.5 1,-0.7c0.4,-0.2 0.8,-0.2 1.2,-0.2l11.8,0c0.4,0 0.8,0.1 1.2,0.2c0.4,0.2 0.7,0.4 1,0.7c0.3,0.3 0.5,0.6 0.7,1c0.2,0.4 0.2,0.8 0.2,1.2l0,11.8c0,0.4 -0.1,0.8 -0.2,1.2c-0.2,0.4 -0.4,0.7 -0.7,1c-0.3,0.3 -0.6,0.5 -1,0.7c-0.4,0.2 -0.8,0.2 -1.2,0.2zm-11.8,-17.6c-0.4,0 -0.7,0.1 -1.1,0.2c-0.3,0.1 -0.7,0.3 -0.9,0.6c-0.3,0.3 -0.5,0.6 -0.6,0.9c-0.1,0.3 -0.2,0.7 -0.2,1.1l0,11.8c0,0.4 0.1,0.7 0.2,1.1c0.1,0.3 0.3,0.7 0.6,0.9c0.3,0.3 0.6,0.5 0.9,0.6c0.3,0.1 0.7,0.2 1.1,0.2l11.8,0c0.4,0 0.7,-0.1 1.1,-0.2c0.3,-0.1 0.7,-0.3 0.9,-0.6c0.3,-0.3 0.5,-0.6 0.6,-0.9c0.1,-0.3 0.2,-0.7 0.2,-1.1l0,-11.8c0,-0.4 -0.1,-0.7 -0.2,-1.1c-0.1,-0.3 -0.3,-0.7 -0.6,-0.9c-0.3,-0.3 -0.6,-0.5 -0.9,-0.6c-0.3,-0.1 -0.7,-0.2 -1.1,-0.2l-11.8,0zm11.8,15.7l-11.8,0c-0.3,0 -0.6,-0.1 -0.8,-0.3c-0.2,-0.2 -0.3,-0.5 -0.3,-0.8l0,-11.8c0,-0.3 0.1,-0.6 0.3,-0.8c0.2,-0.2 0.5,-0.3 0.8,-0.3l11.8,0c0.3,0 0.6,0.1 0.8,0.3c0.2,0.2 0.3,0.5 0.3,0.8l0,11.8c0,0.3 -0.1,0.6 -0.3,0.8c-0.2,0.1 -0.5,0.2 -0.8,0.3zm-11.8,-13.7c-0.2,0 -0.4,0.1 -0.6,0.3c-0.2,0.2 -0.2,0.4 -0.3,0.6l0,11.8c0,0.2 0.1,0.4 0.3,0.6c0.2,0.2 0.4,0.2 0.6,0.3l11.8,0c0.2,0 0.4,-0.1 0.6,-0.3c0.2,-0.2 0.2,-0.4 0.3,-0.6l0,-11.8c0,-0.2 -0.1,-0.4 -0.3,-0.6c-0.2,-0.2 -0.4,-0.2 -0.6,-0.3l-11.8,0z"/>
   <path fill="lightgray" d="m524.7,126.5l-11.8,0c-0.4,0 -0.8,-0.1 -1.2,-0.2c-0.4,-0.2 -0.7,-0.4 -1,-0.7c-0.3,-0.3 -0.5,-0.6 -0.7,-1c-0.2,-0.4 -0.2,-0.8 -0.2,-1.2l0,-11.8c0,-0.4 0.1,-0.8 0.2,-1.2c0.1,-0.4 0.4,-0.7 0.7,-1c0.3,-0.3 0.6,-0.5 1,-0.7c0.4,-0.2 0.8,-0.2 1.2,-0.2l11.8,0c0.4,0 0.8,0.1 1.2,0.2c0.4,0.1 0.7,0.4 1,0.7c0.3,0.3 0.5,0.6 0.7,1c0.1,0.4 0.2,0.8 0.2,1.2l0,11.8c0,0.4 -0.1,0.8 -0.2,1.2c-0.2,0.4 -0.4,0.7 -0.7,1c-0.3,0.3 -0.6,0.5 -1,0.7c-0.4,0.1 -0.8,0.2 -1.2,0.2zm-11.8,-17.7c-0.4,0 -0.8,0.1 -1.1,0.2c-0.4,0.1 -0.7,0.4 -0.9,0.6c-0.3,0.3 -0.5,0.6 -0.6,0.9c-0.1,0.4 -0.2,0.7 -0.2,1.1l0,11.8c0,0.4 0.1,0.8 0.2,1.1c0.1,0.4 0.4,0.7 0.6,0.9c0.3,0.3 0.6,0.5 0.9,0.6c0.4,0.1 0.7,0.2 1.1,0.2l11.8,0c0.4,0 0.8,-0.1 1.1,-0.2c0.3,-0.1 0.7,-0.4 0.9,-0.6c0.3,-0.3 0.5,-0.6 0.6,-0.9c0.1,-0.4 0.2,-0.7 0.2,-1.1l0,-11.8c0,-0.4 -0.1,-0.8 -0.2,-1.1c-0.1,-0.4 -0.4,-0.7 -0.6,-0.9c-0.3,-0.3 -0.6,-0.5 -0.9,-0.6c-0.3,-0.1 -0.7,-0.2 -1.1,-0.2l-11.8,0zm11.8,15.7l-11.8,0c-0.3,0 -0.5,-0.1 -0.7,-0.3c-0.2,-0.2 -0.3,-0.4 -0.3,-0.7l0,-11.8c0,-0.3 0.1,-0.5 0.3,-0.7c0.2,-0.2 0.4,-0.3 0.7,-0.3l11.8,0c0.3,0 0.5,0.1 0.7,0.3c0.2,0.2 0.3,0.4 0.3,0.7l0,11.8c0,0.3 -0.1,0.5 -0.3,0.7c-0.2,0.2 -0.4,0.3 -0.7,0.3zm-11.8,-13.7c-0.2,0 -0.5,0.1 -0.6,0.3c-0.2,0.2 -0.3,0.4 -0.3,0.6l0,11.8c0,0.2 0.1,0.5 0.3,0.6c0.2,0.2 0.4,0.3 0.6,0.3l11.8,0c0.2,0 0.5,-0.1 0.6,-0.3c0.2,-0.2 0.3,-0.4 0.3,-0.6l0,-11.8c0,-0.2 -0.1,-0.5 -0.3,-0.6c-0.2,-0.2 -0.4,-0.3 -0.6,-0.3l-11.8,0z"/>
   <path fill="lightgray" d="m524.7,126.6l-11.8,0c-0.4,0 -0.8,-0.1 -1.2,-0.2c-0.4,-0.2 -0.7,-0.4 -1,-0.7c-0.3,-0.3 -0.5,-0.6 -0.7,-1c-0.2,-0.4 -0.2,-0.8 -0.2,-1.2l0,-11.8c0,-0.4 0.1,-0.8 0.2,-1.2c0.2,-0.4 0.4,-0.7 0.7,-1c0.3,-0.3 0.6,-0.5 1,-0.7c0.4,-0.2 0.8,-0.2 1.2,-0.2l11.8,0c0.4,0 0.8,0.1 1.2,0.2c0.4,0.2 0.7,0.4 1,0.7c0.3,0.3 0.5,0.6 0.7,1s0.2,0.8 0.2,1.2l0,11.8c0,0.4 -0.1,0.8 -0.2,1.2c-0.2,0.4 -0.4,0.7 -0.7,1c-0.3,0.3 -0.6,0.5 -1,0.7c-0.4,0.1 -0.8,0.2 -1.2,0.2zm-11.8,-17.7c-0.4,0 -0.7,0.1 -1.1,0.2c-0.3,0.1 -0.6,0.3 -0.9,0.6c-0.3,0.3 -0.5,0.6 -0.6,0.9c-0.1,0.3 -0.2,0.7 -0.2,1.1l0,11.8c0,0.4 0.1,0.7 0.2,1.1c0.1,0.3 0.3,0.6 0.6,0.9c0.3,0.3 0.6,0.5 0.9,0.6c0.3,0.1 0.7,0.2 1.1,0.2l11.8,0c0.4,0 0.7,-0.1 1.1,-0.2c0.3,-0.1 0.6,-0.3 0.9,-0.6c0.3,-0.3 0.5,-0.6 0.6,-0.9c0.1,-0.3 0.2,-0.7 0.2,-1.1l0,-11.8c0,-0.4 -0.1,-0.7 -0.2,-1.1c-0.1,-0.3 -0.3,-0.6 -0.6,-0.9c-0.3,-0.3 -0.6,-0.5 -0.9,-0.6c-0.3,-0.1 -0.7,-0.2 -1.1,-0.2l-11.8,0zm11.8,15.7l-11.8,0c-0.3,0 -0.6,-0.1 -0.8,-0.3c-0.2,-0.2 -0.3,-0.5 -0.3,-0.8l0,-11.8c0,-0.3 0.1,-0.6 0.3,-0.8c0.2,-0.2 0.5,-0.3 0.8,-0.3l11.8,0c0.3,0 0.6,0.1 0.8,0.3c0.2,0.2 0.3,0.5 0.3,0.8l0,11.8c0,0.3 -0.1,0.6 -0.3,0.8c-0.2,0.2 -0.5,0.3 -0.8,0.3zm-11.8,-13.7c-0.2,0 -0.4,0.1 -0.5,0.2c-0.1,0.1 -0.2,0.3 -0.2,0.5l0,11.8c0,0.2 0.1,0.4 0.2,0.5c0.1,0.1 0.3,0.2 0.5,0.2l11.8,0c0.2,0 0.4,-0.1 0.5,-0.2c0.1,-0.1 0.2,-0.3 0.2,-0.5l0,-11.8c0,-0.2 -0.1,-0.4 -0.2,-0.5c-0.1,-0.1 -0.3,-0.2 -0.5,-0.2l-11.8,0z"/>
   <path fill="lightgray" d="m548.8,108.7c0.4,0 0.8,0.1 1.1,0.2c0.4,0.1 0.7,0.4 1,0.6c0.3,0.3 0.5,0.6 0.6,1s0.2,0.7 0.2,1.1l0,14.7l-2,0l0,-6.5l-13.7,0l0,6.5l-2,0l0,-14.7c0,-0.4 0.1,-0.8 0.2,-1.1s0.4,-0.7 0.6,-1c0.3,-0.3 0.6,-0.5 1,-0.6c0.4,-0.1 0.7,-0.2 1.1,-0.2l11.9,0zm1,9.3l0,-6.3c0,-0.3 -0.1,-0.5 -0.3,-0.7c-0.2,-0.2 -0.4,-0.3 -0.7,-0.3l-11.8,0c-0.3,0 -0.5,0.1 -0.7,0.3c-0.2,0.2 -0.3,0.4 -0.3,0.7l0,6.3l13.8,0z"/>
   <path fill="lightgray" d="m551.9,126.5l-2.3,0l0,-6.5l-13.4,0l0,6.5l-2.3,0l0,-14.9c0,-0.4 0.1,-0.8 0.2,-1.2c0.2,-0.4 0.4,-0.7 0.7,-1c0.3,-0.3 0.6,-0.5 1,-0.7c0.4,-0.2 0.8,-0.2 1.2,-0.2l11.8,0c0.4,0 0.8,0.1 1.2,0.2c0.4,0.2 0.7,0.4 1,0.7c0.3,0.3 0.5,0.6 0.7,1c0.2,0.4 0.2,0.8 0.2,1.2l0,14.9zm-2,-0.2l1.7,0l0,-14.6c0,-0.4 -0.1,-0.7 -0.2,-1.1c-0.1,-0.3 -0.3,-0.7 -0.6,-0.9c-0.3,-0.3 -0.6,-0.5 -0.9,-0.6c-0.3,-0.1 -0.7,-0.2 -1.1,-0.2l-11.8,0c-0.4,0 -0.7,0.1 -1.1,0.2s-0.7,0.3 -0.9,0.6c-0.3,0.3 -0.5,0.6 -0.6,0.9c-0.1,0.3 -0.2,0.7 -0.2,1.1l0,14.6l1.7,0l0,-6.5l14,0l0,6.5zm0,-8.2l-14,0l0,-6.4c0,-0.3 0.1,-0.6 0.3,-0.8c0.2,-0.2 0.5,-0.3 0.8,-0.3l11.8,0c0.3,0 0.6,0.1 0.8,0.3c0.2,0.2 0.3,0.5 0.3,0.8l0,6.4zm-13.7,-0.3l13.4,0l0,-6.2c0,-0.2 -0.1,-0.4 -0.3,-0.6c-0.2,-0.2 -0.4,-0.2 -0.6,-0.3l-11.8,0c-0.2,0 -0.4,0.1 -0.6,0.3c-0.2,0.2 -0.2,0.4 -0.3,0.6l0,6.2l0.2,0z"/>
   <path fill="lightgray" d="m551.8,126.5l-2.1,0l0,-6.5l-13.6,0l0,6.5l-2.1,0l0,-14.8c0,-0.4 0.1,-0.8 0.2,-1.2c0.1,-0.4 0.4,-0.7 0.7,-1c0.3,-0.3 0.6,-0.5 1,-0.7c0.4,-0.2 0.8,-0.2 1.2,-0.2l11.7,0c0.4,0 0.8,0.1 1.2,0.2c0.4,0.1 0.7,0.4 1,0.7c0.3,0.3 0.5,0.6 0.7,1c0.1,0.4 0.2,0.8 0.2,1.2l0,14.8l-0.1,0zm-2,-0.2l1.9,0l0,-14.7c0,-0.4 -0.1,-0.8 -0.2,-1.1c-0.1,-0.4 -0.4,-0.7 -0.6,-0.9c-0.3,-0.3 -0.6,-0.5 -0.9,-0.6c-0.3,-0.1 -0.7,-0.2 -1.1,-0.2l-11.8,0c-0.4,0 -0.8,0.1 -1.1,0.2c-0.4,0.1 -0.7,0.4 -0.9,0.6c-0.3,0.3 -0.5,0.6 -0.6,0.9c-0.1,0.4 -0.2,0.7 -0.2,1.1l0,14.7l1.9,0l0,-6.5l13.6,0l0,6.5zm0,-8.3l-13.8,0l0,-6.3c0,-0.3 0.1,-0.5 0.3,-0.7c0.2,-0.2 0.4,-0.3 0.7,-0.3l11.8,0c0.3,0 0.5,0.1 0.7,0.3c0.2,0.2 0.3,0.4 0.3,0.7l0,6.3zm-13.7,-0.1l13.6,0l0,-6.2c0,-0.2 -0.1,-0.5 -0.3,-0.6c-0.2,-0.2 -0.4,-0.3 -0.6,-0.3l-11.8,0c-0.2,0 -0.5,0.1 -0.6,0.3c-0.2,0.2 -0.3,0.4 -0.3,0.6l0,6.2z"/>
   <path fill="lightgray" d="m551.9,126.6l-2.4,0l0,-6.5l-13.3,0l0,6.5l-2.4,0l0,-14.9c0,-0.4 0.1,-0.8 0.2,-1.2c0.2,-0.4 0.4,-0.7 0.7,-1c0.3,-0.3 0.6,-0.5 1,-0.7c0.4,-0.2 0.8,-0.2 1.2,-0.2l11.9,0c0.4,0 0.8,0.1 1.2,0.2c0.4,0.2 0.7,0.4 1,0.7c0.3,0.3 0.5,0.6 0.7,1c0.2,0.4 0.2,0.8 0.2,1.2l0,14.9zm-2,-0.4l1.6,0l0,-14.5c0,-0.4 -0.1,-0.7 -0.2,-1.1c-0.1,-0.3 -0.3,-0.6 -0.6,-0.9c-0.3,-0.3 -0.6,-0.5 -0.9,-0.6c-0.3,-0.1 -0.7,-0.2 -1.1,-0.2l-11.8,0c-0.4,0 -0.7,0.1 -1.1,0.2c-0.3,0.1 -0.6,0.3 -0.9,0.6c-0.3,0.3 -0.5,0.6 -0.6,0.9c-0.1,0.3 -0.2,0.7 -0.2,1.1l0,14.5l1.6,0l0,-6.4l14.1,0l0,6.4l0.1,0zm0,-8l-14.1,0l0,-6.5c0,-0.3 0.1,-0.6 0.3,-0.8c0.2,-0.2 0.5,-0.3 0.8,-0.3l11.9,0c0.3,0 0.6,0.1 0.8,0.3c0.2,0.2 0.3,0.5 0.3,0.8l0,6.5zm-13.6,-0.4l13.3,0l0,-6.1c0,-0.2 -0.1,-0.4 -0.2,-0.5c-0.1,-0.1 -0.3,-0.2 -0.5,-0.2l-11.8,0c-0.2,0 -0.4,0.1 -0.5,0.2c-0.1,0.1 -0.2,0.3 -0.2,0.5l0,6.1l-0.1,0z"/>
   <path fill="lightgray" d="m575.9,116.9c0,0.4 -0.1,0.8 -0.2,1.1c-0.2,0.4 -0.4,0.7 -0.6,1c-0.3,0.3 -0.6,0.5 -1,0.6c-0.4,0.1 -0.7,0.2 -1.1,0.2l-2.7,0l5.5,6.6l-2.6,0l-5.5,-6.6l-6.5,0c-0.3,0 -0.6,0 -1,-0.1l0,6.7l-2,0l0,-17.6l14.7,0c0.4,0 0.8,0.1 1.1,0.2c0.4,0.1 0.7,0.4 1,0.6c0.3,0.3 0.5,0.6 0.6,1c0.1,0.4 0.2,0.7 0.2,1.1l0.1,5.2zm-3,0.9c0.2,0 0.5,-0.1 0.7,-0.3c0.2,-0.2 0.3,-0.4 0.3,-0.7l0,-5.2c0,-0.2 -0.1,-0.5 -0.3,-0.7c-0.2,-0.2 -0.4,-0.3 -0.7,-0.3l-11.8,0c-0.3,0 -0.5,0.1 -0.7,0.3c-0.2,0.2 -0.3,0.4 -0.3,0.7l0,5.2c0,0.2 0.1,0.5 0.3,0.7c0.2,0.2 0.4,0.3 0.7,0.3l11.8,0z"/>
   <path fill="lightgray" d="m576,126.5l-3,0l-5.5,-6.6l-6.4,0c-0.3,0 -0.6,0 -0.8,-0.1l0,6.7l-2.3,0l0,-17.9l14.9,0c0.8,0 1.6,0.3 2.2,0.9c0.6,0.6 0.9,1.4 0.9,2.2l0,5.2c0,0.8 -0.3,1.6 -0.9,2.2c-0.6,0.6 -1.4,0.9 -2.2,0.9l-2.4,0l5.5,6.5zm-2.8,-0.2l2.3,0l-5.5,-6.6l3,0c0.7,0 1.5,-0.3 2,-0.8c0.5,-0.5 0.8,-1.2 0.8,-2l0,-5.2c0,-0.7 -0.3,-1.5 -0.8,-2c-0.5,-0.5 -1.2,-0.8 -2,-0.8l-14.6,0l0,17.4l1.7,0l0,-6.7l0.3,0c0.3,0 0.5,0.1 0.8,0.1l6.5,0l5.5,6.6zm-0.3,-8.3l-11.8,0c-0.3,0 -0.6,-0.1 -0.8,-0.3c-0.2,-0.2 -0.3,-0.5 -0.3,-0.7l0,-5.2c0,-0.3 0.1,-0.6 0.3,-0.8c0.2,-0.2 0.5,-0.3 0.8,-0.3l11.8,0c0.3,0 0.6,0.1 0.7,0.3c0.2,0.2 0.3,0.5 0.3,0.8l0,5.2c0,0.3 -0.1,0.5 -0.3,0.7s-0.4,0.2 -0.7,0.3zm-11.8,-7.1c-0.2,0 -0.4,0.1 -0.6,0.3c-0.2,0.2 -0.2,0.4 -0.2,0.6l0,5.2c0,0.2 0.1,0.4 0.3,0.6c0.2,0.2 0.4,0.2 0.6,0.2l11.8,0c0.2,0 0.4,-0.1 0.6,-0.2c0.2,-0.2 0.2,-0.4 0.2,-0.6l0,-5.2c0,-0.2 -0.1,-0.4 -0.2,-0.6c-0.2,-0.2 -0.4,-0.2 -0.6,-0.3l-11.9,0z"/>
   <path fill="lightgray" d="m575.9,126.5l-2.8,0l0,0l-5.5,-6.6l-6.4,0c-0.3,0 -0.6,0 -0.8,-0.1l0,0l0,6.7l-2.1,0l0,-17.8l14.8,0c0.8,0 1.6,0.3 2.1,0.9c0.6,0.6 0.9,1.3 0.9,2.1l0,5.2c0,0.8 -0.3,1.6 -0.9,2.1c-0.6,0.6 -1.3,0.9 -2.1,0.9l-2.6,0l5.4,6.6zm-2.7,-0.2l2.5,0l-5.5,-6.6l2.8,0c0.4,0 0.8,-0.1 1.1,-0.2c0.3,-0.1 0.7,-0.4 0.9,-0.6c0.3,-0.3 0.5,-0.6 0.6,-0.9c0.1,-0.3 0.2,-0.7 0.2,-1.1l0,-5.2c0,-0.8 -0.3,-1.5 -0.8,-2c-0.5,-0.5 -1.3,-0.8 -2,-0.8l-14.7,0l0,17.5l1.9,0l0,-6.7l0.2,0c0.3,0 0.6,0.1 0.8,0.1l6.5,0l5.5,6.5zm-0.3,-8.4l-11.8,0c-0.3,0 -0.5,-0.1 -0.7,-0.3c-0.2,-0.2 -0.3,-0.4 -0.3,-0.7l0,-5.2c0,-0.3 0.1,-0.5 0.3,-0.7c0.2,-0.2 0.4,-0.3 0.7,-0.3l11.8,0c0.3,0 0.5,0.1 0.7,0.3c0.2,0.2 0.3,0.4 0.3,0.7l0,5.2c0,0.1 0,0.3 -0.1,0.4c-0.1,0.1 -0.1,0.2 -0.2,0.3c-0.1,0.1 -0.2,0.2 -0.3,0.2c-0.1,0.1 -0.2,0.1 -0.4,0.1zm-11.8,-7.1c-0.2,0 -0.5,0.1 -0.6,0.3c-0.2,0.2 -0.3,0.4 -0.3,0.6l0,5.2c0,0.2 0.1,0.5 0.3,0.6c0.2,0.2 0.4,0.3 0.6,0.3l11.8,0c0.2,0 0.4,-0.1 0.6,-0.3c0.2,-0.2 0.3,-0.4 0.3,-0.6l0,-5.2c0,-0.2 -0.1,-0.5 -0.3,-0.6c-0.2,-0.2 -0.4,-0.3 -0.6,-0.3l-11.8,0z"/>
   <path fill="lightgray" d="m576.2,126.6l-3.1,0l-5.5,-6.6l-6.4,0c-0.3,0 -0.5,0 -0.8,-0.1l0,6.6l-2.4,0l0,-18l14.9,0c0.8,0 1.6,0.3 2.2,0.9c0.6,0.6 0.9,1.4 0.9,2.2l0,5.2c0,0.8 -0.3,1.6 -0.9,2.2c-0.6,0.6 -1.4,0.9 -2.2,0.9l-2.3,0l5.6,6.7zm-3,-0.4l2.1,0l-5.5,-6.6l3.1,0c0.7,0 1.4,-0.3 1.9,-0.8c0.5,-0.5 0.8,-1.2 0.8,-1.9l0,-5.2c0,-0.7 -0.3,-1.4 -0.8,-1.9c-0.5,-0.5 -1.2,-0.8 -2,-0.8l-14.5,0l0,17.3l1.6,0l0,-6.7l0.3,0c0.3,0 0.5,0.1 0.8,0.1l6.6,0l0,0l5.6,6.5zm-0.3,-8.2l-11.8,0c-0.3,0 -0.6,-0.1 -0.8,-0.3c-0.2,-0.2 -0.3,-0.5 -0.3,-0.8l0,-5.2c0,-0.3 0.1,-0.6 0.3,-0.8c0.2,-0.2 0.5,-0.3 0.8,-0.3l11.8,0c0.3,0 0.6,0.1 0.8,0.3c0.2,0.2 0.3,0.5 0.3,0.8l0,5.2c0,0.3 -0.1,0.6 -0.3,0.8c-0.2,0.2 -0.5,0.3 -0.8,0.3zm-11.8,-7.1c-0.2,0 -0.4,0.1 -0.5,0.2c-0.1,0.1 -0.2,0.3 -0.2,0.5l0,5.2c0,0.2 0.1,0.4 0.2,0.5c0.1,0.1 0.3,0.2 0.5,0.2l11.8,0c0.2,0 0.4,-0.1 0.5,-0.2c0.1,-0.1 0.2,-0.3 0.2,-0.5l0,-5.2c0,-0.2 -0.1,-0.4 -0.2,-0.5c-0.1,-0.1 -0.3,-0.2 -0.5,-0.2l-11.8,0z"/>
   <path fill="lightgray" d="m596.9,108.7c0.4,0 0.8,0.1 1.1,0.2c0.4,0.1 0.7,0.4 1,0.6c0.3,0.3 0.5,0.6 0.6,1c0.2,0.4 0.2,0.7 0.2,1.1l0,11.8c0,0.4 -0.1,0.8 -0.2,1.1c-0.1,0.4 -0.4,0.7 -0.6,1c-0.3,0.3 -0.6,0.5 -1,0.6c-0.4,0.1 -0.7,0.2 -1.1,0.2l-14.7,0l0,-17.7l14.7,0l0,0.1zm1,3c0,-0.3 -0.1,-0.5 -0.3,-0.7c-0.2,-0.2 -0.4,-0.3 -0.7,-0.3l-11.8,0c-0.3,0 -0.5,0.1 -0.7,0.3c-0.2,0.2 -0.3,0.4 -0.3,0.7l0,11.8c0,0.3 0.1,0.5 0.3,0.7c0.2,0.2 0.4,0.3 0.7,0.3l11.8,0c0.3,0 0.5,-0.1 0.7,-0.3c0.2,-0.2 0.3,-0.4 0.3,-0.7l0,-11.8z"/>
   <path fill="lightgray" d="m596.9,126.5l-14.9,0l0,-17.9l14.9,0c0.4,0 0.8,0.1 1.2,0.2c0.4,0.2 0.7,0.4 1,0.7c0.3,0.3 0.5,0.6 0.7,1c0.2,0.4 0.2,0.8 0.2,1.2l0,11.8c0,0.4 -0.1,0.8 -0.2,1.2c-0.2,0.4 -0.4,0.7 -0.7,1c-0.3,0.3 -0.6,0.5 -1,0.7c-0.4,0.1 -0.8,0.1 -1.2,0.1zm-14.6,-0.2l14.6,0c0.4,0 0.7,-0.1 1.1,-0.2c0.3,-0.1 0.7,-0.3 0.9,-0.6c0.3,-0.3 0.5,-0.6 0.6,-0.9c0.1,-0.3 0.2,-0.7 0.2,-1.1l0,-11.8c0,-0.4 -0.1,-0.7 -0.2,-1.1c-0.1,-0.3 -0.3,-0.7 -0.6,-0.9c-0.3,-0.3 -0.6,-0.5 -0.9,-0.6c-0.3,-0.1 -0.7,-0.2 -1.1,-0.2l-14.6,0l0,17.4zm14.6,-1.7l-11.8,0c-0.3,0 -0.6,-0.1 -0.8,-0.3c-0.2,-0.2 -0.3,-0.5 -0.3,-0.8l0,-11.8c0,-0.3 0.1,-0.6 0.3,-0.8c0.2,-0.2 0.5,-0.3 0.8,-0.3l11.8,0c0.3,0 0.6,0.1 0.8,0.3c0.2,0.2 0.3,0.5 0.3,0.8l0,11.8c0,0.3 -0.1,0.6 -0.3,0.8c-0.2,0.1 -0.5,0.2 -0.8,0.3zm-11.8,-13.7c-0.2,0 -0.4,0.1 -0.6,0.3c-0.2,0.2 -0.2,0.4 -0.3,0.6l0,11.8c0,0.2 0.1,0.4 0.3,0.6c0.2,0.2 0.4,0.2 0.6,0.3l11.8,0c0.2,0 0.4,-0.1 0.6,-0.3c0.2,-0.2 0.2,-0.4 0.3,-0.6l0,-11.8c0,-0.2 -0.1,-0.4 -0.3,-0.6c-0.2,-0.2 -0.4,-0.2 -0.6,-0.3l-11.8,0z"/>
   <path fill="lightgray" d="m596.9,126.5l-14.8,0l0,-17.8l14.8,0c0.4,0 0.8,0.1 1.2,0.2c0.4,0.1 0.7,0.4 1,0.7c0.3,0.3 0.5,0.6 0.7,1c0.2,0.4 0.2,0.8 0.2,1.2l0,11.8c0,0.4 -0.1,0.8 -0.2,1.2c-0.1,0.4 -0.4,0.7 -0.7,1c-0.3,0.3 -0.6,0.5 -1,0.7c-0.4,-0.1 -0.8,0 -1.2,0zm-14.6,-0.2l14.7,0c0.4,0 0.8,-0.1 1.1,-0.2c0.4,-0.1 0.7,-0.4 0.9,-0.6c0.3,-0.3 0.5,-0.6 0.6,-0.9c0.1,-0.4 0.2,-0.7 0.2,-1.1l0,-11.8c0,-0.4 -0.1,-0.8 -0.2,-1.1c-0.1,-0.4 -0.4,-0.7 -0.6,-0.9c-0.3,-0.3 -0.6,-0.5 -0.9,-0.6c-0.3,-0.1 -0.7,-0.2 -1.1,-0.2l-14.7,0l0,17.4zm14.6,-1.8l-11.8,0c-0.3,0 -0.5,-0.1 -0.7,-0.3c-0.2,-0.2 -0.3,-0.4 -0.3,-0.7l0,-11.8c0,-0.3 0.1,-0.5 0.3,-0.7c0.2,-0.2 0.5,-0.3 0.7,-0.3l11.8,0c0.3,0 0.5,0.1 0.7,0.3c0.2,0.2 0.3,0.4 0.3,0.7l0,11.8c0,0.3 -0.1,0.5 -0.3,0.7c-0.2,0.2 -0.4,0.3 -0.7,0.3zm-11.8,-13.7c-0.2,0 -0.5,0.1 -0.6,0.3c-0.2,0.2 -0.3,0.4 -0.3,0.6l0,11.8c0,0.2 0.1,0.5 0.3,0.6c0.2,0.2 0.4,0.3 0.6,0.3l11.8,0c0.2,0 0.5,-0.1 0.6,-0.3c0.2,-0.2 0.3,-0.4 0.3,-0.6l0,-11.8c0,-0.2 -0.1,-0.5 -0.3,-0.6c-0.2,-0.2 -0.4,-0.3 -0.6,-0.3l-11.8,0z"/>
   <path fill="lightgray" d="m596.9,126.6l-14.9,0l0,-18l14.9,0c0.4,0 0.8,0.1 1.2,0.2c0.4,0.2 0.7,0.4 1,0.7c0.3,0.3 0.5,0.6 0.7,1c0.2,0.4 0.2,0.8 0.2,1.2l0,11.8c0,0.4 -0.1,0.8 -0.2,1.2c-0.2,0.4 -0.4,0.7 -0.7,1c-0.3,0.3 -0.6,0.5 -1,0.7c-0.4,0.1 -0.8,0.2 -1.2,0.2zm-14.5,-0.4l14.5,0c0.4,0 0.7,-0.1 1.1,-0.2c0.3,-0.1 0.6,-0.3 0.9,-0.6c0.3,-0.3 0.5,-0.6 0.6,-0.9c0.1,-0.3 0.2,-0.7 0.2,-1.1l0,-11.8c0,-0.4 -0.1,-0.7 -0.2,-1.1c-0.1,-0.3 -0.3,-0.6 -0.6,-0.9c-0.3,-0.3 -0.6,-0.5 -0.9,-0.6c-0.3,-0.1 -0.7,-0.2 -1.1,-0.2l-14.5,0l0,17.4zm14.5,-1.6l-11.8,0c-0.3,0 -0.6,-0.1 -0.8,-0.3c-0.2,-0.2 -0.3,-0.5 -0.3,-0.8l0,-11.8c0,-0.3 0.1,-0.6 0.3,-0.8c0.2,-0.2 0.5,-0.3 0.8,-0.3l11.8,0c0.3,0 0.6,0.1 0.8,0.3c0.2,0.2 0.3,0.5 0.3,0.8l0,11.8c0,0.3 -0.1,0.6 -0.3,0.8c-0.2,0.2 -0.5,0.3 -0.8,0.3zm-11.8,-13.7c-0.2,0 -0.4,0.1 -0.5,0.2c-0.1,0.1 -0.2,0.3 -0.2,0.5l0,11.8c0,0.2 0.1,0.4 0.2,0.5c0.1,0.1 0.3,0.2 0.5,0.2l11.8,0c0.2,0 0.4,-0.1 0.5,-0.2c0.1,-0.1 0.2,-0.3 0.2,-0.5l0,-11.8c0,-0.2 -0.1,-0.4 -0.2,-0.5c-0.1,-0.1 -0.3,-0.2 -0.5,-0.2l-11.8,0z"/>
  </g>
 </g>

</svg>