<?xml version="1.0" encoding="UTF-8"?>
<svg xmlns="http://www.w3.org/2000/svg" xmlns:xlink="http://www.w3.org/1999/xlink" viewBox="0 0 16 16" width="16px" height="16px">
<g id="surface309068791">
<path style=" stroke:none;fill-rule:nonzero;fill:rgb(100%,100%,100%);fill-opacity:1;" d="M 13.320312 3.445312 C 12.046875 2.421875 10.03125 2.246094 9.945312 2.242188 C 9.8125 2.230469 9.683594 2.304688 9.628906 2.429688 C 9.625 2.4375 9.578125 2.539062 9.53125 2.695312 C 10.375 2.835938 11.410156 3.125 12.34375 3.703125 C 12.496094 3.796875 12.542969 3.996094 12.449219 4.144531 C 12.386719 4.242188 12.285156 4.296875 12.175781 4.296875 C 12.117188 4.296875 12.058594 4.28125 12.007812 4.25 C 10.398438 3.25 8.386719 3.199219 8 3.199219 C 7.613281 3.199219 5.601562 3.25 3.992188 4.25 C 3.84375 4.34375 3.644531 4.296875 3.550781 4.144531 C 3.457031 3.996094 3.503906 3.796875 3.65625 3.703125 C 4.589844 3.125 5.625 2.835938 6.46875 2.695312 C 6.421875 2.539062 6.375 2.4375 6.371094 2.429688 C 6.316406 2.304688 6.191406 2.226562 6.054688 2.242188 C 5.96875 2.246094 3.953125 2.421875 2.664062 3.460938 C 1.988281 4.082031 0.640625 7.730469 0.640625 10.878906 C 0.640625 10.9375 0.65625 10.988281 0.683594 11.039062 C 1.613281 12.671875 4.152344 13.101562 4.730469 13.121094 C 4.734375 13.121094 4.734375 13.121094 4.738281 13.121094 C 4.84375 13.121094 4.9375 13.070312 5 12.988281 L 5.582031 12.183594 C 4.003906 11.777344 3.199219 11.082031 3.152344 11.042969 C 3.019531 10.925781 3.007812 10.722656 3.125 10.589844 C 3.242188 10.457031 3.445312 10.445312 3.578125 10.5625 C 3.59375 10.578125 5.078125 11.839844 8 11.839844 C 10.925781 11.839844 12.410156 10.574219 12.425781 10.5625 C 12.558594 10.449219 12.757812 10.457031 12.875 10.59375 C 12.992188 10.726562 12.980469 10.925781 12.847656 11.042969 C 12.800781 11.082031 11.996094 11.777344 10.417969 12.183594 L 11 12.988281 C 11.0625 13.070312 11.15625 13.121094 11.261719 13.121094 C 11.265625 13.121094 11.265625 13.121094 11.269531 13.121094 C 11.847656 13.101562 14.386719 12.671875 15.316406 11.039062 C 15.34375 10.988281 15.359375 10.9375 15.359375 10.878906 C 15.359375 7.730469 14.011719 4.082031 13.320312 3.445312 Z M 5.921875 9.601562 C 5.300781 9.601562 4.800781 9.027344 4.800781 8.320312 C 4.800781 7.613281 5.300781 7.039062 5.921875 7.039062 C 6.539062 7.039062 7.039062 7.613281 7.039062 8.320312 C 7.039062 9.027344 6.539062 9.601562 5.921875 9.601562 Z M 10.078125 9.601562 C 9.460938 9.601562 8.960938 9.027344 8.960938 8.320312 C 8.960938 7.613281 9.460938 7.039062 10.078125 7.039062 C 10.699219 7.039062 11.199219 7.613281 11.199219 8.320312 C 11.199219 9.027344 10.699219 9.601562 10.078125 9.601562 Z M 10.078125 9.601562 "/>
</g>
</svg>
