<svg width="204" height="204" viewBox="0 0 204 204" fill="none" xmlns="http://www.w3.org/2000/svg">
<path d="M187.639 69.9021C193.092 67.8586 199.226 70.6143 200.696 76.2484C206.238 97.4863 204.802 120.051 196.436 140.546C186.737 164.31 168.435 183.543 145.182 194.409C121.928 205.275 95.4333 206.975 70.9821 199.169C46.5309 191.364 25.9211 174.628 13.2642 152.299C0.607315 129.97 -3.16619 103.69 2.69649 78.7016C8.55917 53.7134 23.627 31.854 44.8941 17.4842C66.1612 3.1144 92.0641 -2.70939 117.435 1.17465C139.317 4.52445 159.415 14.8827 174.791 30.5466C178.869 34.702 178.083 41.3805 173.529 45.009C168.975 48.6374 162.385 47.8272 158.195 43.7832C146.212 32.2155 130.877 24.5642 114.244 22.0179C94.1181 18.9368 73.5701 23.5566 56.6994 34.9558C39.8288 46.355 27.8758 63.6955 23.2251 83.518C18.5744 103.34 21.5679 124.188 31.6082 141.901C41.6486 159.614 57.9979 172.89 77.3943 179.082C96.7908 185.274 117.809 183.925 136.255 175.305C154.701 166.686 169.219 151.429 176.914 132.578C183.273 116.999 184.584 99.9117 180.815 83.688C179.497 78.0164 182.187 71.9457 187.639 69.9021Z" fill="url(#paint0_linear_0_1)"/>
<path d="M49.0312 97.4659H44.7699C44.7131 97.0284 44.5966 96.6335 44.4205 96.2812C44.2443 95.929 44.0114 95.6278 43.7216 95.3778C43.4318 95.1278 43.0881 94.9375 42.6903 94.8068C42.2983 94.6705 41.8636 94.6023 41.3864 94.6023C40.5398 94.6023 39.8097 94.8097 39.196 95.2244C38.5881 95.6392 38.1193 96.2386 37.7898 97.0227C37.4659 97.8068 37.304 98.7557 37.304 99.8693C37.304 101.028 37.4688 102 37.7983 102.784C38.1335 103.563 38.6023 104.151 39.2045 104.548C39.8125 104.94 40.5313 105.136 41.3608 105.136C41.8267 105.136 42.25 105.077 42.6307 104.957C43.017 104.838 43.3551 104.665 43.6449 104.438C43.9403 104.205 44.1818 103.923 44.3693 103.594C44.5625 103.259 44.696 102.881 44.7699 102.46L49.0312 102.486C48.9574 103.259 48.733 104.02 48.358 104.77C47.9886 105.52 47.4801 106.205 46.8324 106.824C46.1847 107.438 45.3949 107.926 44.4631 108.29C43.5369 108.653 42.4744 108.835 41.2756 108.835C39.696 108.835 38.2813 108.489 37.0313 107.795C35.7869 107.097 34.804 106.08 34.0824 104.744C33.3608 103.409 33 101.784 33 99.8693C33 97.9489 33.3665 96.321 34.0994 94.9858C34.8324 93.6506 35.8239 92.6364 37.0739 91.9432C38.3239 91.25 39.7244 90.9034 41.2756 90.9034C42.3324 90.9034 43.3097 91.0511 44.2074 91.3466C45.1051 91.6364 45.8949 92.0625 46.5767 92.625C47.2585 93.1818 47.8125 93.8665 48.2386 94.679C48.6648 95.4915 48.929 96.4205 49.0312 97.4659Z" fill="white"/>
<path d="M57.5561 108.844C56.1811 108.844 54.9993 108.563 54.0107 108C53.0277 107.432 52.2692 106.642 51.7351 105.631C51.2067 104.614 50.9425 103.435 50.9425 102.094C50.9425 100.747 51.2067 99.5682 51.7351 98.5568C52.2692 97.5398 53.0277 96.75 54.0107 96.1875C54.9993 95.6193 56.1811 95.3352 57.5561 95.3352C58.9311 95.3352 60.1101 95.6193 61.093 96.1875C62.0817 96.75 62.8402 97.5398 63.3686 98.5568C63.9027 99.5682 64.1697 100.747 64.1697 102.094C64.1697 103.435 63.9027 104.614 63.3686 105.631C62.8402 106.642 62.0817 107.432 61.093 108C60.1101 108.563 58.9311 108.844 57.5561 108.844ZM57.5817 105.699C58.0817 105.699 58.505 105.545 58.8516 105.239C59.1982 104.932 59.4624 104.506 59.6442 103.96C59.8317 103.415 59.9254 102.784 59.9254 102.068C59.9254 101.341 59.8317 100.705 59.6442 100.159C59.4624 99.6136 59.1982 99.1875 58.8516 98.8807C58.505 98.5739 58.0817 98.4205 57.5817 98.4205C57.0646 98.4205 56.6271 98.5739 56.2692 98.8807C55.9169 99.1875 55.647 99.6136 55.4595 100.159C55.2777 100.705 55.1868 101.341 55.1868 102.068C55.1868 102.784 55.2777 103.415 55.4595 103.96C55.647 104.506 55.9169 104.932 56.2692 105.239C56.6271 105.545 57.0646 105.699 57.5817 105.699Z" fill="white"/>
<path d="M66.3047 108.597V95.5057H70.2678V97.9091H70.4126C70.6854 97.1136 71.1456 96.4858 71.7933 96.0256C72.4411 95.5653 73.2138 95.3352 74.1115 95.3352C75.0206 95.3352 75.799 95.5682 76.4467 96.0341C77.0945 96.5 77.5064 97.125 77.6825 97.9091H77.8189C78.0632 97.1307 78.5405 96.5085 79.2507 96.0426C79.9609 95.571 80.799 95.3352 81.7649 95.3352C83.0036 95.3352 84.0092 95.733 84.782 96.5284C85.5547 97.3182 85.9411 98.4034 85.9411 99.7841V108.597H81.7734V100.739C81.7734 100.085 81.6058 99.5881 81.2706 99.2472C80.9354 98.9006 80.5007 98.7273 79.9666 98.7273C79.3928 98.7273 78.9411 98.9148 78.6115 99.2898C78.2876 99.6591 78.1257 100.156 78.1257 100.781V108.597H74.12V100.696C74.12 100.088 73.9553 99.608 73.6257 99.2557C73.2962 98.9034 72.8615 98.7273 72.3217 98.7273C71.9581 98.7273 71.6371 98.8153 71.3587 98.9915C71.0803 99.1619 70.8615 99.4063 70.7024 99.7244C70.549 100.043 70.4723 100.418 70.4723 100.849V108.597H66.3047Z" fill="white"/>
<path d="M88.5234 108.597V95.5057H92.4865V97.9091H92.6314C92.9041 97.1136 93.3643 96.4858 94.0121 96.0256C94.6598 95.5653 95.4325 95.3352 96.3303 95.3352C97.2393 95.3352 98.0178 95.5682 98.6655 96.0341C99.3132 96.5 99.7251 97.125 99.9013 97.9091H100.038C100.282 97.1307 100.759 96.5085 101.469 96.0426C102.18 95.571 103.018 95.3352 103.984 95.3352C105.222 95.3352 106.228 95.733 107.001 96.5284C107.773 97.3182 108.16 98.4034 108.16 99.7841V108.597H103.992V100.739C103.992 100.085 103.825 99.5881 103.489 99.2472C103.154 98.9006 102.719 98.7273 102.185 98.7273C101.612 98.7273 101.16 98.9148 100.83 99.2898C100.506 99.6591 100.344 100.156 100.344 100.781V108.597H96.3388V100.696C96.3388 100.088 96.174 99.608 95.8445 99.2557C95.5149 98.9034 95.0803 98.7273 94.5405 98.7273C94.1768 98.7273 93.8558 98.8153 93.5774 98.9915C93.299 99.1619 93.0803 99.4063 92.9212 99.7244C92.7678 100.043 92.6911 100.418 92.6911 100.849V108.597H88.5234Z" fill="white"/>
<path d="M119.188 102.946V95.5057H123.347V108.597H119.376V106.159H119.239C118.95 106.96 118.455 107.597 117.756 108.068C117.063 108.534 116.225 108.767 115.242 108.767C114.35 108.767 113.566 108.563 112.89 108.153C112.214 107.744 111.688 107.173 111.313 106.44C110.938 105.702 110.748 104.838 110.742 103.849V95.5057H114.91V103.031C114.915 103.741 115.103 104.301 115.472 104.71C115.842 105.119 116.344 105.324 116.981 105.324C117.396 105.324 117.768 105.233 118.097 105.051C118.433 104.864 118.697 104.594 118.89 104.241C119.089 103.884 119.188 103.452 119.188 102.946Z" fill="white"/>
<path d="M130.168 101.131V108.597H126V95.5057H129.963V97.9091H130.108C130.398 97.108 130.892 96.4801 131.591 96.0256C132.29 95.5653 133.122 95.3352 134.088 95.3352C135.009 95.3352 135.807 95.5426 136.483 95.9574C137.165 96.3665 137.693 96.9403 138.068 97.679C138.449 98.4119 138.636 99.2699 138.631 100.253V108.597H134.463V101.071C134.469 100.344 134.284 99.7756 133.909 99.3665C133.54 98.9574 133.026 98.7528 132.366 98.7528C131.929 98.7528 131.543 98.8494 131.207 99.0426C130.878 99.2301 130.622 99.5 130.44 99.8523C130.264 100.205 130.173 100.631 130.168 101.131Z" fill="white"/>
<path d="M141.211 108.597V95.5057H145.379V108.597H141.211ZM143.299 93.9801C142.714 93.9801 142.211 93.7869 141.79 93.4006C141.37 93.0085 141.16 92.5369 141.16 91.9858C141.16 91.4403 141.37 90.9744 141.79 90.5881C142.211 90.196 142.714 90 143.299 90C143.89 90 144.393 90.196 144.808 90.5881C145.228 90.9744 145.438 91.4403 145.438 91.9858C145.438 92.5369 145.228 93.0085 144.808 93.4006C144.393 93.7869 143.89 93.9801 143.299 93.9801Z" fill="white"/>
<path d="M155.42 95.5057V98.5739H147.162V95.5057H155.42ZM148.892 92.3693H153.06V104.48C153.06 104.736 153.099 104.943 153.179 105.102C153.264 105.256 153.386 105.366 153.545 105.435C153.705 105.497 153.895 105.528 154.116 105.528C154.276 105.528 154.443 105.514 154.619 105.486C154.801 105.452 154.938 105.423 155.028 105.401L155.659 108.409C155.46 108.466 155.179 108.537 154.815 108.622C154.457 108.707 154.028 108.761 153.528 108.784C152.551 108.83 151.713 108.716 151.014 108.443C150.321 108.165 149.79 107.733 149.42 107.148C149.057 106.563 148.881 105.827 148.892 104.94V92.3693Z" fill="white"/>
<path d="M160.095 113.506C159.595 113.506 159.124 113.466 158.68 113.386C158.237 113.313 157.857 113.213 157.538 113.088L158.459 110.063C158.868 110.199 159.237 110.278 159.567 110.301C159.902 110.324 160.189 110.27 160.428 110.139C160.672 110.014 160.859 109.79 160.99 109.466L161.152 109.074L156.499 95.5057H160.862L163.274 104.847H163.411L165.857 95.5057H170.246L165.311 109.849C165.072 110.565 164.734 111.196 164.297 111.741C163.865 112.293 163.305 112.724 162.618 113.037C161.936 113.349 161.095 113.506 160.095 113.506Z" fill="white"/>
<defs>
<linearGradient id="paint0_linear_0_1" x1="-12.4348" y1="91.2145" x2="228.124" y2="92.098" gradientUnits="userSpaceOnUse">
<stop stop-color="#AA367C"/>
<stop offset="1" stop-color="#4A2FBD"/>
</linearGradient>
</defs>
</svg>
