<svg width="204" height="204" viewBox="0 0 204 204" fill="none" xmlns="http://www.w3.org/2000/svg">
<path d="M187.639 69.9021C193.092 67.8586 199.226 70.6143 200.696 76.2484C206.238 97.4863 204.802 120.051 196.436 140.546C186.737 164.31 168.435 183.543 145.182 194.409C121.928 205.275 95.4333 206.975 70.9821 199.169C46.5309 191.364 25.9211 174.628 13.2642 152.299C0.60733 129.97 -3.16618 103.69 2.6965 78.7016C8.55918 53.7134 23.627 31.854 44.8941 17.4842C66.1612 3.1144 92.0641 -2.70939 117.435 1.17465C139.317 4.52445 159.415 14.8827 174.791 30.5466C178.869 34.702 178.083 41.3805 173.529 45.009C168.975 48.6374 162.385 47.8272 158.195 43.7832C146.212 32.2155 130.877 24.5642 114.244 22.0179C94.1181 18.9368 73.5701 23.5566 56.6994 34.9558C39.8288 46.355 27.8758 63.6955 23.2251 83.518C18.5744 103.34 21.5679 124.188 31.6082 141.901C41.6486 159.614 57.9979 172.89 77.3943 179.082C96.7908 185.274 117.809 183.925 136.255 175.305C154.701 166.686 169.219 151.429 176.914 132.578C183.273 116.999 184.584 99.9117 180.815 83.688C179.497 78.0164 182.187 71.9457 187.639 69.9021Z" fill="url(#paint0_linear_0_1)"/>
<path d="M44 110.455V93H48.2188V100.006H55.0966V93H59.3068V110.455H55.0966V103.44H48.2188V110.455H44Z" fill="white"/>
<path d="M65.6435 110.676C64.8082 110.676 64.0668 110.537 63.419 110.259C62.777 109.974 62.2685 109.548 61.8935 108.98C61.5241 108.406 61.3395 107.688 61.3395 106.824C61.3395 106.097 61.4673 105.483 61.723 104.983C61.9787 104.483 62.331 104.077 62.7798 103.764C63.2287 103.452 63.7457 103.216 64.331 103.057C64.9162 102.892 65.5412 102.781 66.206 102.724C66.9503 102.656 67.5497 102.585 68.0043 102.511C68.4588 102.432 68.7884 102.321 68.9929 102.179C69.2031 102.031 69.3082 101.824 69.3082 101.557V101.514C69.3082 101.077 69.1577 100.739 68.8565 100.5C68.5554 100.261 68.1491 100.142 67.6378 100.142C67.0866 100.142 66.6435 100.261 66.3082 100.5C65.973 100.739 65.7599 101.068 65.669 101.489L61.8253 101.352C61.9389 100.557 62.2315 99.8466 62.7031 99.2216C63.1804 98.5909 63.8338 98.0966 64.6634 97.7386C65.4986 97.375 66.5014 97.1932 67.6719 97.1932C68.5071 97.1932 69.277 97.2926 69.9815 97.4915C70.6861 97.6847 71.2997 97.9688 71.8224 98.3438C72.3452 98.7131 72.7486 99.1676 73.0327 99.7074C73.3224 100.247 73.4673 100.864 73.4673 101.557V110.455H69.5469V108.631H69.4446C69.2116 109.074 68.9134 109.449 68.5497 109.756C68.1918 110.063 67.7685 110.293 67.2798 110.446C66.7969 110.599 66.2514 110.676 65.6435 110.676ZM66.9304 107.949C67.3793 107.949 67.7827 107.858 68.1406 107.676C68.5043 107.494 68.794 107.244 69.0099 106.926C69.2259 106.602 69.3338 106.227 69.3338 105.801V104.557C69.2145 104.619 69.0696 104.676 68.8991 104.727C68.7344 104.778 68.5526 104.827 68.3537 104.872C68.1548 104.918 67.9503 104.957 67.7401 104.991C67.5298 105.026 67.3281 105.057 67.1349 105.085C66.7429 105.148 66.4077 105.244 66.1293 105.375C65.8565 105.506 65.6463 105.676 65.4986 105.886C65.3565 106.091 65.2855 106.335 65.2855 106.619C65.2855 107.051 65.4389 107.381 65.7457 107.608C66.0582 107.835 66.4531 107.949 66.9304 107.949Z" fill="white"/>
<path d="M80.1832 102.989V110.455H76.0156V97.3636H79.9787V99.767H80.1236C80.4134 98.9659 80.9077 98.3381 81.6065 97.8835C82.3054 97.4233 83.1378 97.1932 84.1037 97.1932C85.0241 97.1932 85.8224 97.4006 86.4986 97.8153C87.1804 98.2244 87.7088 98.7983 88.0838 99.5369C88.4645 100.27 88.652 101.128 88.6463 102.111V110.455H84.4787V102.929C84.4844 102.202 84.2997 101.634 83.9247 101.224C83.5554 100.815 83.0412 100.611 82.3821 100.611C81.9446 100.611 81.5582 100.707 81.223 100.901C80.8935 101.088 80.6378 101.358 80.456 101.71C80.2798 102.063 80.1889 102.489 80.1832 102.989Z" fill="white"/>
<path d="M96.0078 110.642C95.0419 110.642 94.1641 110.392 93.3743 109.892C92.5845 109.392 91.9538 108.642 91.4822 107.642C91.0107 106.642 90.7749 105.401 90.7749 103.918C90.7749 102.378 91.0192 101.111 91.5078 100.116C91.9964 99.1222 92.6357 98.3864 93.4254 97.9091C94.2209 97.4318 95.076 97.1932 95.9908 97.1932C96.6783 97.1932 97.2663 97.3125 97.755 97.5511C98.2436 97.7841 98.647 98.0852 98.9652 98.4545C99.2834 98.8239 99.5249 99.2074 99.6896 99.6051H99.7749V93H103.942V110.455H99.8175V108.332H99.6896C99.5135 108.736 99.2635 109.114 98.9396 109.466C98.6158 109.818 98.2095 110.102 97.7209 110.318C97.2379 110.534 96.6669 110.642 96.0078 110.642ZM97.4567 107.395C97.9624 107.395 98.3942 107.253 98.7521 106.969C99.1101 106.679 99.3857 106.273 99.5788 105.75C99.772 105.227 99.8686 104.614 99.8686 103.909C99.8686 103.193 99.772 102.577 99.5788 102.06C99.3913 101.543 99.1158 101.145 98.7521 100.866C98.3942 100.588 97.9624 100.449 97.4567 100.449C96.9396 100.449 96.5021 100.591 96.1442 100.875C95.7862 101.159 95.5135 101.56 95.326 102.077C95.1442 102.594 95.0533 103.205 95.0533 103.909C95.0533 104.614 95.147 105.227 95.3345 105.75C95.522 106.273 95.7919 106.679 96.1442 106.969C96.5021 107.253 96.9396 107.395 97.4567 107.395Z" fill="white"/>
<path d="M118.007 101.361L114.18 101.463C114.141 101.19 114.033 100.949 113.857 100.739C113.68 100.523 113.45 100.355 113.166 100.236C112.888 100.111 112.564 100.048 112.195 100.048C111.712 100.048 111.3 100.145 110.959 100.338C110.624 100.531 110.459 100.793 110.464 101.122C110.459 101.378 110.561 101.599 110.771 101.787C110.987 101.974 111.371 102.125 111.922 102.239L114.445 102.716C115.751 102.966 116.723 103.381 117.359 103.96C118.001 104.54 118.325 105.307 118.331 106.261C118.325 107.159 118.058 107.94 117.53 108.605C117.007 109.27 116.291 109.787 115.382 110.156C114.473 110.52 113.433 110.702 112.263 110.702C110.393 110.702 108.919 110.318 107.839 109.551C106.766 108.778 106.152 107.744 105.999 106.449L110.115 106.347C110.206 106.824 110.442 107.188 110.822 107.438C111.203 107.688 111.689 107.812 112.28 107.812C112.814 107.812 113.249 107.713 113.584 107.514C113.919 107.315 114.089 107.051 114.095 106.722C114.089 106.426 113.959 106.19 113.703 106.014C113.447 105.832 113.047 105.69 112.501 105.588L110.217 105.153C108.905 104.915 107.928 104.474 107.286 103.832C106.643 103.185 106.325 102.361 106.331 101.361C106.325 100.486 106.558 99.7386 107.03 99.1193C107.501 98.4943 108.172 98.017 109.041 97.6875C109.911 97.358 110.936 97.1932 112.118 97.1932C113.891 97.1932 115.288 97.5653 116.311 98.3097C117.334 99.0483 117.899 100.065 118.007 101.361Z" fill="white"/>
<path d="M128.761 101.787V105H120.681V101.787H128.761Z" fill="white"/>
<path d="M137.814 110.702C136.439 110.702 135.257 110.42 134.268 109.858C133.286 109.29 132.527 108.5 131.993 107.489C131.464 106.472 131.2 105.293 131.2 103.952C131.2 102.605 131.464 101.426 131.993 100.415C132.527 99.3977 133.286 98.608 134.268 98.0455C135.257 97.4773 136.439 97.1932 137.814 97.1932C139.189 97.1932 140.368 97.4773 141.351 98.0455C142.339 98.608 143.098 99.3977 143.626 100.415C144.161 101.426 144.428 102.605 144.428 103.952C144.428 105.293 144.161 106.472 143.626 107.489C143.098 108.5 142.339 109.29 141.351 109.858C140.368 110.42 139.189 110.702 137.814 110.702ZM137.839 107.557C138.339 107.557 138.763 107.403 139.109 107.097C139.456 106.79 139.72 106.364 139.902 105.818C140.089 105.273 140.183 104.642 140.183 103.926C140.183 103.199 140.089 102.563 139.902 102.017C139.72 101.472 139.456 101.045 139.109 100.739C138.763 100.432 138.339 100.278 137.839 100.278C137.322 100.278 136.885 100.432 136.527 100.739C136.175 101.045 135.905 101.472 135.717 102.017C135.536 102.563 135.445 103.199 135.445 103.926C135.445 104.642 135.536 105.273 135.717 105.818C135.905 106.364 136.175 106.79 136.527 107.097C136.885 107.403 137.322 107.557 137.839 107.557Z" fill="white"/>
<path d="M150.73 102.989V110.455H146.562V97.3636H150.526V99.767H150.67C150.96 98.9659 151.455 98.3381 152.153 97.8835C152.852 97.4233 153.685 97.1932 154.651 97.1932C155.571 97.1932 156.369 97.4006 157.045 97.8153C157.727 98.2244 158.256 98.7983 158.631 99.5369C159.011 100.27 159.199 101.128 159.193 102.111V110.455H155.026V102.929C155.031 102.202 154.847 101.634 154.472 101.224C154.102 100.815 153.588 100.611 152.929 100.611C152.491 100.611 152.105 100.707 151.77 100.901C151.44 101.088 151.185 101.358 151.003 101.71C150.827 102.063 150.736 102.489 150.73 102.989Z" fill="white"/>
<defs>
<linearGradient id="paint0_linear_0_1" x1="-12.4348" y1="91.2145" x2="228.124" y2="92.098" gradientUnits="userSpaceOnUse">
<stop stop-color="#AA367C"/>
<stop offset="1" stop-color="#4A2FBD"/>
</linearGradient>
</defs>
</svg>
