<svg width="204" height="204" viewBox="0 0 204 204" fill="none" xmlns="http://www.w3.org/2000/svg">
<g clip-path="url(#clip0_1_20)">
<path d="M187.639 69.9021C193.092 67.8586 199.226 70.6143 200.696 76.2484C206.238 97.4863 204.802 120.051 196.436 140.546C186.737 164.31 168.435 183.543 145.182 194.409C121.928 205.275 95.4333 206.975 70.9821 199.169C46.5309 191.364 25.9211 174.628 13.2642 152.299C0.60733 129.97 -3.16618 103.69 2.6965 78.7016C8.55918 53.7134 23.627 31.854 44.8941 17.4842C66.1612 3.11439 92.0641 -2.7094 117.435 1.17464C139.317 4.52444 159.415 14.8827 174.791 30.5466C178.869 34.702 178.083 41.3805 173.529 45.009C168.975 48.6374 162.385 47.8272 158.195 43.7832C146.212 32.2155 130.877 24.5642 114.244 22.0179C94.1181 18.9368 73.5701 23.5566 56.6994 34.9558C39.8288 46.355 27.8758 63.6955 23.2251 83.518C18.5744 103.34 21.5679 124.188 31.6082 141.901C41.6486 159.614 57.9979 172.89 77.3943 179.082C96.7908 185.274 117.809 183.925 136.255 175.305C154.701 166.686 169.219 151.429 176.914 132.578C183.273 116.999 184.584 99.9117 180.815 83.688C179.497 78.0164 182.187 71.9457 187.639 69.9021Z" fill="url(#paint0_linear_1_20)"/>
<path d="M53 93H58.2244L62.6562 103.807H62.8608L67.2926 93H72.517V110.455H68.4091V99.733H68.2642L64.071 110.344H61.446L57.2528 99.6733H57.108V110.455H53V93Z" fill="white"/>
<path d="M81.2678 110.702C79.8984 110.702 78.7166 110.432 77.7223 109.892C76.7337 109.347 75.9723 108.571 75.4382 107.565C74.9098 106.554 74.6456 105.352 74.6456 103.96C74.6456 102.608 74.9126 101.426 75.4467 100.415C75.9808 99.3977 76.7337 98.608 77.7053 98.0455C78.6768 97.4773 79.8217 97.1932 81.1399 97.1932C82.0717 97.1932 82.924 97.3381 83.6967 97.6278C84.4695 97.9176 85.1371 98.3466 85.6996 98.9148C86.2621 99.483 86.6996 100.185 87.0121 101.02C87.3246 101.849 87.4808 102.801 87.4808 103.875V104.915H76.103V102.494H83.603C83.5973 102.051 83.4922 101.656 83.2876 101.31C83.0831 100.963 82.8018 100.693 82.4439 100.5C82.0916 100.301 81.6854 100.202 81.2251 100.202C80.7592 100.202 80.3416 100.307 79.9723 100.517C79.603 100.722 79.3104 101.003 79.0945 101.361C78.8786 101.713 78.7649 102.114 78.7536 102.562V105.026C78.7536 105.56 78.8587 106.028 79.0689 106.432C79.2791 106.83 79.5774 107.139 79.9638 107.361C80.3501 107.582 80.8104 107.693 81.3445 107.693C81.7138 107.693 82.049 107.642 82.3501 107.54C82.6513 107.438 82.9098 107.287 83.1257 107.088C83.3416 106.889 83.5036 106.645 83.6115 106.355L87.4382 106.466C87.2791 107.324 86.9297 108.071 86.3899 108.707C85.8558 109.338 85.1541 109.83 84.2848 110.182C83.4155 110.528 82.4098 110.702 81.2678 110.702Z" fill="white"/>
<path d="M93.777 102.989V110.455H89.6094V97.3636H93.5724V99.767H93.7173C94.0071 98.9659 94.5014 98.3381 95.2003 97.8835C95.8991 97.4233 96.7315 97.1932 97.6974 97.1932C98.6179 97.1932 99.4162 97.4006 100.092 97.8153C100.774 98.2244 101.303 98.7983 101.678 99.5369C102.058 100.27 102.246 101.128 102.24 102.111V110.455H98.0724V102.929C98.0781 102.202 97.8935 101.634 97.5185 101.224C97.1491 100.815 96.6349 100.611 95.9759 100.611C95.5384 100.611 95.152 100.707 94.8168 100.901C94.4872 101.088 94.2315 101.358 94.0497 101.71C93.8736 102.063 93.7827 102.489 93.777 102.989Z" fill="white"/>
<path d="M112.21 97.3636V100.432H103.951V97.3636H112.21ZM105.681 94.2273H109.849V106.338C109.849 106.594 109.888 106.801 109.968 106.96C110.053 107.114 110.175 107.224 110.335 107.293C110.494 107.355 110.684 107.386 110.906 107.386C111.065 107.386 111.232 107.372 111.408 107.344C111.59 107.31 111.727 107.281 111.817 107.259L112.448 110.267C112.249 110.324 111.968 110.395 111.604 110.48C111.246 110.565 110.817 110.619 110.317 110.642C109.34 110.688 108.502 110.574 107.803 110.301C107.11 110.023 106.579 109.591 106.21 109.006C105.846 108.42 105.67 107.685 105.681 106.798V94.2273Z" fill="white"/>
<path d="M120.306 110.702C118.931 110.702 117.749 110.42 116.761 109.858C115.778 109.29 115.019 108.5 114.485 107.489C113.957 106.472 113.692 105.293 113.692 103.952C113.692 102.605 113.957 101.426 114.485 100.415C115.019 99.3977 115.778 98.608 116.761 98.0455C117.749 97.4773 118.931 97.1932 120.306 97.1932C121.681 97.1932 122.86 97.4773 123.843 98.0455C124.832 98.608 125.59 99.3977 126.119 100.415C126.653 101.426 126.92 102.605 126.92 103.952C126.92 105.293 126.653 106.472 126.119 107.489C125.59 108.5 124.832 109.29 123.843 109.858C122.86 110.42 121.681 110.702 120.306 110.702ZM120.332 107.557C120.832 107.557 121.255 107.403 121.602 107.097C121.948 106.79 122.212 106.364 122.394 105.818C122.582 105.273 122.675 104.642 122.675 103.926C122.675 103.199 122.582 102.563 122.394 102.017C122.212 101.472 121.948 101.045 121.602 100.739C121.255 100.432 120.832 100.278 120.332 100.278C119.815 100.278 119.377 100.432 119.019 100.739C118.667 101.045 118.397 101.472 118.21 102.017C118.028 102.563 117.937 103.199 117.937 103.926C117.937 104.642 118.028 105.273 118.21 105.818C118.397 106.364 118.667 106.79 119.019 107.097C119.377 107.403 119.815 107.557 120.332 107.557Z" fill="white"/>
<path d="M129.055 110.455V97.3636H133.103V99.75H133.239C133.478 98.8864 133.867 98.2443 134.407 97.8239C134.947 97.3977 135.575 97.1847 136.29 97.1847C136.484 97.1847 136.683 97.1989 136.887 97.2273C137.092 97.25 137.282 97.2869 137.458 97.3381V100.96C137.259 100.892 136.998 100.838 136.674 100.798C136.356 100.759 136.072 100.739 135.822 100.739C135.327 100.739 134.881 100.849 134.484 101.071C134.092 101.287 133.782 101.591 133.555 101.983C133.333 102.369 133.222 102.824 133.222 103.347V110.455H129.055Z" fill="white"/>
<path d="M150.585 101.361L146.759 101.463C146.719 101.19 146.611 100.949 146.435 100.739C146.259 100.523 146.028 100.355 145.744 100.236C145.466 100.111 145.142 100.048 144.773 100.048C144.29 100.048 143.878 100.145 143.537 100.338C143.202 100.531 143.037 100.793 143.043 101.122C143.037 101.378 143.139 101.599 143.349 101.787C143.565 101.974 143.949 102.125 144.5 102.239L147.023 102.716C148.33 102.966 149.301 103.381 149.938 103.96C150.58 104.54 150.903 105.307 150.909 106.261C150.903 107.159 150.636 107.94 150.108 108.605C149.585 109.27 148.869 109.787 147.96 110.156C147.051 110.52 146.011 110.702 144.841 110.702C142.972 110.702 141.497 110.318 140.418 109.551C139.344 108.778 138.73 107.744 138.577 106.449L142.693 106.347C142.784 106.824 143.02 107.188 143.401 107.438C143.781 107.688 144.267 107.812 144.858 107.812C145.392 107.812 145.827 107.713 146.162 107.514C146.497 107.315 146.668 107.051 146.673 106.722C146.668 106.426 146.537 106.19 146.281 106.014C146.026 105.832 145.625 105.69 145.08 105.588L142.795 105.153C141.483 104.915 140.506 104.474 139.864 103.832C139.222 103.185 138.903 102.361 138.909 101.361C138.903 100.486 139.136 99.7386 139.608 99.1193C140.08 98.4943 140.75 98.017 141.619 97.6875C142.489 97.358 143.514 97.1932 144.696 97.1932C146.469 97.1932 147.866 97.5653 148.889 98.3097C149.912 99.0483 150.477 100.065 150.585 101.361Z" fill="white"/>
</g>
<defs>
<linearGradient id="paint0_linear_1_20" x1="-12.4348" y1="91.2145" x2="228.124" y2="92.098" gradientUnits="userSpaceOnUse">
<stop stop-color="#AA367C"/>
<stop offset="1" stop-color="#4A2FBD"/>
</linearGradient>
<clipPath id="clip0_1_20">
<rect width="204" height="204" fill="white"/>
</clipPath>
</defs>
</svg>
