<?xml version="1.0" encoding="UTF-8"?>
<svg xmlns="http://www.w3.org/2000/svg" xmlns:xlink="http://www.w3.org/1999/xlink" viewBox="0 0 16 16" width="16px" height="16px">
<g id="surface308147140">
<path style=" stroke:none;fill-rule:nonzero;fill:rgb(100%,100%,100%);fill-opacity:1;" d="M 16.019531 3.339844 C 15.429688 3.601562 14.796875 3.777344 14.128906 3.859375 C 14.808594 3.453125 15.332031 2.804688 15.578125 2.039062 C 14.941406 2.414062 14.234375 2.6875 13.484375 2.835938 C 12.886719 2.195312 12.03125 1.796875 11.085938 1.796875 C 9.265625 1.796875 7.792969 3.269531 7.792969 5.085938 C 7.792969 5.34375 7.824219 5.597656 7.878906 5.835938 C 5.144531 5.699219 2.722656 4.390625 1.097656 2.398438 C 0.8125 2.886719 0.652344 3.453125 0.652344 4.054688 C 0.652344 5.195312 1.234375 6.203125 2.117188 6.792969 C 1.578125 6.777344 1.070312 6.628906 0.625 6.382812 C 0.625 6.394531 0.625 6.410156 0.625 6.421875 C 0.625 8.015625 1.761719 9.347656 3.265625 9.648438 C 2.988281 9.726562 2.699219 9.765625 2.398438 9.765625 C 2.183594 9.765625 1.980469 9.746094 1.777344 9.703125 C 2.199219 11.011719 3.414062 11.964844 4.851562 11.992188 C 3.726562 12.875 2.308594 13.398438 0.765625 13.398438 C 0.5 13.398438 0.238281 13.382812 -0.0195312 13.351562 C 1.4375 14.289062 3.167969 14.832031 5.023438 14.832031 C 11.078125 14.832031 14.386719 9.816406 14.386719 5.46875 C 14.386719 5.328125 14.382812 5.183594 14.378906 5.042969 C 15.019531 4.578125 15.578125 4 16.019531 3.339844 Z M 16.019531 3.339844 "/>
</g>
</svg>
